M48
; DRILL file {KiCad (5.1.9)-1} date 11/02/25 13:22:52
; FORMAT={-:-/ absolute / metric / decimal}
; #@! TF.CreationDate,2025-11-02T13:22:52+09:00
; #@! TF.GenerationSoftware,Kicad,Pcbnew,(5.1.9)-1
FMAT,2
METRIC
T1C0.300
T2C0.800
T3C0.900
T4C1.000
T5C1.100
T6C3.200
%
G90
G05
T1
X10.082Y61.048
X21.139Y28.426
X21.227Y43.629
X21.59Y37.861
X22.258Y78.664
X26.878Y63.002
X29.51Y62.958
X30.317Y70.043
X32.368Y95.0
X38.477Y40.731
X49.31Y39.995
X49.405Y63.299
X49.788Y41.167
X51.997Y40.516
X54.012Y56.791
X55.163Y70.194
X56.113Y39.938
X58.31Y67.569
X59.864Y55.751
X60.3Y47.454
X61.186Y39.567
X62.249Y51.764
X63.711Y44.334
X63.812Y55.517
X64.305Y52.241
X65.298Y43.688
X66.568Y52.133
X67.237Y40.39
X69.248Y40.858
X69.259Y39.446
X69.417Y52.64
X69.543Y42.582
X69.931Y52.154
X70.822Y52.534
X82.362Y46.378
X83.09Y48.015
X91.369Y75.529
X100.761Y47.464
X105.136Y51.84
X110.378Y78.434
X112.061Y44.589
X128.1Y75.565
T2
X7.62Y39.37
X9.525Y92.075
X9.525Y89.575
X9.525Y78.74
X9.525Y76.24
X9.525Y64.77
X9.525Y62.27
X9.525Y50.8
X9.525Y48.3
X10.16Y39.37
X12.446Y18.955
X12.446Y16.955
X12.446Y14.955
X12.446Y10.955
X12.7Y94.615
X12.7Y86.995
X12.7Y81.28
X12.7Y73.66
X12.7Y67.31
X12.7Y59.69
X12.7Y53.34
X12.7Y45.72
X12.7Y39.37
X15.24Y94.615
X15.24Y86.995
X15.24Y81.28
X15.24Y73.66
X15.24Y67.31
X15.24Y59.69
X15.24Y53.34
X15.24Y45.72
X15.24Y39.37
X17.78Y94.615
X17.78Y86.995
X17.78Y81.28
X17.78Y73.66
X17.78Y67.31
X17.78Y59.69
X17.78Y53.34
X17.78Y45.72
X17.78Y39.37
X17.907Y18.97
X17.907Y16.97
X17.907Y14.97
X17.907Y10.97
X20.32Y94.615
X20.32Y86.995
X20.32Y81.28
X20.32Y73.66
X20.32Y67.31
X20.32Y59.69
X20.32Y53.34
X20.32Y45.72
X20.32Y39.37
X22.86Y94.615
X22.86Y86.995
X22.86Y81.28
X22.86Y73.66
X22.86Y67.31
X22.86Y59.69
X22.86Y53.34
X22.86Y45.72
X22.86Y39.37
X23.368Y18.97
X23.368Y16.97
X23.368Y14.97
X23.368Y10.97
X25.4Y94.615
X25.4Y86.995
X25.4Y81.28
X25.4Y73.66
X25.4Y67.31
X25.4Y59.69
X25.4Y53.34
X25.4Y45.72
X25.4Y39.37
X27.94Y94.615
X27.94Y86.995
X27.94Y81.28
X27.94Y73.66
X27.94Y67.31
X27.94Y59.69
X27.94Y53.34
X27.94Y45.72
X27.94Y39.37
X30.48Y53.34
X30.48Y45.72
X30.48Y19.05
X30.48Y16.55
X31.75Y92.075
X31.75Y89.575
X31.75Y78.74
X31.75Y76.24
X31.75Y64.77
X31.75Y62.27
X33.02Y53.34
X33.02Y45.72
X33.655Y25.4
X33.655Y10.16
X33.655Y5.08
X34.925Y94.615
X34.925Y86.995
X34.925Y81.28
X34.925Y73.66
X34.925Y67.31
X34.925Y59.69
X35.56Y53.34
X35.56Y45.72
X36.195Y25.4
X36.195Y10.16
X37.465Y94.615
X37.465Y86.995
X37.465Y81.28
X37.465Y73.66
X37.465Y67.31
X37.465Y59.69
X38.735Y38.735
X38.735Y34.925
X38.735Y25.4
X38.735Y10.16
X39.37Y50.8
X39.37Y48.3
X40.005Y94.615
X40.005Y86.995
X40.005Y81.28
X40.005Y73.66
X40.005Y67.31
X40.005Y59.69
X41.275Y30.48
X41.275Y25.4
X41.275Y10.16
X42.545Y94.615
X42.545Y86.995
X42.545Y81.28
X42.545Y73.66
X42.545Y67.31
X42.545Y59.69
X42.545Y53.34
X42.545Y45.72
X43.775Y30.48
X43.815Y25.4
X43.815Y10.16
X43.815Y5.08
X45.085Y94.615
X45.085Y86.995
X45.085Y81.28
X45.085Y73.66
X45.085Y67.31
X45.085Y59.69
X45.085Y53.34
X45.085Y45.72
X46.355Y30.48
X46.355Y25.4
X46.355Y10.16
X47.625Y94.615
X47.625Y86.995
X47.625Y81.28
X47.625Y73.66
X47.625Y67.31
X47.625Y59.69
X47.625Y53.34
X47.625Y45.72
X48.855Y30.48
X48.895Y38.735
X48.895Y34.925
X48.895Y25.4
X48.895Y10.16
X50.165Y94.615
X50.165Y86.995
X50.165Y81.28
X50.165Y73.66
X50.165Y67.31
X50.165Y59.69
X50.165Y53.34
X50.165Y45.72
X51.435Y25.4
X51.435Y10.16
X52.705Y94.615
X52.705Y86.995
X52.705Y53.34
X52.705Y45.72
X53.975Y25.4
X53.975Y10.16
X55.245Y53.34
X55.245Y45.72
X56.515Y25.4
X56.515Y10.16
X57.785Y53.34
X57.785Y45.72
X59.055Y25.4
X59.055Y10.16
X59.69Y75.565
X59.69Y73.065
X60.325Y53.34
X60.325Y45.72
X61.595Y25.4
X61.595Y10.16
X62.865Y81.915
X62.865Y66.675
X62.865Y53.34
X62.865Y45.72
X64.135Y25.4
X64.135Y10.16
X65.405Y81.915
X65.405Y66.675
X65.405Y53.34
X65.405Y45.72
X66.675Y25.4
X66.675Y10.16
X67.945Y81.915
X67.945Y66.675
X69.215Y25.4
X69.215Y10.16
X69.91Y95.965
X70.485Y81.915
X70.485Y66.675
X71.755Y25.4
X71.755Y10.16
X73.025Y81.915
X73.025Y66.675
X74.295Y40.005
X74.295Y29.845
X74.295Y25.4
X74.295Y10.16
X74.91Y92.365
X75.565Y81.915
X75.565Y66.675
X76.835Y25.4
X76.835Y10.16
X78.105Y81.915
X78.105Y66.675
X79.375Y25.4
X79.375Y10.16
X79.91Y95.965
X80.645Y81.915
X80.645Y66.675
X81.915Y25.4
X81.915Y10.16
X82.55Y58.42
X82.55Y55.92
X83.185Y81.915
X83.185Y66.675
X85.725Y81.915
X85.725Y66.675
X85.725Y60.96
X85.725Y53.34
X88.265Y81.915
X88.265Y66.675
X88.265Y60.96
X88.265Y53.34
X90.805Y81.915
X90.805Y66.675
X90.805Y60.96
X90.805Y53.34
X93.345Y81.915
X93.345Y66.675
X93.345Y60.96
X93.345Y53.34
X95.885Y81.915
X95.885Y66.675
X95.885Y60.96
X95.885Y53.34
X98.425Y60.96
X98.425Y53.34
X100.965Y60.96
X100.965Y53.34
X103.505Y60.96
X103.505Y53.34
X104.14Y80.645
X104.14Y70.485
X104.775Y31.75
X104.775Y19.05
X105.41Y47.625
X107.315Y58.42
X107.315Y55.92
X107.315Y31.75
X107.315Y19.05
X107.95Y47.625
X108.585Y80.645
X108.585Y70.485
X109.22Y92.71
X109.855Y31.75
X109.855Y19.05
X110.49Y60.96
X110.49Y53.34
X110.49Y47.625
X112.395Y31.75
X112.395Y19.05
X113.03Y60.96
X113.03Y53.34
X113.03Y47.625
X114.935Y31.75
X114.935Y19.05
X115.57Y60.96
X115.57Y53.34
X115.57Y47.625
X117.475Y31.75
X117.475Y19.05
X118.11Y60.96
X118.11Y53.34
X118.11Y47.625
X119.38Y96.52
X119.38Y92.71
X120.015Y31.75
X120.015Y19.05
X120.65Y60.96
X120.65Y53.34
X120.65Y47.625
X122.555Y31.75
X122.555Y19.05
X123.19Y60.96
X123.19Y53.34
X123.19Y47.625
X125.095Y31.75
X125.095Y19.05
X125.73Y60.96
X125.73Y53.34
X125.73Y47.625
X128.27Y60.96
X128.27Y53.34
X128.905Y92.71
X129.54Y96.52
X137.16Y85.725
X137.16Y75.565
X139.065Y92.71
X144.185Y37.465
X146.685Y37.465
T3
X90.17Y24.765
X92.71Y24.765
X96.52Y24.765
X99.06Y24.765
X102.87Y24.765
X105.41Y24.765
X106.68Y88.9
X106.68Y86.36
X109.22Y24.765
X111.76Y24.765
X118.11Y24.765
X119.38Y88.9
X119.38Y86.36
X120.65Y24.765
X124.46Y24.765
X127.0Y24.765
X130.81Y24.765
X131.445Y88.9
X131.445Y86.36
X133.35Y24.765
X137.16Y24.765
X139.7Y24.765
T4
X12.145Y32.915
X12.145Y30.375
X12.145Y27.835
X91.44Y41.91
X91.44Y39.37
X91.44Y36.83
X91.44Y13.335
X91.44Y10.795
X91.44Y8.255
X92.71Y93.98
X95.25Y93.98
X97.79Y93.98
X97.79Y41.91
X97.79Y39.37
X97.79Y36.83
X97.79Y13.335
X97.79Y10.795
X97.79Y8.255
X104.14Y41.91
X104.14Y39.37
X104.14Y36.83
X104.14Y13.335
X104.14Y10.795
X104.14Y8.255
X110.49Y41.91
X110.49Y39.37
X110.49Y36.83
X110.49Y13.335
X110.49Y10.795
X110.49Y8.255
X119.38Y80.645
X119.38Y78.105
X119.38Y75.565
X119.38Y41.91
X119.38Y39.37
X119.38Y36.83
X119.38Y13.335
X119.38Y10.795
X119.38Y8.255
X125.73Y41.91
X125.73Y39.37
X125.73Y36.83
X125.73Y13.335
X125.73Y10.795
X125.73Y8.255
X131.445Y80.645
X131.445Y78.105
X131.445Y75.565
X132.08Y41.91
X132.08Y39.37
X132.08Y36.83
X132.08Y13.335
X132.08Y10.795
X132.08Y8.255
X138.43Y41.91
X138.43Y39.37
X138.43Y36.83
X138.43Y13.335
X138.43Y10.795
X138.43Y8.255
X147.32Y53.975
X147.32Y51.435
X147.32Y48.895
T5
X62.865Y86.995
X73.025Y86.995
X85.09Y86.995
X95.25Y86.995
T6
X5.0Y95.0
X5.0Y5.0
X145.0Y95.0
X145.0Y5.0
T2
G00X12.246Y21.255
M15
G01X12.646Y21.255
M16
G05
G00X12.246Y8.655
M15
G01X12.646Y8.655
M16
G05
G00X17.707Y21.27
M15
G01X18.107Y21.27
M16
G05
G00X17.707Y8.67
M15
G01X18.107Y8.67
M16
G05
G00X23.168Y21.27
M15
G01X23.568Y21.27
M16
G05
G00X23.168Y8.67
M15
G01X23.568Y8.67
M16
G05
T4
G00X136.525Y65.04
M15
G01X136.525Y67.04
M16
G05
G00X140.525Y70.74
M15
G01X138.525Y70.74
M16
G05
G00X142.525Y65.04
M15
G01X142.525Y67.04
M16
G05
T0
M30
