G04 #@! TF.GenerationSoftware,KiCad,Pcbnew,(5.1.9)-1*
G04 #@! TF.CreationDate,2025-11-02T13:22:50+09:00*
G04 #@! TF.ProjectId,ECOM-800,45434f4d-2d38-4303-902e-6b696361645f,rev?*
G04 #@! TF.SameCoordinates,PX53920b0PY93c3260*
G04 #@! TF.FileFunction,Legend,Top*
G04 #@! TF.FilePolarity,Positive*
%FSLAX46Y46*%
G04 Gerber Fmt 4.6, Leading zero omitted, Abs format (unit mm)*
G04 Created by KiCad (PCBNEW (5.1.9)-1) date 2025-11-02 13:22:50*
%MOMM*%
%LPD*%
G01*
G04 APERTURE LIST*
%ADD10C,0.150000*%
%ADD11C,1.000000*%
%ADD12C,0.500000*%
%ADD13C,0.300000*%
%ADD14C,0.120000*%
G04 APERTURE END LIST*
D10*
X73469761Y98067858D02*
X73422142Y98020239D01*
X73279285Y97972620D01*
X73184047Y97972620D01*
X73041190Y98020239D01*
X72945952Y98115477D01*
X72898333Y98210715D01*
X72850714Y98401191D01*
X72850714Y98544048D01*
X72898333Y98734524D01*
X72945952Y98829762D01*
X73041190Y98925000D01*
X73184047Y98972620D01*
X73279285Y98972620D01*
X73422142Y98925000D01*
X73469761Y98877381D01*
X74469761Y97972620D02*
X74136428Y98448810D01*
X73898333Y97972620D02*
X73898333Y98972620D01*
X74279285Y98972620D01*
X74374523Y98925000D01*
X74422142Y98877381D01*
X74469761Y98782143D01*
X74469761Y98639286D01*
X74422142Y98544048D01*
X74374523Y98496429D01*
X74279285Y98448810D01*
X73898333Y98448810D01*
X74850714Y98877381D02*
X74898333Y98925000D01*
X74993571Y98972620D01*
X75231666Y98972620D01*
X75326904Y98925000D01*
X75374523Y98877381D01*
X75422142Y98782143D01*
X75422142Y98686905D01*
X75374523Y98544048D01*
X74803095Y97972620D01*
X75422142Y97972620D01*
X76041190Y98972620D02*
X76136428Y98972620D01*
X76231666Y98925000D01*
X76279285Y98877381D01*
X76326904Y98782143D01*
X76374523Y98591667D01*
X76374523Y98353572D01*
X76326904Y98163096D01*
X76279285Y98067858D01*
X76231666Y98020239D01*
X76136428Y97972620D01*
X76041190Y97972620D01*
X75945952Y98020239D01*
X75898333Y98067858D01*
X75850714Y98163096D01*
X75803095Y98353572D01*
X75803095Y98591667D01*
X75850714Y98782143D01*
X75898333Y98877381D01*
X75945952Y98925000D01*
X76041190Y98972620D01*
X76707857Y98972620D02*
X77326904Y98972620D01*
X76993571Y98591667D01*
X77136428Y98591667D01*
X77231666Y98544048D01*
X77279285Y98496429D01*
X77326904Y98401191D01*
X77326904Y98163096D01*
X77279285Y98067858D01*
X77231666Y98020239D01*
X77136428Y97972620D01*
X76850714Y97972620D01*
X76755476Y98020239D01*
X76707857Y98067858D01*
X77707857Y98877381D02*
X77755476Y98925000D01*
X77850714Y98972620D01*
X78088809Y98972620D01*
X78184047Y98925000D01*
X78231666Y98877381D01*
X78279285Y98782143D01*
X78279285Y98686905D01*
X78231666Y98544048D01*
X77660238Y97972620D01*
X78279285Y97972620D01*
X89503333Y89082620D02*
X88931904Y89082620D01*
X89217619Y89082620D02*
X89217619Y90082620D01*
X89122380Y89939762D01*
X89027142Y89844524D01*
X88931904Y89796905D01*
X89884285Y89130239D02*
X90027142Y89082620D01*
X90265238Y89082620D01*
X90360476Y89130239D01*
X90408095Y89177858D01*
X90455714Y89273096D01*
X90455714Y89368334D01*
X90408095Y89463572D01*
X90360476Y89511191D01*
X90265238Y89558810D01*
X90074761Y89606429D01*
X89979523Y89654048D01*
X89931904Y89701667D01*
X89884285Y89796905D01*
X89884285Y89892143D01*
X89931904Y89987381D01*
X89979523Y90035000D01*
X90074761Y90082620D01*
X90312857Y90082620D01*
X90455714Y90035000D01*
X91312857Y89749286D02*
X91312857Y89082620D01*
X91074761Y90130239D02*
X90836666Y89415953D01*
X91455714Y89415953D01*
X67913333Y89082620D02*
X67341904Y89082620D01*
X67627619Y89082620D02*
X67627619Y90082620D01*
X67532380Y89939762D01*
X67437142Y89844524D01*
X67341904Y89796905D01*
X68294285Y89130239D02*
X68437142Y89082620D01*
X68675238Y89082620D01*
X68770476Y89130239D01*
X68818095Y89177858D01*
X68865714Y89273096D01*
X68865714Y89368334D01*
X68818095Y89463572D01*
X68770476Y89511191D01*
X68675238Y89558810D01*
X68484761Y89606429D01*
X68389523Y89654048D01*
X68341904Y89701667D01*
X68294285Y89796905D01*
X68294285Y89892143D01*
X68341904Y89987381D01*
X68389523Y90035000D01*
X68484761Y90082620D01*
X68722857Y90082620D01*
X68865714Y90035000D01*
X69722857Y89749286D02*
X69722857Y89082620D01*
X69484761Y90130239D02*
X69246666Y89415953D01*
X69865714Y89415953D01*
X91638571Y96591429D02*
X91971904Y96591429D01*
X92114761Y96067620D02*
X91638571Y96067620D01*
X91638571Y97067620D01*
X92114761Y97067620D01*
X92448095Y97067620D02*
X93114761Y96067620D01*
X93114761Y97067620D02*
X92448095Y96067620D01*
X93352857Y97067620D02*
X93924285Y97067620D01*
X93638571Y96067620D02*
X93638571Y97067620D01*
X97266190Y96067620D02*
X97266190Y97067620D01*
X97742380Y96067620D02*
X97742380Y97067620D01*
X98313809Y96067620D01*
X98313809Y97067620D01*
X92226190Y91511429D02*
X92369047Y91463810D01*
X92416666Y91416191D01*
X92464285Y91320953D01*
X92464285Y91178096D01*
X92416666Y91082858D01*
X92369047Y91035239D01*
X92273809Y90987620D01*
X91892857Y90987620D01*
X91892857Y91987620D01*
X92226190Y91987620D01*
X92321428Y91940000D01*
X92369047Y91892381D01*
X92416666Y91797143D01*
X92416666Y91701905D01*
X92369047Y91606667D01*
X92321428Y91559048D01*
X92226190Y91511429D01*
X91892857Y91511429D01*
X92845238Y91273334D02*
X93321428Y91273334D01*
X92750000Y90987620D02*
X93083333Y91987620D01*
X93416666Y90987620D01*
X93607142Y91987620D02*
X94178571Y91987620D01*
X93892857Y90987620D02*
X93892857Y91987620D01*
X94369047Y91987620D02*
X94940476Y91987620D01*
X94654761Y90987620D02*
X94654761Y91987620D01*
X95035714Y90892381D02*
X95797619Y90892381D01*
X96607142Y91082858D02*
X96559523Y91035239D01*
X96416666Y90987620D01*
X96321428Y90987620D01*
X96178571Y91035239D01*
X96083333Y91130477D01*
X96035714Y91225715D01*
X95988095Y91416191D01*
X95988095Y91559048D01*
X96035714Y91749524D01*
X96083333Y91844762D01*
X96178571Y91940000D01*
X96321428Y91987620D01*
X96416666Y91987620D01*
X96559523Y91940000D01*
X96607142Y91892381D01*
X97035714Y90987620D02*
X97035714Y91987620D01*
X97035714Y91511429D02*
X97607142Y91511429D01*
X97607142Y90987620D02*
X97607142Y91987620D01*
X98607142Y91940000D02*
X98511904Y91987620D01*
X98369047Y91987620D01*
X98226190Y91940000D01*
X98130952Y91844762D01*
X98083333Y91749524D01*
X98035714Y91559048D01*
X98035714Y91416191D01*
X98083333Y91225715D01*
X98130952Y91130477D01*
X98226190Y91035239D01*
X98369047Y90987620D01*
X98464285Y90987620D01*
X98607142Y91035239D01*
X98654761Y91082858D01*
X98654761Y91416191D01*
X98464285Y91416191D01*
D11*
X47389285Y3532143D02*
X49055952Y3532143D01*
X49770238Y913096D02*
X47389285Y913096D01*
X47389285Y5913096D01*
X49770238Y5913096D01*
X54770238Y1389286D02*
X54532142Y1151191D01*
X53817857Y913096D01*
X53341666Y913096D01*
X52627380Y1151191D01*
X52151190Y1627381D01*
X51913095Y2103572D01*
X51675000Y3055953D01*
X51675000Y3770239D01*
X51913095Y4722620D01*
X52151190Y5198810D01*
X52627380Y5675000D01*
X53341666Y5913096D01*
X53817857Y5913096D01*
X54532142Y5675000D01*
X54770238Y5436905D01*
X57865476Y5913096D02*
X58817857Y5913096D01*
X59294047Y5675000D01*
X59770238Y5198810D01*
X60008333Y4246429D01*
X60008333Y2579762D01*
X59770238Y1627381D01*
X59294047Y1151191D01*
X58817857Y913096D01*
X57865476Y913096D01*
X57389285Y1151191D01*
X56913095Y1627381D01*
X56675000Y2579762D01*
X56675000Y4246429D01*
X56913095Y5198810D01*
X57389285Y5675000D01*
X57865476Y5913096D01*
X62151190Y913096D02*
X62151190Y5913096D01*
X63817857Y2341667D01*
X65484523Y5913096D01*
X65484523Y913096D01*
X67865476Y2817858D02*
X71675000Y2817858D01*
X74770238Y3770239D02*
X74294047Y4008334D01*
X74055952Y4246429D01*
X73817857Y4722620D01*
X73817857Y4960715D01*
X74055952Y5436905D01*
X74294047Y5675000D01*
X74770238Y5913096D01*
X75722619Y5913096D01*
X76198809Y5675000D01*
X76436904Y5436905D01*
X76675000Y4960715D01*
X76675000Y4722620D01*
X76436904Y4246429D01*
X76198809Y4008334D01*
X75722619Y3770239D01*
X74770238Y3770239D01*
X74294047Y3532143D01*
X74055952Y3294048D01*
X73817857Y2817858D01*
X73817857Y1865477D01*
X74055952Y1389286D01*
X74294047Y1151191D01*
X74770238Y913096D01*
X75722619Y913096D01*
X76198809Y1151191D01*
X76436904Y1389286D01*
X76675000Y1865477D01*
X76675000Y2817858D01*
X76436904Y3294048D01*
X76198809Y3532143D01*
X75722619Y3770239D01*
X79770238Y5913096D02*
X80246428Y5913096D01*
X80722619Y5675000D01*
X80960714Y5436905D01*
X81198809Y4960715D01*
X81436904Y4008334D01*
X81436904Y2817858D01*
X81198809Y1865477D01*
X80960714Y1389286D01*
X80722619Y1151191D01*
X80246428Y913096D01*
X79770238Y913096D01*
X79294047Y1151191D01*
X79055952Y1389286D01*
X78817857Y1865477D01*
X78579761Y2817858D01*
X78579761Y4008334D01*
X78817857Y4960715D01*
X79055952Y5436905D01*
X79294047Y5675000D01*
X79770238Y5913096D01*
X84532142Y5913096D02*
X85008333Y5913096D01*
X85484523Y5675000D01*
X85722619Y5436905D01*
X85960714Y4960715D01*
X86198809Y4008334D01*
X86198809Y2817858D01*
X85960714Y1865477D01*
X85722619Y1389286D01*
X85484523Y1151191D01*
X85008333Y913096D01*
X84532142Y913096D01*
X84055952Y1151191D01*
X83817857Y1389286D01*
X83579761Y1865477D01*
X83341666Y2817858D01*
X83341666Y4008334D01*
X83579761Y4960715D01*
X83817857Y5436905D01*
X84055952Y5675000D01*
X84532142Y5913096D01*
D10*
X117530952Y51347620D02*
X118197619Y51347620D01*
X117769047Y50347620D01*
X119007142Y51014286D02*
X119007142Y50347620D01*
X118769047Y51395239D02*
X118530952Y50680953D01*
X119150000Y50680953D01*
X120007142Y50347620D02*
X119530952Y50347620D01*
X119530952Y51347620D01*
X120292857Y50395239D02*
X120435714Y50347620D01*
X120673809Y50347620D01*
X120769047Y50395239D01*
X120816666Y50442858D01*
X120864285Y50538096D01*
X120864285Y50633334D01*
X120816666Y50728572D01*
X120769047Y50776191D01*
X120673809Y50823810D01*
X120483333Y50871429D01*
X120388095Y50919048D01*
X120340476Y50966667D01*
X120292857Y51061905D01*
X120292857Y51157143D01*
X120340476Y51252381D01*
X120388095Y51300000D01*
X120483333Y51347620D01*
X120721428Y51347620D01*
X120864285Y51300000D01*
X121197619Y51347620D02*
X121816666Y51347620D01*
X121483333Y50966667D01*
X121626190Y50966667D01*
X121721428Y50919048D01*
X121769047Y50871429D01*
X121816666Y50776191D01*
X121816666Y50538096D01*
X121769047Y50442858D01*
X121721428Y50395239D01*
X121626190Y50347620D01*
X121340476Y50347620D01*
X121245238Y50395239D01*
X121197619Y50442858D01*
X122150000Y51347620D02*
X122816666Y51347620D01*
X122388095Y50347620D01*
X123673809Y51347620D02*
X123197619Y51347620D01*
X123150000Y50871429D01*
X123197619Y50919048D01*
X123292857Y50966667D01*
X123530952Y50966667D01*
X123626190Y50919048D01*
X123673809Y50871429D01*
X123721428Y50776191D01*
X123721428Y50538096D01*
X123673809Y50442858D01*
X123626190Y50395239D01*
X123530952Y50347620D01*
X123292857Y50347620D01*
X123197619Y50395239D01*
X123150000Y50442858D01*
X128698809Y47172620D02*
X128127380Y47172620D01*
X128413095Y47172620D02*
X128413095Y48172620D01*
X128317857Y48029762D01*
X128222619Y47934524D01*
X128127380Y47886905D01*
X129317857Y48172620D02*
X129413095Y48172620D01*
X129508333Y48125000D01*
X129555952Y48077381D01*
X129603571Y47982143D01*
X129651190Y47791667D01*
X129651190Y47553572D01*
X129603571Y47363096D01*
X129555952Y47267858D01*
X129508333Y47220239D01*
X129413095Y47172620D01*
X129317857Y47172620D01*
X129222619Y47220239D01*
X129175000Y47267858D01*
X129127380Y47363096D01*
X129079761Y47553572D01*
X129079761Y47791667D01*
X129127380Y47982143D01*
X129175000Y48077381D01*
X129222619Y48125000D01*
X129317857Y48172620D01*
X130079761Y47172620D02*
X130079761Y48172620D01*
X130175000Y47553572D02*
X130460714Y47172620D01*
X130460714Y47839286D02*
X130079761Y47458334D01*
X130794047Y47172620D02*
X131317857Y47839286D01*
X130794047Y47839286D02*
X131317857Y47172620D01*
X131841666Y47744048D02*
X131746428Y47791667D01*
X131698809Y47839286D01*
X131651190Y47934524D01*
X131651190Y47982143D01*
X131698809Y48077381D01*
X131746428Y48125000D01*
X131841666Y48172620D01*
X132032142Y48172620D01*
X132127380Y48125000D01*
X132175000Y48077381D01*
X132222619Y47982143D01*
X132222619Y47934524D01*
X132175000Y47839286D01*
X132127380Y47791667D01*
X132032142Y47744048D01*
X131841666Y47744048D01*
X131746428Y47696429D01*
X131698809Y47648810D01*
X131651190Y47553572D01*
X131651190Y47363096D01*
X131698809Y47267858D01*
X131746428Y47220239D01*
X131841666Y47172620D01*
X132032142Y47172620D01*
X132127380Y47220239D01*
X132175000Y47267858D01*
X132222619Y47363096D01*
X132222619Y47553572D01*
X132175000Y47648810D01*
X132127380Y47696429D01*
X132032142Y47744048D01*
X128063809Y18597620D02*
X127492380Y18597620D01*
X127778095Y18597620D02*
X127778095Y19597620D01*
X127682857Y19454762D01*
X127587619Y19359524D01*
X127492380Y19311905D01*
X128682857Y19597620D02*
X128778095Y19597620D01*
X128873333Y19550000D01*
X128920952Y19502381D01*
X128968571Y19407143D01*
X129016190Y19216667D01*
X129016190Y18978572D01*
X128968571Y18788096D01*
X128920952Y18692858D01*
X128873333Y18645239D01*
X128778095Y18597620D01*
X128682857Y18597620D01*
X128587619Y18645239D01*
X128540000Y18692858D01*
X128492380Y18788096D01*
X128444761Y18978572D01*
X128444761Y19216667D01*
X128492380Y19407143D01*
X128540000Y19502381D01*
X128587619Y19550000D01*
X128682857Y19597620D01*
X129444761Y18597620D02*
X129444761Y19597620D01*
X129540000Y18978572D02*
X129825714Y18597620D01*
X129825714Y19264286D02*
X129444761Y18883334D01*
X130159047Y18597620D02*
X130682857Y19264286D01*
X130159047Y19264286D02*
X130682857Y18597620D01*
X131206666Y19169048D02*
X131111428Y19216667D01*
X131063809Y19264286D01*
X131016190Y19359524D01*
X131016190Y19407143D01*
X131063809Y19502381D01*
X131111428Y19550000D01*
X131206666Y19597620D01*
X131397142Y19597620D01*
X131492380Y19550000D01*
X131540000Y19502381D01*
X131587619Y19407143D01*
X131587619Y19359524D01*
X131540000Y19264286D01*
X131492380Y19216667D01*
X131397142Y19169048D01*
X131206666Y19169048D01*
X131111428Y19121429D01*
X131063809Y19073810D01*
X131016190Y18978572D01*
X131016190Y18788096D01*
X131063809Y18692858D01*
X131111428Y18645239D01*
X131206666Y18597620D01*
X131397142Y18597620D01*
X131492380Y18645239D01*
X131540000Y18692858D01*
X131587619Y18788096D01*
X131587619Y18978572D01*
X131540000Y19073810D01*
X131492380Y19121429D01*
X131397142Y19169048D01*
X127905000Y31297620D02*
X127333571Y31297620D01*
X127619285Y31297620D02*
X127619285Y32297620D01*
X127524047Y32154762D01*
X127428809Y32059524D01*
X127333571Y32011905D01*
X128333571Y31297620D02*
X128333571Y32297620D01*
X128428809Y31678572D02*
X128714523Y31297620D01*
X128714523Y31964286D02*
X128333571Y31583334D01*
X129047857Y31297620D02*
X129571666Y31964286D01*
X129047857Y31964286D02*
X129571666Y31297620D01*
X130095476Y31869048D02*
X130000238Y31916667D01*
X129952619Y31964286D01*
X129905000Y32059524D01*
X129905000Y32107143D01*
X129952619Y32202381D01*
X130000238Y32250000D01*
X130095476Y32297620D01*
X130285952Y32297620D01*
X130381190Y32250000D01*
X130428809Y32202381D01*
X130476428Y32107143D01*
X130476428Y32059524D01*
X130428809Y31964286D01*
X130381190Y31916667D01*
X130285952Y31869048D01*
X130095476Y31869048D01*
X130000238Y31821429D01*
X129952619Y31773810D01*
X129905000Y31678572D01*
X129905000Y31488096D01*
X129952619Y31392858D01*
X130000238Y31345239D01*
X130095476Y31297620D01*
X130285952Y31297620D01*
X130381190Y31345239D01*
X130428809Y31392858D01*
X130476428Y31488096D01*
X130476428Y31678572D01*
X130428809Y31773810D01*
X130381190Y31821429D01*
X130285952Y31869048D01*
X108116761Y68127620D02*
X107545333Y68127620D01*
X107831047Y68127620D02*
X107831047Y69127620D01*
X107735809Y68984762D01*
X107640571Y68889524D01*
X107545333Y68841905D01*
X108735809Y69127620D02*
X108831047Y69127620D01*
X108926285Y69080000D01*
X108973904Y69032381D01*
X109021523Y68937143D01*
X109069142Y68746667D01*
X109069142Y68508572D01*
X109021523Y68318096D01*
X108973904Y68222858D01*
X108926285Y68175239D01*
X108831047Y68127620D01*
X108735809Y68127620D01*
X108640571Y68175239D01*
X108592952Y68222858D01*
X108545333Y68318096D01*
X108497714Y68508572D01*
X108497714Y68746667D01*
X108545333Y68937143D01*
X108592952Y69032381D01*
X108640571Y69080000D01*
X108735809Y69127620D01*
X109497714Y68127620D02*
X109497714Y69127620D01*
X109592952Y68508572D02*
X109878666Y68127620D01*
X109878666Y68794286D02*
X109497714Y68413334D01*
X103671761Y68127620D02*
X103100333Y68127620D01*
X103386047Y68127620D02*
X103386047Y69127620D01*
X103290809Y68984762D01*
X103195571Y68889524D01*
X103100333Y68841905D01*
X104290809Y69127620D02*
X104386047Y69127620D01*
X104481285Y69080000D01*
X104528904Y69032381D01*
X104576523Y68937143D01*
X104624142Y68746667D01*
X104624142Y68508572D01*
X104576523Y68318096D01*
X104528904Y68222858D01*
X104481285Y68175239D01*
X104386047Y68127620D01*
X104290809Y68127620D01*
X104195571Y68175239D01*
X104147952Y68222858D01*
X104100333Y68318096D01*
X104052714Y68508572D01*
X104052714Y68746667D01*
X104100333Y68937143D01*
X104147952Y69032381D01*
X104195571Y69080000D01*
X104290809Y69127620D01*
X105052714Y68127620D02*
X105052714Y69127620D01*
X105147952Y68508572D02*
X105433666Y68127620D01*
X105433666Y68794286D02*
X105052714Y68413334D01*
X139866761Y80192620D02*
X139295333Y80192620D01*
X139581047Y80192620D02*
X139581047Y81192620D01*
X139485809Y81049762D01*
X139390571Y80954524D01*
X139295333Y80906905D01*
X140485809Y81192620D02*
X140581047Y81192620D01*
X140676285Y81145000D01*
X140723904Y81097381D01*
X140771523Y81002143D01*
X140819142Y80811667D01*
X140819142Y80573572D01*
X140771523Y80383096D01*
X140723904Y80287858D01*
X140676285Y80240239D01*
X140581047Y80192620D01*
X140485809Y80192620D01*
X140390571Y80240239D01*
X140342952Y80287858D01*
X140295333Y80383096D01*
X140247714Y80573572D01*
X140247714Y80811667D01*
X140295333Y81002143D01*
X140342952Y81097381D01*
X140390571Y81145000D01*
X140485809Y81192620D01*
X141247714Y80192620D02*
X141247714Y81192620D01*
X141342952Y80573572D02*
X141628666Y80192620D01*
X141628666Y80859286D02*
X141247714Y80478334D01*
X115490714Y95162620D02*
X115014523Y95162620D01*
X114966904Y94686429D01*
X115014523Y94734048D01*
X115109761Y94781667D01*
X115347857Y94781667D01*
X115443095Y94734048D01*
X115490714Y94686429D01*
X115538333Y94591191D01*
X115538333Y94353096D01*
X115490714Y94257858D01*
X115443095Y94210239D01*
X115347857Y94162620D01*
X115109761Y94162620D01*
X115014523Y94210239D01*
X114966904Y94257858D01*
X116157380Y95162620D02*
X116252619Y95162620D01*
X116347857Y95115000D01*
X116395476Y95067381D01*
X116443095Y94972143D01*
X116490714Y94781667D01*
X116490714Y94543572D01*
X116443095Y94353096D01*
X116395476Y94257858D01*
X116347857Y94210239D01*
X116252619Y94162620D01*
X116157380Y94162620D01*
X116062142Y94210239D01*
X116014523Y94257858D01*
X115966904Y94353096D01*
X115919285Y94543572D01*
X115919285Y94781667D01*
X115966904Y94972143D01*
X116014523Y95067381D01*
X116062142Y95115000D01*
X116157380Y95162620D01*
X117109761Y95162620D02*
X117205000Y95162620D01*
X117300238Y95115000D01*
X117347857Y95067381D01*
X117395476Y94972143D01*
X117443095Y94781667D01*
X117443095Y94543572D01*
X117395476Y94353096D01*
X117347857Y94257858D01*
X117300238Y94210239D01*
X117205000Y94162620D01*
X117109761Y94162620D01*
X117014523Y94210239D01*
X116966904Y94257858D01*
X116919285Y94353096D01*
X116871666Y94543572D01*
X116871666Y94781667D01*
X116919285Y94972143D01*
X116966904Y95067381D01*
X117014523Y95115000D01*
X117109761Y95162620D01*
X127007952Y98099620D02*
X126436523Y98099620D01*
X126722238Y98099620D02*
X126722238Y99099620D01*
X126627000Y98956762D01*
X126531761Y98861524D01*
X126436523Y98813905D01*
X127436523Y98099620D02*
X127436523Y99099620D01*
X127531761Y98480572D02*
X127817476Y98099620D01*
X127817476Y98766286D02*
X127436523Y98385334D01*
X135770952Y94162620D02*
X135199523Y94162620D01*
X135485238Y94162620D02*
X135485238Y95162620D01*
X135390000Y95019762D01*
X135294761Y94924524D01*
X135199523Y94876905D01*
X136199523Y94162620D02*
X136199523Y95162620D01*
X136294761Y94543572D02*
X136580476Y94162620D01*
X136580476Y94829286D02*
X136199523Y94448334D01*
D12*
X105203809Y82661239D02*
X104537142Y83613620D01*
X104060952Y82661239D02*
X104060952Y84661239D01*
X104822857Y84661239D01*
X105013333Y84566000D01*
X105108571Y84470762D01*
X105203809Y84280286D01*
X105203809Y83994572D01*
X105108571Y83804096D01*
X105013333Y83708858D01*
X104822857Y83613620D01*
X104060952Y83613620D01*
X106060952Y84661239D02*
X106060952Y83042191D01*
X106156190Y82851715D01*
X106251428Y82756477D01*
X106441904Y82661239D01*
X106822857Y82661239D01*
X107013333Y82756477D01*
X107108571Y82851715D01*
X107203809Y83042191D01*
X107203809Y84661239D01*
X108156190Y82661239D02*
X108156190Y84661239D01*
X109299047Y82661239D01*
X109299047Y84661239D01*
X129873571Y82756477D02*
X130159285Y82661239D01*
X130635476Y82661239D01*
X130825952Y82756477D01*
X130921190Y82851715D01*
X131016428Y83042191D01*
X131016428Y83232667D01*
X130921190Y83423143D01*
X130825952Y83518381D01*
X130635476Y83613620D01*
X130254523Y83708858D01*
X130064047Y83804096D01*
X129968809Y83899334D01*
X129873571Y84089810D01*
X129873571Y84280286D01*
X129968809Y84470762D01*
X130064047Y84566000D01*
X130254523Y84661239D01*
X130730714Y84661239D01*
X131016428Y84566000D01*
X132540238Y83708858D02*
X132825952Y83613620D01*
X132921190Y83518381D01*
X133016428Y83327905D01*
X133016428Y83042191D01*
X132921190Y82851715D01*
X132825952Y82756477D01*
X132635476Y82661239D01*
X131873571Y82661239D01*
X131873571Y84661239D01*
X132540238Y84661239D01*
X132730714Y84566000D01*
X132825952Y84470762D01*
X132921190Y84280286D01*
X132921190Y84089810D01*
X132825952Y83899334D01*
X132730714Y83804096D01*
X132540238Y83708858D01*
X131873571Y83708858D01*
X117951428Y82756477D02*
X118237142Y82661239D01*
X118713333Y82661239D01*
X118903809Y82756477D01*
X118999047Y82851715D01*
X119094285Y83042191D01*
X119094285Y83232667D01*
X118999047Y83423143D01*
X118903809Y83518381D01*
X118713333Y83613620D01*
X118332380Y83708858D01*
X118141904Y83804096D01*
X118046666Y83899334D01*
X117951428Y84089810D01*
X117951428Y84280286D01*
X118046666Y84470762D01*
X118141904Y84566000D01*
X118332380Y84661239D01*
X118808571Y84661239D01*
X119094285Y84566000D01*
X119856190Y83232667D02*
X120808571Y83232667D01*
X119665714Y82661239D02*
X120332380Y84661239D01*
X120999047Y82661239D01*
X136001428Y44370667D02*
X136953809Y44370667D01*
X135810952Y43799239D02*
X136477619Y45799239D01*
X137144285Y43799239D01*
X137810952Y43799239D02*
X137810952Y45799239D01*
X138287142Y45799239D01*
X138572857Y45704000D01*
X138763333Y45513524D01*
X138858571Y45323048D01*
X138953809Y44942096D01*
X138953809Y44656381D01*
X138858571Y44275429D01*
X138763333Y44084953D01*
X138572857Y43894477D01*
X138287142Y43799239D01*
X137810952Y43799239D01*
X140191904Y45799239D02*
X140382380Y45799239D01*
X140572857Y45704000D01*
X140668095Y45608762D01*
X140763333Y45418286D01*
X140858571Y45037334D01*
X140858571Y44561143D01*
X140763333Y44180191D01*
X140668095Y43989715D01*
X140572857Y43894477D01*
X140382380Y43799239D01*
X140191904Y43799239D01*
X140001428Y43894477D01*
X139906190Y43989715D01*
X139810952Y44180191D01*
X139715714Y44561143D01*
X139715714Y45037334D01*
X139810952Y45418286D01*
X139906190Y45608762D01*
X140001428Y45704000D01*
X140191904Y45799239D01*
X129651428Y44370667D02*
X130603809Y44370667D01*
X129460952Y43799239D02*
X130127619Y45799239D01*
X130794285Y43799239D01*
X131460952Y43799239D02*
X131460952Y45799239D01*
X131937142Y45799239D01*
X132222857Y45704000D01*
X132413333Y45513524D01*
X132508571Y45323048D01*
X132603809Y44942096D01*
X132603809Y44656381D01*
X132508571Y44275429D01*
X132413333Y44084953D01*
X132222857Y43894477D01*
X131937142Y43799239D01*
X131460952Y43799239D01*
X134508571Y43799239D02*
X133365714Y43799239D01*
X133937142Y43799239D02*
X133937142Y45799239D01*
X133746666Y45513524D01*
X133556190Y45323048D01*
X133365714Y45227810D01*
X123301428Y44370667D02*
X124253809Y44370667D01*
X123110952Y43799239D02*
X123777619Y45799239D01*
X124444285Y43799239D01*
X125110952Y43799239D02*
X125110952Y45799239D01*
X125587142Y45799239D01*
X125872857Y45704000D01*
X126063333Y45513524D01*
X126158571Y45323048D01*
X126253809Y44942096D01*
X126253809Y44656381D01*
X126158571Y44275429D01*
X126063333Y44084953D01*
X125872857Y43894477D01*
X125587142Y43799239D01*
X125110952Y43799239D01*
X127015714Y45608762D02*
X127110952Y45704000D01*
X127301428Y45799239D01*
X127777619Y45799239D01*
X127968095Y45704000D01*
X128063333Y45608762D01*
X128158571Y45418286D01*
X128158571Y45227810D01*
X128063333Y44942096D01*
X126920476Y43799239D01*
X128158571Y43799239D01*
X116951428Y44370667D02*
X117903809Y44370667D01*
X116760952Y43799239D02*
X117427619Y45799239D01*
X118094285Y43799239D01*
X118760952Y43799239D02*
X118760952Y45799239D01*
X119237142Y45799239D01*
X119522857Y45704000D01*
X119713333Y45513524D01*
X119808571Y45323048D01*
X119903809Y44942096D01*
X119903809Y44656381D01*
X119808571Y44275429D01*
X119713333Y44084953D01*
X119522857Y43894477D01*
X119237142Y43799239D01*
X118760952Y43799239D01*
X120570476Y45799239D02*
X121808571Y45799239D01*
X121141904Y45037334D01*
X121427619Y45037334D01*
X121618095Y44942096D01*
X121713333Y44846858D01*
X121808571Y44656381D01*
X121808571Y44180191D01*
X121713333Y43989715D01*
X121618095Y43894477D01*
X121427619Y43799239D01*
X120856190Y43799239D01*
X120665714Y43894477D01*
X120570476Y43989715D01*
X108061428Y44370667D02*
X109013809Y44370667D01*
X107870952Y43799239D02*
X108537619Y45799239D01*
X109204285Y43799239D01*
X109870952Y43799239D02*
X109870952Y45799239D01*
X110347142Y45799239D01*
X110632857Y45704000D01*
X110823333Y45513524D01*
X110918571Y45323048D01*
X111013809Y44942096D01*
X111013809Y44656381D01*
X110918571Y44275429D01*
X110823333Y44084953D01*
X110632857Y43894477D01*
X110347142Y43799239D01*
X109870952Y43799239D01*
X112728095Y45132572D02*
X112728095Y43799239D01*
X112251904Y45894477D02*
X111775714Y44465905D01*
X113013809Y44465905D01*
X101711428Y44370667D02*
X102663809Y44370667D01*
X101520952Y43799239D02*
X102187619Y45799239D01*
X102854285Y43799239D01*
X103520952Y43799239D02*
X103520952Y45799239D01*
X103997142Y45799239D01*
X104282857Y45704000D01*
X104473333Y45513524D01*
X104568571Y45323048D01*
X104663809Y44942096D01*
X104663809Y44656381D01*
X104568571Y44275429D01*
X104473333Y44084953D01*
X104282857Y43894477D01*
X103997142Y43799239D01*
X103520952Y43799239D01*
X106473333Y45799239D02*
X105520952Y45799239D01*
X105425714Y44846858D01*
X105520952Y44942096D01*
X105711428Y45037334D01*
X106187619Y45037334D01*
X106378095Y44942096D01*
X106473333Y44846858D01*
X106568571Y44656381D01*
X106568571Y44180191D01*
X106473333Y43989715D01*
X106378095Y43894477D01*
X106187619Y43799239D01*
X105711428Y43799239D01*
X105520952Y43894477D01*
X105425714Y43989715D01*
X95488428Y44370667D02*
X96440809Y44370667D01*
X95297952Y43799239D02*
X95964619Y45799239D01*
X96631285Y43799239D01*
X97297952Y43799239D02*
X97297952Y45799239D01*
X97774142Y45799239D01*
X98059857Y45704000D01*
X98250333Y45513524D01*
X98345571Y45323048D01*
X98440809Y44942096D01*
X98440809Y44656381D01*
X98345571Y44275429D01*
X98250333Y44084953D01*
X98059857Y43894477D01*
X97774142Y43799239D01*
X97297952Y43799239D01*
X100155095Y45799239D02*
X99774142Y45799239D01*
X99583666Y45704000D01*
X99488428Y45608762D01*
X99297952Y45323048D01*
X99202714Y44942096D01*
X99202714Y44180191D01*
X99297952Y43989715D01*
X99393190Y43894477D01*
X99583666Y43799239D01*
X99964619Y43799239D01*
X100155095Y43894477D01*
X100250333Y43989715D01*
X100345571Y44180191D01*
X100345571Y44656381D01*
X100250333Y44846858D01*
X100155095Y44942096D01*
X99964619Y45037334D01*
X99583666Y45037334D01*
X99393190Y44942096D01*
X99297952Y44846858D01*
X99202714Y44656381D01*
X89011428Y44370667D02*
X89963809Y44370667D01*
X88820952Y43799239D02*
X89487619Y45799239D01*
X90154285Y43799239D01*
X90820952Y43799239D02*
X90820952Y45799239D01*
X91297142Y45799239D01*
X91582857Y45704000D01*
X91773333Y45513524D01*
X91868571Y45323048D01*
X91963809Y44942096D01*
X91963809Y44656381D01*
X91868571Y44275429D01*
X91773333Y44084953D01*
X91582857Y43894477D01*
X91297142Y43799239D01*
X90820952Y43799239D01*
X92630476Y45799239D02*
X93963809Y45799239D01*
X93106666Y43799239D01*
X136953809Y28051239D02*
X136953809Y30051239D01*
X137430000Y30051239D01*
X137715714Y29956000D01*
X137906190Y29765524D01*
X138001428Y29575048D01*
X138096666Y29194096D01*
X138096666Y28908381D01*
X138001428Y28527429D01*
X137906190Y28336953D01*
X137715714Y28146477D01*
X137430000Y28051239D01*
X136953809Y28051239D01*
X139334761Y30051239D02*
X139525238Y30051239D01*
X139715714Y29956000D01*
X139810952Y29860762D01*
X139906190Y29670286D01*
X140001428Y29289334D01*
X140001428Y28813143D01*
X139906190Y28432191D01*
X139810952Y28241715D01*
X139715714Y28146477D01*
X139525238Y28051239D01*
X139334761Y28051239D01*
X139144285Y28146477D01*
X139049047Y28241715D01*
X138953809Y28432191D01*
X138858571Y28813143D01*
X138858571Y29289334D01*
X138953809Y29670286D01*
X139049047Y29860762D01*
X139144285Y29956000D01*
X139334761Y30051239D01*
X130603809Y28051239D02*
X130603809Y30051239D01*
X131080000Y30051239D01*
X131365714Y29956000D01*
X131556190Y29765524D01*
X131651428Y29575048D01*
X131746666Y29194096D01*
X131746666Y28908381D01*
X131651428Y28527429D01*
X131556190Y28336953D01*
X131365714Y28146477D01*
X131080000Y28051239D01*
X130603809Y28051239D01*
X133651428Y28051239D02*
X132508571Y28051239D01*
X133080000Y28051239D02*
X133080000Y30051239D01*
X132889523Y29765524D01*
X132699047Y29575048D01*
X132508571Y29479810D01*
X124253809Y28051239D02*
X124253809Y30051239D01*
X124730000Y30051239D01*
X125015714Y29956000D01*
X125206190Y29765524D01*
X125301428Y29575048D01*
X125396666Y29194096D01*
X125396666Y28908381D01*
X125301428Y28527429D01*
X125206190Y28336953D01*
X125015714Y28146477D01*
X124730000Y28051239D01*
X124253809Y28051239D01*
X126158571Y29860762D02*
X126253809Y29956000D01*
X126444285Y30051239D01*
X126920476Y30051239D01*
X127110952Y29956000D01*
X127206190Y29860762D01*
X127301428Y29670286D01*
X127301428Y29479810D01*
X127206190Y29194096D01*
X126063333Y28051239D01*
X127301428Y28051239D01*
X117903809Y28051239D02*
X117903809Y30051239D01*
X118380000Y30051239D01*
X118665714Y29956000D01*
X118856190Y29765524D01*
X118951428Y29575048D01*
X119046666Y29194096D01*
X119046666Y28908381D01*
X118951428Y28527429D01*
X118856190Y28336953D01*
X118665714Y28146477D01*
X118380000Y28051239D01*
X117903809Y28051239D01*
X119713333Y30051239D02*
X120951428Y30051239D01*
X120284761Y29289334D01*
X120570476Y29289334D01*
X120760952Y29194096D01*
X120856190Y29098858D01*
X120951428Y28908381D01*
X120951428Y28432191D01*
X120856190Y28241715D01*
X120760952Y28146477D01*
X120570476Y28051239D01*
X119999047Y28051239D01*
X119808571Y28146477D01*
X119713333Y28241715D01*
X109013809Y28051239D02*
X109013809Y30051239D01*
X109490000Y30051239D01*
X109775714Y29956000D01*
X109966190Y29765524D01*
X110061428Y29575048D01*
X110156666Y29194096D01*
X110156666Y28908381D01*
X110061428Y28527429D01*
X109966190Y28336953D01*
X109775714Y28146477D01*
X109490000Y28051239D01*
X109013809Y28051239D01*
X111870952Y29384572D02*
X111870952Y28051239D01*
X111394761Y30146477D02*
X110918571Y28717905D01*
X112156666Y28717905D01*
X102663809Y28051239D02*
X102663809Y30051239D01*
X103140000Y30051239D01*
X103425714Y29956000D01*
X103616190Y29765524D01*
X103711428Y29575048D01*
X103806666Y29194096D01*
X103806666Y28908381D01*
X103711428Y28527429D01*
X103616190Y28336953D01*
X103425714Y28146477D01*
X103140000Y28051239D01*
X102663809Y28051239D01*
X105616190Y30051239D02*
X104663809Y30051239D01*
X104568571Y29098858D01*
X104663809Y29194096D01*
X104854285Y29289334D01*
X105330476Y29289334D01*
X105520952Y29194096D01*
X105616190Y29098858D01*
X105711428Y28908381D01*
X105711428Y28432191D01*
X105616190Y28241715D01*
X105520952Y28146477D01*
X105330476Y28051239D01*
X104854285Y28051239D01*
X104663809Y28146477D01*
X104568571Y28241715D01*
X96313809Y28051239D02*
X96313809Y30051239D01*
X96790000Y30051239D01*
X97075714Y29956000D01*
X97266190Y29765524D01*
X97361428Y29575048D01*
X97456666Y29194096D01*
X97456666Y28908381D01*
X97361428Y28527429D01*
X97266190Y28336953D01*
X97075714Y28146477D01*
X96790000Y28051239D01*
X96313809Y28051239D01*
X99170952Y30051239D02*
X98790000Y30051239D01*
X98599523Y29956000D01*
X98504285Y29860762D01*
X98313809Y29575048D01*
X98218571Y29194096D01*
X98218571Y28432191D01*
X98313809Y28241715D01*
X98409047Y28146477D01*
X98599523Y28051239D01*
X98980476Y28051239D01*
X99170952Y28146477D01*
X99266190Y28241715D01*
X99361428Y28432191D01*
X99361428Y28908381D01*
X99266190Y29098858D01*
X99170952Y29194096D01*
X98980476Y29289334D01*
X98599523Y29289334D01*
X98409047Y29194096D01*
X98313809Y29098858D01*
X98218571Y28908381D01*
X89963809Y28051239D02*
X89963809Y30051239D01*
X90440000Y30051239D01*
X90725714Y29956000D01*
X90916190Y29765524D01*
X91011428Y29575048D01*
X91106666Y29194096D01*
X91106666Y28908381D01*
X91011428Y28527429D01*
X90916190Y28336953D01*
X90725714Y28146477D01*
X90440000Y28051239D01*
X89963809Y28051239D01*
X91773333Y30051239D02*
X93106666Y30051239D01*
X92249523Y28051239D01*
X136953809Y4175239D02*
X136953809Y6175239D01*
X137430000Y6175239D01*
X137715714Y6080000D01*
X137906190Y5889524D01*
X138001428Y5699048D01*
X138096666Y5318096D01*
X138096666Y5032381D01*
X138001428Y4651429D01*
X137906190Y4460953D01*
X137715714Y4270477D01*
X137430000Y4175239D01*
X136953809Y4175239D01*
X139334761Y6175239D02*
X139525238Y6175239D01*
X139715714Y6080000D01*
X139810952Y5984762D01*
X139906190Y5794286D01*
X140001428Y5413334D01*
X140001428Y4937143D01*
X139906190Y4556191D01*
X139810952Y4365715D01*
X139715714Y4270477D01*
X139525238Y4175239D01*
X139334761Y4175239D01*
X139144285Y4270477D01*
X139049047Y4365715D01*
X138953809Y4556191D01*
X138858571Y4937143D01*
X138858571Y5413334D01*
X138953809Y5794286D01*
X139049047Y5984762D01*
X139144285Y6080000D01*
X139334761Y6175239D01*
X130603809Y4175239D02*
X130603809Y6175239D01*
X131080000Y6175239D01*
X131365714Y6080000D01*
X131556190Y5889524D01*
X131651428Y5699048D01*
X131746666Y5318096D01*
X131746666Y5032381D01*
X131651428Y4651429D01*
X131556190Y4460953D01*
X131365714Y4270477D01*
X131080000Y4175239D01*
X130603809Y4175239D01*
X133651428Y4175239D02*
X132508571Y4175239D01*
X133080000Y4175239D02*
X133080000Y6175239D01*
X132889523Y5889524D01*
X132699047Y5699048D01*
X132508571Y5603810D01*
X124253809Y4175239D02*
X124253809Y6175239D01*
X124730000Y6175239D01*
X125015714Y6080000D01*
X125206190Y5889524D01*
X125301428Y5699048D01*
X125396666Y5318096D01*
X125396666Y5032381D01*
X125301428Y4651429D01*
X125206190Y4460953D01*
X125015714Y4270477D01*
X124730000Y4175239D01*
X124253809Y4175239D01*
X126158571Y5984762D02*
X126253809Y6080000D01*
X126444285Y6175239D01*
X126920476Y6175239D01*
X127110952Y6080000D01*
X127206190Y5984762D01*
X127301428Y5794286D01*
X127301428Y5603810D01*
X127206190Y5318096D01*
X126063333Y4175239D01*
X127301428Y4175239D01*
X117903809Y4175239D02*
X117903809Y6175239D01*
X118380000Y6175239D01*
X118665714Y6080000D01*
X118856190Y5889524D01*
X118951428Y5699048D01*
X119046666Y5318096D01*
X119046666Y5032381D01*
X118951428Y4651429D01*
X118856190Y4460953D01*
X118665714Y4270477D01*
X118380000Y4175239D01*
X117903809Y4175239D01*
X119713333Y6175239D02*
X120951428Y6175239D01*
X120284761Y5413334D01*
X120570476Y5413334D01*
X120760952Y5318096D01*
X120856190Y5222858D01*
X120951428Y5032381D01*
X120951428Y4556191D01*
X120856190Y4365715D01*
X120760952Y4270477D01*
X120570476Y4175239D01*
X119999047Y4175239D01*
X119808571Y4270477D01*
X119713333Y4365715D01*
X109013809Y4175239D02*
X109013809Y6175239D01*
X109490000Y6175239D01*
X109775714Y6080000D01*
X109966190Y5889524D01*
X110061428Y5699048D01*
X110156666Y5318096D01*
X110156666Y5032381D01*
X110061428Y4651429D01*
X109966190Y4460953D01*
X109775714Y4270477D01*
X109490000Y4175239D01*
X109013809Y4175239D01*
X111870952Y5508572D02*
X111870952Y4175239D01*
X111394761Y6270477D02*
X110918571Y4841905D01*
X112156666Y4841905D01*
X102663809Y4175239D02*
X102663809Y6175239D01*
X103140000Y6175239D01*
X103425714Y6080000D01*
X103616190Y5889524D01*
X103711428Y5699048D01*
X103806666Y5318096D01*
X103806666Y5032381D01*
X103711428Y4651429D01*
X103616190Y4460953D01*
X103425714Y4270477D01*
X103140000Y4175239D01*
X102663809Y4175239D01*
X105616190Y6175239D02*
X104663809Y6175239D01*
X104568571Y5222858D01*
X104663809Y5318096D01*
X104854285Y5413334D01*
X105330476Y5413334D01*
X105520952Y5318096D01*
X105616190Y5222858D01*
X105711428Y5032381D01*
X105711428Y4556191D01*
X105616190Y4365715D01*
X105520952Y4270477D01*
X105330476Y4175239D01*
X104854285Y4175239D01*
X104663809Y4270477D01*
X104568571Y4365715D01*
X96313809Y4175239D02*
X96313809Y6175239D01*
X96790000Y6175239D01*
X97075714Y6080000D01*
X97266190Y5889524D01*
X97361428Y5699048D01*
X97456666Y5318096D01*
X97456666Y5032381D01*
X97361428Y4651429D01*
X97266190Y4460953D01*
X97075714Y4270477D01*
X96790000Y4175239D01*
X96313809Y4175239D01*
X99170952Y6175239D02*
X98790000Y6175239D01*
X98599523Y6080000D01*
X98504285Y5984762D01*
X98313809Y5699048D01*
X98218571Y5318096D01*
X98218571Y4556191D01*
X98313809Y4365715D01*
X98409047Y4270477D01*
X98599523Y4175239D01*
X98980476Y4175239D01*
X99170952Y4270477D01*
X99266190Y4365715D01*
X99361428Y4556191D01*
X99361428Y5032381D01*
X99266190Y5222858D01*
X99170952Y5318096D01*
X98980476Y5413334D01*
X98599523Y5413334D01*
X98409047Y5318096D01*
X98313809Y5222858D01*
X98218571Y5032381D01*
X89963809Y4175239D02*
X89963809Y6175239D01*
X90440000Y6175239D01*
X90725714Y6080000D01*
X90916190Y5889524D01*
X91011428Y5699048D01*
X91106666Y5318096D01*
X91106666Y5032381D01*
X91011428Y4651429D01*
X90916190Y4460953D01*
X90725714Y4270477D01*
X90440000Y4175239D01*
X89963809Y4175239D01*
X91773333Y6175239D02*
X93106666Y6175239D01*
X92249523Y4175239D01*
D10*
X91495952Y51347620D02*
X92162619Y51347620D01*
X91734047Y50347620D01*
X92972142Y51014286D02*
X92972142Y50347620D01*
X92734047Y51395239D02*
X92495952Y50680953D01*
X93115000Y50680953D01*
X93972142Y50347620D02*
X93495952Y50347620D01*
X93495952Y51347620D01*
X94257857Y50395239D02*
X94400714Y50347620D01*
X94638809Y50347620D01*
X94734047Y50395239D01*
X94781666Y50442858D01*
X94829285Y50538096D01*
X94829285Y50633334D01*
X94781666Y50728572D01*
X94734047Y50776191D01*
X94638809Y50823810D01*
X94448333Y50871429D01*
X94353095Y50919048D01*
X94305476Y50966667D01*
X94257857Y51061905D01*
X94257857Y51157143D01*
X94305476Y51252381D01*
X94353095Y51300000D01*
X94448333Y51347620D01*
X94686428Y51347620D01*
X94829285Y51300000D01*
X95162619Y51347620D02*
X95781666Y51347620D01*
X95448333Y50966667D01*
X95591190Y50966667D01*
X95686428Y50919048D01*
X95734047Y50871429D01*
X95781666Y50776191D01*
X95781666Y50538096D01*
X95734047Y50442858D01*
X95686428Y50395239D01*
X95591190Y50347620D01*
X95305476Y50347620D01*
X95210238Y50395239D01*
X95162619Y50442858D01*
X96115000Y51347620D02*
X96781666Y51347620D01*
X96353095Y50347620D01*
X97638809Y51347620D02*
X97162619Y51347620D01*
X97115000Y50871429D01*
X97162619Y50919048D01*
X97257857Y50966667D01*
X97495952Y50966667D01*
X97591190Y50919048D01*
X97638809Y50871429D01*
X97686428Y50776191D01*
X97686428Y50538096D01*
X97638809Y50442858D01*
X97591190Y50395239D01*
X97495952Y50347620D01*
X97257857Y50347620D01*
X97162619Y50395239D01*
X97115000Y50442858D01*
X80041904Y64682620D02*
X79851428Y64682620D01*
X79756190Y64635000D01*
X79708571Y64587381D01*
X79613333Y64444524D01*
X79565714Y64254048D01*
X79565714Y63873096D01*
X79613333Y63777858D01*
X79660952Y63730239D01*
X79756190Y63682620D01*
X79946666Y63682620D01*
X80041904Y63730239D01*
X80089523Y63777858D01*
X80137142Y63873096D01*
X80137142Y64111191D01*
X80089523Y64206429D01*
X80041904Y64254048D01*
X79946666Y64301667D01*
X79756190Y64301667D01*
X79660952Y64254048D01*
X79613333Y64206429D01*
X79565714Y64111191D01*
X80518095Y64587381D02*
X80565714Y64635000D01*
X80660952Y64682620D01*
X80899047Y64682620D01*
X80994285Y64635000D01*
X81041904Y64587381D01*
X81089523Y64492143D01*
X81089523Y64396905D01*
X81041904Y64254048D01*
X80470476Y63682620D01*
X81089523Y63682620D01*
X81946666Y64682620D02*
X81756190Y64682620D01*
X81660952Y64635000D01*
X81613333Y64587381D01*
X81518095Y64444524D01*
X81470476Y64254048D01*
X81470476Y63873096D01*
X81518095Y63777858D01*
X81565714Y63730239D01*
X81660952Y63682620D01*
X81851428Y63682620D01*
X81946666Y63730239D01*
X81994285Y63777858D01*
X82041904Y63873096D01*
X82041904Y64111191D01*
X81994285Y64206429D01*
X81946666Y64254048D01*
X81851428Y64301667D01*
X81660952Y64301667D01*
X81565714Y64254048D01*
X81518095Y64206429D01*
X81470476Y64111191D01*
X82899047Y64349286D02*
X82899047Y63682620D01*
X82660952Y64730239D02*
X82422857Y64015953D01*
X83041904Y64015953D01*
X76874761Y34472620D02*
X76303333Y34472620D01*
X76589047Y34472620D02*
X76589047Y35472620D01*
X76493809Y35329762D01*
X76398571Y35234524D01*
X76303333Y35186905D01*
X77493809Y35472620D02*
X77589047Y35472620D01*
X77684285Y35425000D01*
X77731904Y35377381D01*
X77779523Y35282143D01*
X77827142Y35091667D01*
X77827142Y34853572D01*
X77779523Y34663096D01*
X77731904Y34567858D01*
X77684285Y34520239D01*
X77589047Y34472620D01*
X77493809Y34472620D01*
X77398571Y34520239D01*
X77350952Y34567858D01*
X77303333Y34663096D01*
X77255714Y34853572D01*
X77255714Y35091667D01*
X77303333Y35282143D01*
X77350952Y35377381D01*
X77398571Y35425000D01*
X77493809Y35472620D01*
X78255714Y34472620D02*
X78255714Y35472620D01*
X78350952Y34853572D02*
X78636666Y34472620D01*
X78636666Y35139286D02*
X78255714Y34758334D01*
X57722380Y7215239D02*
X57865238Y7167620D01*
X58103333Y7167620D01*
X58198571Y7215239D01*
X58246190Y7262858D01*
X58293809Y7358096D01*
X58293809Y7453334D01*
X58246190Y7548572D01*
X58198571Y7596191D01*
X58103333Y7643810D01*
X57912857Y7691429D01*
X57817619Y7739048D01*
X57770000Y7786667D01*
X57722380Y7881905D01*
X57722380Y7977143D01*
X57770000Y8072381D01*
X57817619Y8120000D01*
X57912857Y8167620D01*
X58150952Y8167620D01*
X58293809Y8120000D01*
X58722380Y7167620D02*
X58722380Y8167620D01*
X59055714Y7453334D01*
X59389047Y8167620D01*
X59389047Y7167620D01*
X60579523Y8215239D02*
X59722380Y6929524D01*
X61484285Y7262858D02*
X61436666Y7215239D01*
X61293809Y7167620D01*
X61198571Y7167620D01*
X61055714Y7215239D01*
X60960476Y7310477D01*
X60912857Y7405715D01*
X60865238Y7596191D01*
X60865238Y7739048D01*
X60912857Y7929524D01*
X60960476Y8024762D01*
X61055714Y8120000D01*
X61198571Y8167620D01*
X61293809Y8167620D01*
X61436666Y8120000D01*
X61484285Y8072381D01*
X61912857Y7167620D02*
X61912857Y8167620D01*
X62293809Y8167620D01*
X62389047Y8120000D01*
X62436666Y8072381D01*
X62484285Y7977143D01*
X62484285Y7834286D01*
X62436666Y7739048D01*
X62389047Y7691429D01*
X62293809Y7643810D01*
X61912857Y7643810D01*
X63674761Y7167620D02*
X63674761Y8167620D01*
X64150952Y7167620D02*
X64150952Y8167620D01*
X64912857Y6786667D02*
X64865238Y6834286D01*
X64770000Y6977143D01*
X64722380Y7072381D01*
X64674761Y7215239D01*
X64627142Y7453334D01*
X64627142Y7643810D01*
X64674761Y7881905D01*
X64722380Y8024762D01*
X64770000Y8120000D01*
X64865238Y8262858D01*
X64912857Y8310477D01*
X65293809Y7167620D02*
X65293809Y8167620D01*
X65770000Y7167620D02*
X65770000Y8167620D01*
X66341428Y7167620D01*
X66341428Y8167620D01*
X66770000Y7215239D02*
X66912857Y7167620D01*
X67150952Y7167620D01*
X67246190Y7215239D01*
X67293809Y7262858D01*
X67341428Y7358096D01*
X67341428Y7453334D01*
X67293809Y7548572D01*
X67246190Y7596191D01*
X67150952Y7643810D01*
X66960476Y7691429D01*
X66865238Y7739048D01*
X66817619Y7786667D01*
X66770000Y7881905D01*
X66770000Y7977143D01*
X66817619Y8072381D01*
X66865238Y8120000D01*
X66960476Y8167620D01*
X67198571Y8167620D01*
X67341428Y8120000D01*
X67912857Y7739048D02*
X67817619Y7786667D01*
X67770000Y7834286D01*
X67722380Y7929524D01*
X67722380Y7977143D01*
X67770000Y8072381D01*
X67817619Y8120000D01*
X67912857Y8167620D01*
X68103333Y8167620D01*
X68198571Y8120000D01*
X68246190Y8072381D01*
X68293809Y7977143D01*
X68293809Y7929524D01*
X68246190Y7834286D01*
X68198571Y7786667D01*
X68103333Y7739048D01*
X67912857Y7739048D01*
X67817619Y7691429D01*
X67770000Y7643810D01*
X67722380Y7548572D01*
X67722380Y7358096D01*
X67770000Y7262858D01*
X67817619Y7215239D01*
X67912857Y7167620D01*
X68103333Y7167620D01*
X68198571Y7215239D01*
X68246190Y7262858D01*
X68293809Y7358096D01*
X68293809Y7548572D01*
X68246190Y7643810D01*
X68198571Y7691429D01*
X68103333Y7739048D01*
X68912857Y8167620D02*
X69008095Y8167620D01*
X69103333Y8120000D01*
X69150952Y8072381D01*
X69198571Y7977143D01*
X69246190Y7786667D01*
X69246190Y7548572D01*
X69198571Y7358096D01*
X69150952Y7262858D01*
X69103333Y7215239D01*
X69008095Y7167620D01*
X68912857Y7167620D01*
X68817619Y7215239D01*
X68770000Y7262858D01*
X68722380Y7358096D01*
X68674761Y7548572D01*
X68674761Y7786667D01*
X68722380Y7977143D01*
X68770000Y8072381D01*
X68817619Y8120000D01*
X68912857Y8167620D01*
X70103333Y8167620D02*
X69912857Y8167620D01*
X69817619Y8120000D01*
X69770000Y8072381D01*
X69674761Y7929524D01*
X69627142Y7739048D01*
X69627142Y7358096D01*
X69674761Y7262858D01*
X69722380Y7215239D01*
X69817619Y7167620D01*
X70008095Y7167620D01*
X70103333Y7215239D01*
X70150952Y7262858D01*
X70198571Y7358096D01*
X70198571Y7596191D01*
X70150952Y7691429D01*
X70103333Y7739048D01*
X70008095Y7786667D01*
X69817619Y7786667D01*
X69722380Y7739048D01*
X69674761Y7691429D01*
X69627142Y7596191D01*
X70817619Y8167620D02*
X70912857Y8167620D01*
X71008095Y8120000D01*
X71055714Y8072381D01*
X71103333Y7977143D01*
X71150952Y7786667D01*
X71150952Y7548572D01*
X71103333Y7358096D01*
X71055714Y7262858D01*
X71008095Y7215239D01*
X70912857Y7167620D01*
X70817619Y7167620D01*
X70722380Y7215239D01*
X70674761Y7262858D01*
X70627142Y7358096D01*
X70579523Y7548572D01*
X70579523Y7786667D01*
X70627142Y7977143D01*
X70674761Y8072381D01*
X70722380Y8120000D01*
X70817619Y8167620D01*
X71484285Y6786667D02*
X71531904Y6834286D01*
X71627142Y6977143D01*
X71674761Y7072381D01*
X71722380Y7215239D01*
X71770000Y7453334D01*
X71770000Y7643810D01*
X71722380Y7881905D01*
X71674761Y8024762D01*
X71627142Y8120000D01*
X71531904Y8262858D01*
X71484285Y8310477D01*
D13*
X1207619Y29565477D02*
X1493333Y29470239D01*
X1969523Y29470239D01*
X2160000Y29565477D01*
X2255238Y29660715D01*
X2350476Y29851191D01*
X2350476Y30041667D01*
X2255238Y30232143D01*
X2160000Y30327381D01*
X1969523Y30422620D01*
X1588571Y30517858D01*
X1398095Y30613096D01*
X1302857Y30708334D01*
X1207619Y30898810D01*
X1207619Y31089286D01*
X1302857Y31279762D01*
X1398095Y31375000D01*
X1588571Y31470239D01*
X2064761Y31470239D01*
X2350476Y31375000D01*
X2921904Y31470239D02*
X4064761Y31470239D01*
X3493333Y29470239D02*
X3493333Y31470239D01*
X4636190Y30041667D02*
X5588571Y30041667D01*
X4445714Y29470239D02*
X5112380Y31470239D01*
X5779047Y29470239D01*
X7588571Y29470239D02*
X6921904Y30422620D01*
X6445714Y29470239D02*
X6445714Y31470239D01*
X7207619Y31470239D01*
X7398095Y31375000D01*
X7493333Y31279762D01*
X7588571Y31089286D01*
X7588571Y30803572D01*
X7493333Y30613096D01*
X7398095Y30517858D01*
X7207619Y30422620D01*
X6445714Y30422620D01*
X8160000Y31470239D02*
X9302857Y31470239D01*
X8731428Y29470239D02*
X8731428Y31470239D01*
D10*
X38139761Y2087620D02*
X37568333Y2087620D01*
X37854047Y2087620D02*
X37854047Y3087620D01*
X37758809Y2944762D01*
X37663571Y2849524D01*
X37568333Y2801905D01*
X38758809Y3087620D02*
X38854047Y3087620D01*
X38949285Y3040000D01*
X38996904Y2992381D01*
X39044523Y2897143D01*
X39092142Y2706667D01*
X39092142Y2468572D01*
X39044523Y2278096D01*
X38996904Y2182858D01*
X38949285Y2135239D01*
X38854047Y2087620D01*
X38758809Y2087620D01*
X38663571Y2135239D01*
X38615952Y2182858D01*
X38568333Y2278096D01*
X38520714Y2468572D01*
X38520714Y2706667D01*
X38568333Y2897143D01*
X38615952Y2992381D01*
X38663571Y3040000D01*
X38758809Y3087620D01*
X39520714Y2087620D02*
X39520714Y3087620D01*
X39615952Y2468572D02*
X39901666Y2087620D01*
X39901666Y2754286D02*
X39520714Y2373334D01*
X45505952Y28392381D02*
X45553571Y28440000D01*
X45648809Y28487620D01*
X45886904Y28487620D01*
X45982142Y28440000D01*
X46029761Y28392381D01*
X46077380Y28297143D01*
X46077380Y28201905D01*
X46029761Y28059048D01*
X45458333Y27487620D01*
X46077380Y27487620D01*
X46410714Y28487620D02*
X47077380Y28487620D01*
X46648809Y27487620D01*
X47648809Y28487620D02*
X47744047Y28487620D01*
X47839285Y28440000D01*
X47886904Y28392381D01*
X47934523Y28297143D01*
X47982142Y28106667D01*
X47982142Y27868572D01*
X47934523Y27678096D01*
X47886904Y27582858D01*
X47839285Y27535239D01*
X47744047Y27487620D01*
X47648809Y27487620D01*
X47553571Y27535239D01*
X47505952Y27582858D01*
X47458333Y27678096D01*
X47410714Y27868572D01*
X47410714Y28106667D01*
X47458333Y28297143D01*
X47505952Y28392381D01*
X47553571Y28440000D01*
X47648809Y28487620D01*
X48410714Y28154286D02*
X48410714Y27154286D01*
X48410714Y28106667D02*
X48505952Y28154286D01*
X48696428Y28154286D01*
X48791666Y28106667D01*
X48839285Y28059048D01*
X48886904Y27963810D01*
X48886904Y27678096D01*
X48839285Y27582858D01*
X48791666Y27535239D01*
X48696428Y27487620D01*
X48505952Y27487620D01*
X48410714Y27535239D01*
X49648809Y28011429D02*
X49315476Y28011429D01*
X49315476Y27487620D02*
X49315476Y28487620D01*
X49791666Y28487620D01*
X40425952Y28392381D02*
X40473571Y28440000D01*
X40568809Y28487620D01*
X40806904Y28487620D01*
X40902142Y28440000D01*
X40949761Y28392381D01*
X40997380Y28297143D01*
X40997380Y28201905D01*
X40949761Y28059048D01*
X40378333Y27487620D01*
X40997380Y27487620D01*
X41330714Y28487620D02*
X41997380Y28487620D01*
X41568809Y27487620D01*
X42568809Y28487620D02*
X42664047Y28487620D01*
X42759285Y28440000D01*
X42806904Y28392381D01*
X42854523Y28297143D01*
X42902142Y28106667D01*
X42902142Y27868572D01*
X42854523Y27678096D01*
X42806904Y27582858D01*
X42759285Y27535239D01*
X42664047Y27487620D01*
X42568809Y27487620D01*
X42473571Y27535239D01*
X42425952Y27582858D01*
X42378333Y27678096D01*
X42330714Y27868572D01*
X42330714Y28106667D01*
X42378333Y28297143D01*
X42425952Y28392381D01*
X42473571Y28440000D01*
X42568809Y28487620D01*
X43330714Y28154286D02*
X43330714Y27154286D01*
X43330714Y28106667D02*
X43425952Y28154286D01*
X43616428Y28154286D01*
X43711666Y28106667D01*
X43759285Y28059048D01*
X43806904Y27963810D01*
X43806904Y27678096D01*
X43759285Y27582858D01*
X43711666Y27535239D01*
X43616428Y27487620D01*
X43425952Y27487620D01*
X43330714Y27535239D01*
X44568809Y28011429D02*
X44235476Y28011429D01*
X44235476Y27487620D02*
X44235476Y28487620D01*
X44711666Y28487620D01*
X50617619Y35472620D02*
X51236666Y35472620D01*
X50903333Y35091667D01*
X51046190Y35091667D01*
X51141428Y35044048D01*
X51189047Y34996429D01*
X51236666Y34901191D01*
X51236666Y34663096D01*
X51189047Y34567858D01*
X51141428Y34520239D01*
X51046190Y34472620D01*
X50760476Y34472620D01*
X50665238Y34520239D01*
X50617619Y34567858D01*
X51665238Y34567858D02*
X51712857Y34520239D01*
X51665238Y34472620D01*
X51617619Y34520239D01*
X51665238Y34567858D01*
X51665238Y34472620D01*
X52046190Y35472620D02*
X52665238Y35472620D01*
X52331904Y35091667D01*
X52474761Y35091667D01*
X52570000Y35044048D01*
X52617619Y34996429D01*
X52665238Y34901191D01*
X52665238Y34663096D01*
X52617619Y34567858D01*
X52570000Y34520239D01*
X52474761Y34472620D01*
X52189047Y34472620D01*
X52093809Y34520239D01*
X52046190Y34567858D01*
X53093809Y34472620D02*
X53093809Y35472620D01*
X53189047Y34853572D02*
X53474761Y34472620D01*
X53474761Y35139286D02*
X53093809Y34758334D01*
X50617619Y39282620D02*
X51236666Y39282620D01*
X50903333Y38901667D01*
X51046190Y38901667D01*
X51141428Y38854048D01*
X51189047Y38806429D01*
X51236666Y38711191D01*
X51236666Y38473096D01*
X51189047Y38377858D01*
X51141428Y38330239D01*
X51046190Y38282620D01*
X50760476Y38282620D01*
X50665238Y38330239D01*
X50617619Y38377858D01*
X51665238Y38377858D02*
X51712857Y38330239D01*
X51665238Y38282620D01*
X51617619Y38330239D01*
X51665238Y38377858D01*
X51665238Y38282620D01*
X52046190Y39282620D02*
X52665238Y39282620D01*
X52331904Y38901667D01*
X52474761Y38901667D01*
X52570000Y38854048D01*
X52617619Y38806429D01*
X52665238Y38711191D01*
X52665238Y38473096D01*
X52617619Y38377858D01*
X52570000Y38330239D01*
X52474761Y38282620D01*
X52189047Y38282620D01*
X52093809Y38330239D01*
X52046190Y38377858D01*
X53093809Y38282620D02*
X53093809Y39282620D01*
X53189047Y38663572D02*
X53474761Y38282620D01*
X53474761Y38949286D02*
X53093809Y38568334D01*
D13*
X4423857Y9905239D02*
X3923857Y10857620D01*
X3566714Y9905239D02*
X3566714Y11905239D01*
X4138142Y11905239D01*
X4281000Y11810000D01*
X4352428Y11714762D01*
X4423857Y11524286D01*
X4423857Y11238572D01*
X4352428Y11048096D01*
X4281000Y10952858D01*
X4138142Y10857620D01*
X3566714Y10857620D01*
X5066714Y11905239D02*
X5066714Y10286191D01*
X5138142Y10095715D01*
X5209571Y10000477D01*
X5352428Y9905239D01*
X5638142Y9905239D01*
X5781000Y10000477D01*
X5852428Y10095715D01*
X5923857Y10286191D01*
X5923857Y11905239D01*
X6638142Y9905239D02*
X6638142Y11905239D01*
X7495285Y9905239D01*
X7495285Y11905239D01*
X2995285Y13810477D02*
X3209571Y13715239D01*
X3566714Y13715239D01*
X3709571Y13810477D01*
X3781000Y13905715D01*
X3852428Y14096191D01*
X3852428Y14286667D01*
X3781000Y14477143D01*
X3709571Y14572381D01*
X3566714Y14667620D01*
X3281000Y14762858D01*
X3138142Y14858096D01*
X3066714Y14953334D01*
X2995285Y15143810D01*
X2995285Y15334286D01*
X3066714Y15524762D01*
X3138142Y15620000D01*
X3281000Y15715239D01*
X3638142Y15715239D01*
X3852428Y15620000D01*
X4281000Y15715239D02*
X5138142Y15715239D01*
X4709571Y13715239D02*
X4709571Y15715239D01*
X5923857Y15715239D02*
X6209571Y15715239D01*
X6352428Y15620000D01*
X6495285Y15429524D01*
X6566714Y15048572D01*
X6566714Y14381905D01*
X6495285Y14000953D01*
X6352428Y13810477D01*
X6209571Y13715239D01*
X5923857Y13715239D01*
X5781000Y13810477D01*
X5638142Y14000953D01*
X5566714Y14381905D01*
X5566714Y15048572D01*
X5638142Y15429524D01*
X5781000Y15620000D01*
X5923857Y15715239D01*
X7209571Y13715239D02*
X7209571Y15715239D01*
X7781000Y15715239D01*
X7923857Y15620000D01*
X7995285Y15524762D01*
X8066714Y15334286D01*
X8066714Y15048572D01*
X7995285Y14858096D01*
X7923857Y14762858D01*
X7781000Y14667620D01*
X7209571Y14667620D01*
X1566714Y17525239D02*
X1566714Y19525239D01*
X2066714Y18096667D01*
X2566714Y19525239D01*
X2566714Y17525239D01*
X3209571Y18096667D02*
X3923857Y18096667D01*
X3066714Y17525239D02*
X3566714Y19525239D01*
X4066714Y17525239D01*
X4566714Y17525239D02*
X4566714Y19525239D01*
X5423857Y17525239D01*
X5423857Y19525239D01*
X6138142Y19525239D02*
X6138142Y17906191D01*
X6209571Y17715715D01*
X6281000Y17620477D01*
X6423857Y17525239D01*
X6709571Y17525239D01*
X6852428Y17620477D01*
X6923857Y17715715D01*
X6995285Y17906191D01*
X6995285Y19525239D01*
X7638142Y18096667D02*
X8352428Y18096667D01*
X7495285Y17525239D02*
X7995285Y19525239D01*
X8495285Y17525239D01*
X9709571Y17525239D02*
X8995285Y17525239D01*
X8995285Y19525239D01*
D10*
X30273809Y38917620D02*
X29702380Y38917620D01*
X29988095Y38917620D02*
X29988095Y39917620D01*
X29892857Y39774762D01*
X29797619Y39679524D01*
X29702380Y39631905D01*
X30892857Y39917620D02*
X30988095Y39917620D01*
X31083333Y39870000D01*
X31130952Y39822381D01*
X31178571Y39727143D01*
X31226190Y39536667D01*
X31226190Y39298572D01*
X31178571Y39108096D01*
X31130952Y39012858D01*
X31083333Y38965239D01*
X30988095Y38917620D01*
X30892857Y38917620D01*
X30797619Y38965239D01*
X30750000Y39012858D01*
X30702380Y39108096D01*
X30654761Y39298572D01*
X30654761Y39536667D01*
X30702380Y39727143D01*
X30750000Y39822381D01*
X30797619Y39870000D01*
X30892857Y39917620D01*
X31654761Y38917620D02*
X31654761Y39917620D01*
X31750000Y39298572D02*
X32035714Y38917620D01*
X32035714Y39584286D02*
X31654761Y39203334D01*
X32369047Y38917620D02*
X32892857Y39584286D01*
X32369047Y39584286D02*
X32892857Y38917620D01*
X33416666Y39489048D02*
X33321428Y39536667D01*
X33273809Y39584286D01*
X33226190Y39679524D01*
X33226190Y39727143D01*
X33273809Y39822381D01*
X33321428Y39870000D01*
X33416666Y39917620D01*
X33607142Y39917620D01*
X33702380Y39870000D01*
X33750000Y39822381D01*
X33797619Y39727143D01*
X33797619Y39679524D01*
X33750000Y39584286D01*
X33702380Y39536667D01*
X33607142Y39489048D01*
X33416666Y39489048D01*
X33321428Y39441429D01*
X33273809Y39393810D01*
X33226190Y39298572D01*
X33226190Y39108096D01*
X33273809Y39012858D01*
X33321428Y38965239D01*
X33416666Y38917620D01*
X33607142Y38917620D01*
X33702380Y38965239D01*
X33750000Y39012858D01*
X33797619Y39108096D01*
X33797619Y39298572D01*
X33750000Y39393810D01*
X33702380Y39441429D01*
X33607142Y39489048D01*
X49585952Y43727620D02*
X50252619Y43727620D01*
X49824047Y42727620D01*
X51062142Y43394286D02*
X51062142Y42727620D01*
X50824047Y43775239D02*
X50585952Y43060953D01*
X51205000Y43060953D01*
X52062142Y42727620D02*
X51585952Y42727620D01*
X51585952Y43727620D01*
X52347857Y42775239D02*
X52490714Y42727620D01*
X52728809Y42727620D01*
X52824047Y42775239D01*
X52871666Y42822858D01*
X52919285Y42918096D01*
X52919285Y43013334D01*
X52871666Y43108572D01*
X52824047Y43156191D01*
X52728809Y43203810D01*
X52538333Y43251429D01*
X52443095Y43299048D01*
X52395476Y43346667D01*
X52347857Y43441905D01*
X52347857Y43537143D01*
X52395476Y43632381D01*
X52443095Y43680000D01*
X52538333Y43727620D01*
X52776428Y43727620D01*
X52919285Y43680000D01*
X53300238Y43632381D02*
X53347857Y43680000D01*
X53443095Y43727620D01*
X53681190Y43727620D01*
X53776428Y43680000D01*
X53824047Y43632381D01*
X53871666Y43537143D01*
X53871666Y43441905D01*
X53824047Y43299048D01*
X53252619Y42727620D01*
X53871666Y42727620D01*
X54728809Y43394286D02*
X54728809Y42727620D01*
X54490714Y43775239D02*
X54252619Y43060953D01*
X54871666Y43060953D01*
X55681190Y43394286D02*
X55681190Y42727620D01*
X55443095Y43775239D02*
X55205000Y43060953D01*
X55824047Y43060953D01*
X19105952Y43727620D02*
X19772619Y43727620D01*
X19344047Y42727620D01*
X20582142Y43394286D02*
X20582142Y42727620D01*
X20344047Y43775239D02*
X20105952Y43060953D01*
X20725000Y43060953D01*
X21582142Y42727620D02*
X21105952Y42727620D01*
X21105952Y43727620D01*
X21867857Y42775239D02*
X22010714Y42727620D01*
X22248809Y42727620D01*
X22344047Y42775239D01*
X22391666Y42822858D01*
X22439285Y42918096D01*
X22439285Y43013334D01*
X22391666Y43108572D01*
X22344047Y43156191D01*
X22248809Y43203810D01*
X22058333Y43251429D01*
X21963095Y43299048D01*
X21915476Y43346667D01*
X21867857Y43441905D01*
X21867857Y43537143D01*
X21915476Y43632381D01*
X21963095Y43680000D01*
X22058333Y43727620D01*
X22296428Y43727620D01*
X22439285Y43680000D01*
X22820238Y43632381D02*
X22867857Y43680000D01*
X22963095Y43727620D01*
X23201190Y43727620D01*
X23296428Y43680000D01*
X23344047Y43632381D01*
X23391666Y43537143D01*
X23391666Y43441905D01*
X23344047Y43299048D01*
X22772619Y42727620D01*
X23391666Y42727620D01*
X24248809Y43394286D02*
X24248809Y42727620D01*
X24010714Y43775239D02*
X23772619Y43060953D01*
X24391666Y43060953D01*
X25201190Y43394286D02*
X25201190Y42727620D01*
X24963095Y43775239D02*
X24725000Y43060953D01*
X25344047Y43060953D01*
X40537142Y57697620D02*
X41203809Y57697620D01*
X40775238Y56697620D01*
X42013333Y57364286D02*
X42013333Y56697620D01*
X41775238Y57745239D02*
X41537142Y57030953D01*
X42156190Y57030953D01*
X43013333Y56697620D02*
X42537142Y56697620D01*
X42537142Y57697620D01*
X43299047Y56745239D02*
X43441904Y56697620D01*
X43680000Y56697620D01*
X43775238Y56745239D01*
X43822857Y56792858D01*
X43870476Y56888096D01*
X43870476Y56983334D01*
X43822857Y57078572D01*
X43775238Y57126191D01*
X43680000Y57173810D01*
X43489523Y57221429D01*
X43394285Y57269048D01*
X43346666Y57316667D01*
X43299047Y57411905D01*
X43299047Y57507143D01*
X43346666Y57602381D01*
X43394285Y57650000D01*
X43489523Y57697620D01*
X43727619Y57697620D01*
X43870476Y57650000D01*
X44775238Y57697620D02*
X44299047Y57697620D01*
X44251428Y57221429D01*
X44299047Y57269048D01*
X44394285Y57316667D01*
X44632380Y57316667D01*
X44727619Y57269048D01*
X44775238Y57221429D01*
X44822857Y57126191D01*
X44822857Y56888096D01*
X44775238Y56792858D01*
X44727619Y56745239D01*
X44632380Y56697620D01*
X44394285Y56697620D01*
X44299047Y56745239D01*
X44251428Y56792858D01*
X45775238Y56697620D02*
X45203809Y56697620D01*
X45489523Y56697620D02*
X45489523Y57697620D01*
X45394285Y57554762D01*
X45299047Y57459524D01*
X45203809Y57411905D01*
X18312142Y57697620D02*
X18978809Y57697620D01*
X18550238Y56697620D01*
X19788333Y57364286D02*
X19788333Y56697620D01*
X19550238Y57745239D02*
X19312142Y57030953D01*
X19931190Y57030953D01*
X20788333Y56697620D02*
X20312142Y56697620D01*
X20312142Y57697620D01*
X21074047Y56745239D02*
X21216904Y56697620D01*
X21455000Y56697620D01*
X21550238Y56745239D01*
X21597857Y56792858D01*
X21645476Y56888096D01*
X21645476Y56983334D01*
X21597857Y57078572D01*
X21550238Y57126191D01*
X21455000Y57173810D01*
X21264523Y57221429D01*
X21169285Y57269048D01*
X21121666Y57316667D01*
X21074047Y57411905D01*
X21074047Y57507143D01*
X21121666Y57602381D01*
X21169285Y57650000D01*
X21264523Y57697620D01*
X21502619Y57697620D01*
X21645476Y57650000D01*
X22264523Y57697620D02*
X22359761Y57697620D01*
X22455000Y57650000D01*
X22502619Y57602381D01*
X22550238Y57507143D01*
X22597857Y57316667D01*
X22597857Y57078572D01*
X22550238Y56888096D01*
X22502619Y56792858D01*
X22455000Y56745239D01*
X22359761Y56697620D01*
X22264523Y56697620D01*
X22169285Y56745239D01*
X22121666Y56792858D01*
X22074047Y56888096D01*
X22026428Y57078572D01*
X22026428Y57316667D01*
X22074047Y57507143D01*
X22121666Y57602381D01*
X22169285Y57650000D01*
X22264523Y57697620D01*
X22978809Y57602381D02*
X23026428Y57650000D01*
X23121666Y57697620D01*
X23359761Y57697620D01*
X23455000Y57650000D01*
X23502619Y57602381D01*
X23550238Y57507143D01*
X23550238Y57411905D01*
X23502619Y57269048D01*
X22931190Y56697620D01*
X23550238Y56697620D01*
X40537142Y71667620D02*
X41203809Y71667620D01*
X40775238Y70667620D01*
X42013333Y71334286D02*
X42013333Y70667620D01*
X41775238Y71715239D02*
X41537142Y71000953D01*
X42156190Y71000953D01*
X43013333Y70667620D02*
X42537142Y70667620D01*
X42537142Y71667620D01*
X43299047Y70715239D02*
X43441904Y70667620D01*
X43680000Y70667620D01*
X43775238Y70715239D01*
X43822857Y70762858D01*
X43870476Y70858096D01*
X43870476Y70953334D01*
X43822857Y71048572D01*
X43775238Y71096191D01*
X43680000Y71143810D01*
X43489523Y71191429D01*
X43394285Y71239048D01*
X43346666Y71286667D01*
X43299047Y71381905D01*
X43299047Y71477143D01*
X43346666Y71572381D01*
X43394285Y71620000D01*
X43489523Y71667620D01*
X43727619Y71667620D01*
X43870476Y71620000D01*
X44489523Y71667620D02*
X44584761Y71667620D01*
X44680000Y71620000D01*
X44727619Y71572381D01*
X44775238Y71477143D01*
X44822857Y71286667D01*
X44822857Y71048572D01*
X44775238Y70858096D01*
X44727619Y70762858D01*
X44680000Y70715239D01*
X44584761Y70667620D01*
X44489523Y70667620D01*
X44394285Y70715239D01*
X44346666Y70762858D01*
X44299047Y70858096D01*
X44251428Y71048572D01*
X44251428Y71286667D01*
X44299047Y71477143D01*
X44346666Y71572381D01*
X44394285Y71620000D01*
X44489523Y71667620D01*
X45680000Y71334286D02*
X45680000Y70667620D01*
X45441904Y71715239D02*
X45203809Y71000953D01*
X45822857Y71000953D01*
X18947142Y71667620D02*
X19613809Y71667620D01*
X19185238Y70667620D01*
X20423333Y71334286D02*
X20423333Y70667620D01*
X20185238Y71715239D02*
X19947142Y71000953D01*
X20566190Y71000953D01*
X21423333Y70667620D02*
X20947142Y70667620D01*
X20947142Y71667620D01*
X21709047Y70715239D02*
X21851904Y70667620D01*
X22090000Y70667620D01*
X22185238Y70715239D01*
X22232857Y70762858D01*
X22280476Y70858096D01*
X22280476Y70953334D01*
X22232857Y71048572D01*
X22185238Y71096191D01*
X22090000Y71143810D01*
X21899523Y71191429D01*
X21804285Y71239048D01*
X21756666Y71286667D01*
X21709047Y71381905D01*
X21709047Y71477143D01*
X21756666Y71572381D01*
X21804285Y71620000D01*
X21899523Y71667620D01*
X22137619Y71667620D01*
X22280476Y71620000D01*
X22899523Y71667620D02*
X22994761Y71667620D01*
X23090000Y71620000D01*
X23137619Y71572381D01*
X23185238Y71477143D01*
X23232857Y71286667D01*
X23232857Y71048572D01*
X23185238Y70858096D01*
X23137619Y70762858D01*
X23090000Y70715239D01*
X22994761Y70667620D01*
X22899523Y70667620D01*
X22804285Y70715239D01*
X22756666Y70762858D01*
X22709047Y70858096D01*
X22661428Y71048572D01*
X22661428Y71286667D01*
X22709047Y71477143D01*
X22756666Y71572381D01*
X22804285Y71620000D01*
X22899523Y71667620D01*
X23851904Y71667620D02*
X23947142Y71667620D01*
X24042380Y71620000D01*
X24090000Y71572381D01*
X24137619Y71477143D01*
X24185238Y71286667D01*
X24185238Y71048572D01*
X24137619Y70858096D01*
X24090000Y70762858D01*
X24042380Y70715239D01*
X23947142Y70667620D01*
X23851904Y70667620D01*
X23756666Y70715239D01*
X23709047Y70762858D01*
X23661428Y70858096D01*
X23613809Y71048572D01*
X23613809Y71286667D01*
X23661428Y71477143D01*
X23709047Y71572381D01*
X23756666Y71620000D01*
X23851904Y71667620D01*
X40695952Y85002620D02*
X41362619Y85002620D01*
X40934047Y84002620D01*
X42172142Y84669286D02*
X42172142Y84002620D01*
X41934047Y85050239D02*
X41695952Y84335953D01*
X42315000Y84335953D01*
X43172142Y84002620D02*
X42695952Y84002620D01*
X42695952Y85002620D01*
X43457857Y84050239D02*
X43600714Y84002620D01*
X43838809Y84002620D01*
X43934047Y84050239D01*
X43981666Y84097858D01*
X44029285Y84193096D01*
X44029285Y84288334D01*
X43981666Y84383572D01*
X43934047Y84431191D01*
X43838809Y84478810D01*
X43648333Y84526429D01*
X43553095Y84574048D01*
X43505476Y84621667D01*
X43457857Y84716905D01*
X43457857Y84812143D01*
X43505476Y84907381D01*
X43553095Y84955000D01*
X43648333Y85002620D01*
X43886428Y85002620D01*
X44029285Y84955000D01*
X44410238Y84907381D02*
X44457857Y84955000D01*
X44553095Y85002620D01*
X44791190Y85002620D01*
X44886428Y84955000D01*
X44934047Y84907381D01*
X44981666Y84812143D01*
X44981666Y84716905D01*
X44934047Y84574048D01*
X44362619Y84002620D01*
X44981666Y84002620D01*
X45315000Y85002620D02*
X45981666Y85002620D01*
X45553095Y84002620D01*
X46410238Y84002620D02*
X46600714Y84002620D01*
X46695952Y84050239D01*
X46743571Y84097858D01*
X46838809Y84240715D01*
X46886428Y84431191D01*
X46886428Y84812143D01*
X46838809Y84907381D01*
X46791190Y84955000D01*
X46695952Y85002620D01*
X46505476Y85002620D01*
X46410238Y84955000D01*
X46362619Y84907381D01*
X46315000Y84812143D01*
X46315000Y84574048D01*
X46362619Y84478810D01*
X46410238Y84431191D01*
X46505476Y84383572D01*
X46695952Y84383572D01*
X46791190Y84431191D01*
X46838809Y84478810D01*
X46886428Y84574048D01*
X17677142Y85002620D02*
X18343809Y85002620D01*
X17915238Y84002620D01*
X19153333Y84669286D02*
X19153333Y84002620D01*
X18915238Y85050239D02*
X18677142Y84335953D01*
X19296190Y84335953D01*
X20153333Y84002620D02*
X19677142Y84002620D01*
X19677142Y85002620D01*
X20439047Y84050239D02*
X20581904Y84002620D01*
X20820000Y84002620D01*
X20915238Y84050239D01*
X20962857Y84097858D01*
X21010476Y84193096D01*
X21010476Y84288334D01*
X20962857Y84383572D01*
X20915238Y84431191D01*
X20820000Y84478810D01*
X20629523Y84526429D01*
X20534285Y84574048D01*
X20486666Y84621667D01*
X20439047Y84716905D01*
X20439047Y84812143D01*
X20486666Y84907381D01*
X20534285Y84955000D01*
X20629523Y85002620D01*
X20867619Y85002620D01*
X21010476Y84955000D01*
X21629523Y85002620D02*
X21724761Y85002620D01*
X21820000Y84955000D01*
X21867619Y84907381D01*
X21915238Y84812143D01*
X21962857Y84621667D01*
X21962857Y84383572D01*
X21915238Y84193096D01*
X21867619Y84097858D01*
X21820000Y84050239D01*
X21724761Y84002620D01*
X21629523Y84002620D01*
X21534285Y84050239D01*
X21486666Y84097858D01*
X21439047Y84193096D01*
X21391428Y84383572D01*
X21391428Y84621667D01*
X21439047Y84812143D01*
X21486666Y84907381D01*
X21534285Y84955000D01*
X21629523Y85002620D01*
X22820000Y84669286D02*
X22820000Y84002620D01*
X22581904Y85050239D02*
X22343809Y84335953D01*
X22962857Y84335953D01*
X7882142Y88177620D02*
X7977380Y88177620D01*
X8072619Y88130000D01*
X8120238Y88082381D01*
X8167857Y87987143D01*
X8215476Y87796667D01*
X8215476Y87558572D01*
X8167857Y87368096D01*
X8120238Y87272858D01*
X8072619Y87225239D01*
X7977380Y87177620D01*
X7882142Y87177620D01*
X7786904Y87225239D01*
X7739285Y87272858D01*
X7691666Y87368096D01*
X7644047Y87558572D01*
X7644047Y87796667D01*
X7691666Y87987143D01*
X7739285Y88082381D01*
X7786904Y88130000D01*
X7882142Y88177620D01*
X8644047Y87272858D02*
X8691666Y87225239D01*
X8644047Y87177620D01*
X8596428Y87225239D01*
X8644047Y87272858D01*
X8644047Y87177620D01*
X9644047Y87177620D02*
X9072619Y87177620D01*
X9358333Y87177620D02*
X9358333Y88177620D01*
X9263095Y88034762D01*
X9167857Y87939524D01*
X9072619Y87891905D01*
X10501190Y87844286D02*
X10501190Y87177620D01*
X10072619Y87844286D02*
X10072619Y87320477D01*
X10120238Y87225239D01*
X10215476Y87177620D01*
X10358333Y87177620D01*
X10453571Y87225239D01*
X10501190Y87272858D01*
X11310714Y87701429D02*
X10977380Y87701429D01*
X10977380Y87177620D02*
X10977380Y88177620D01*
X11453571Y88177620D01*
X30107142Y88177620D02*
X30202380Y88177620D01*
X30297619Y88130000D01*
X30345238Y88082381D01*
X30392857Y87987143D01*
X30440476Y87796667D01*
X30440476Y87558572D01*
X30392857Y87368096D01*
X30345238Y87272858D01*
X30297619Y87225239D01*
X30202380Y87177620D01*
X30107142Y87177620D01*
X30011904Y87225239D01*
X29964285Y87272858D01*
X29916666Y87368096D01*
X29869047Y87558572D01*
X29869047Y87796667D01*
X29916666Y87987143D01*
X29964285Y88082381D01*
X30011904Y88130000D01*
X30107142Y88177620D01*
X30869047Y87272858D02*
X30916666Y87225239D01*
X30869047Y87177620D01*
X30821428Y87225239D01*
X30869047Y87272858D01*
X30869047Y87177620D01*
X31869047Y87177620D02*
X31297619Y87177620D01*
X31583333Y87177620D02*
X31583333Y88177620D01*
X31488095Y88034762D01*
X31392857Y87939524D01*
X31297619Y87891905D01*
X32726190Y87844286D02*
X32726190Y87177620D01*
X32297619Y87844286D02*
X32297619Y87320477D01*
X32345238Y87225239D01*
X32440476Y87177620D01*
X32583333Y87177620D01*
X32678571Y87225239D01*
X32726190Y87272858D01*
X33535714Y87701429D02*
X33202380Y87701429D01*
X33202380Y87177620D02*
X33202380Y88177620D01*
X33678571Y88177620D01*
X7882142Y74842620D02*
X7977380Y74842620D01*
X8072619Y74795000D01*
X8120238Y74747381D01*
X8167857Y74652143D01*
X8215476Y74461667D01*
X8215476Y74223572D01*
X8167857Y74033096D01*
X8120238Y73937858D01*
X8072619Y73890239D01*
X7977380Y73842620D01*
X7882142Y73842620D01*
X7786904Y73890239D01*
X7739285Y73937858D01*
X7691666Y74033096D01*
X7644047Y74223572D01*
X7644047Y74461667D01*
X7691666Y74652143D01*
X7739285Y74747381D01*
X7786904Y74795000D01*
X7882142Y74842620D01*
X8644047Y73937858D02*
X8691666Y73890239D01*
X8644047Y73842620D01*
X8596428Y73890239D01*
X8644047Y73937858D01*
X8644047Y73842620D01*
X9644047Y73842620D02*
X9072619Y73842620D01*
X9358333Y73842620D02*
X9358333Y74842620D01*
X9263095Y74699762D01*
X9167857Y74604524D01*
X9072619Y74556905D01*
X10501190Y74509286D02*
X10501190Y73842620D01*
X10072619Y74509286D02*
X10072619Y73985477D01*
X10120238Y73890239D01*
X10215476Y73842620D01*
X10358333Y73842620D01*
X10453571Y73890239D01*
X10501190Y73937858D01*
X11310714Y74366429D02*
X10977380Y74366429D01*
X10977380Y73842620D02*
X10977380Y74842620D01*
X11453571Y74842620D01*
X30107142Y74842620D02*
X30202380Y74842620D01*
X30297619Y74795000D01*
X30345238Y74747381D01*
X30392857Y74652143D01*
X30440476Y74461667D01*
X30440476Y74223572D01*
X30392857Y74033096D01*
X30345238Y73937858D01*
X30297619Y73890239D01*
X30202380Y73842620D01*
X30107142Y73842620D01*
X30011904Y73890239D01*
X29964285Y73937858D01*
X29916666Y74033096D01*
X29869047Y74223572D01*
X29869047Y74461667D01*
X29916666Y74652143D01*
X29964285Y74747381D01*
X30011904Y74795000D01*
X30107142Y74842620D01*
X30869047Y73937858D02*
X30916666Y73890239D01*
X30869047Y73842620D01*
X30821428Y73890239D01*
X30869047Y73937858D01*
X30869047Y73842620D01*
X31869047Y73842620D02*
X31297619Y73842620D01*
X31583333Y73842620D02*
X31583333Y74842620D01*
X31488095Y74699762D01*
X31392857Y74604524D01*
X31297619Y74556905D01*
X32726190Y74509286D02*
X32726190Y73842620D01*
X32297619Y74509286D02*
X32297619Y73985477D01*
X32345238Y73890239D01*
X32440476Y73842620D01*
X32583333Y73842620D01*
X32678571Y73890239D01*
X32726190Y73937858D01*
X33535714Y74366429D02*
X33202380Y74366429D01*
X33202380Y73842620D02*
X33202380Y74842620D01*
X33678571Y74842620D01*
X30107142Y60872620D02*
X30202380Y60872620D01*
X30297619Y60825000D01*
X30345238Y60777381D01*
X30392857Y60682143D01*
X30440476Y60491667D01*
X30440476Y60253572D01*
X30392857Y60063096D01*
X30345238Y59967858D01*
X30297619Y59920239D01*
X30202380Y59872620D01*
X30107142Y59872620D01*
X30011904Y59920239D01*
X29964285Y59967858D01*
X29916666Y60063096D01*
X29869047Y60253572D01*
X29869047Y60491667D01*
X29916666Y60682143D01*
X29964285Y60777381D01*
X30011904Y60825000D01*
X30107142Y60872620D01*
X30869047Y59967858D02*
X30916666Y59920239D01*
X30869047Y59872620D01*
X30821428Y59920239D01*
X30869047Y59967858D01*
X30869047Y59872620D01*
X31869047Y59872620D02*
X31297619Y59872620D01*
X31583333Y59872620D02*
X31583333Y60872620D01*
X31488095Y60729762D01*
X31392857Y60634524D01*
X31297619Y60586905D01*
X32726190Y60539286D02*
X32726190Y59872620D01*
X32297619Y60539286D02*
X32297619Y60015477D01*
X32345238Y59920239D01*
X32440476Y59872620D01*
X32583333Y59872620D01*
X32678571Y59920239D01*
X32726190Y59967858D01*
X33535714Y60396429D02*
X33202380Y60396429D01*
X33202380Y59872620D02*
X33202380Y60872620D01*
X33678571Y60872620D01*
X7882142Y60872620D02*
X7977380Y60872620D01*
X8072619Y60825000D01*
X8120238Y60777381D01*
X8167857Y60682143D01*
X8215476Y60491667D01*
X8215476Y60253572D01*
X8167857Y60063096D01*
X8120238Y59967858D01*
X8072619Y59920239D01*
X7977380Y59872620D01*
X7882142Y59872620D01*
X7786904Y59920239D01*
X7739285Y59967858D01*
X7691666Y60063096D01*
X7644047Y60253572D01*
X7644047Y60491667D01*
X7691666Y60682143D01*
X7739285Y60777381D01*
X7786904Y60825000D01*
X7882142Y60872620D01*
X8644047Y59967858D02*
X8691666Y59920239D01*
X8644047Y59872620D01*
X8596428Y59920239D01*
X8644047Y59967858D01*
X8644047Y59872620D01*
X9644047Y59872620D02*
X9072619Y59872620D01*
X9358333Y59872620D02*
X9358333Y60872620D01*
X9263095Y60729762D01*
X9167857Y60634524D01*
X9072619Y60586905D01*
X10501190Y60539286D02*
X10501190Y59872620D01*
X10072619Y60539286D02*
X10072619Y60015477D01*
X10120238Y59920239D01*
X10215476Y59872620D01*
X10358333Y59872620D01*
X10453571Y59920239D01*
X10501190Y59967858D01*
X11310714Y60396429D02*
X10977380Y60396429D01*
X10977380Y59872620D02*
X10977380Y60872620D01*
X11453571Y60872620D01*
X7882142Y46902620D02*
X7977380Y46902620D01*
X8072619Y46855000D01*
X8120238Y46807381D01*
X8167857Y46712143D01*
X8215476Y46521667D01*
X8215476Y46283572D01*
X8167857Y46093096D01*
X8120238Y45997858D01*
X8072619Y45950239D01*
X7977380Y45902620D01*
X7882142Y45902620D01*
X7786904Y45950239D01*
X7739285Y45997858D01*
X7691666Y46093096D01*
X7644047Y46283572D01*
X7644047Y46521667D01*
X7691666Y46712143D01*
X7739285Y46807381D01*
X7786904Y46855000D01*
X7882142Y46902620D01*
X8644047Y45997858D02*
X8691666Y45950239D01*
X8644047Y45902620D01*
X8596428Y45950239D01*
X8644047Y45997858D01*
X8644047Y45902620D01*
X9644047Y45902620D02*
X9072619Y45902620D01*
X9358333Y45902620D02*
X9358333Y46902620D01*
X9263095Y46759762D01*
X9167857Y46664524D01*
X9072619Y46616905D01*
X10501190Y46569286D02*
X10501190Y45902620D01*
X10072619Y46569286D02*
X10072619Y46045477D01*
X10120238Y45950239D01*
X10215476Y45902620D01*
X10358333Y45902620D01*
X10453571Y45950239D01*
X10501190Y45997858D01*
X11310714Y46426429D02*
X10977380Y46426429D01*
X10977380Y45902620D02*
X10977380Y46902620D01*
X11453571Y46902620D01*
X37727142Y46902620D02*
X37822380Y46902620D01*
X37917619Y46855000D01*
X37965238Y46807381D01*
X38012857Y46712143D01*
X38060476Y46521667D01*
X38060476Y46283572D01*
X38012857Y46093096D01*
X37965238Y45997858D01*
X37917619Y45950239D01*
X37822380Y45902620D01*
X37727142Y45902620D01*
X37631904Y45950239D01*
X37584285Y45997858D01*
X37536666Y46093096D01*
X37489047Y46283572D01*
X37489047Y46521667D01*
X37536666Y46712143D01*
X37584285Y46807381D01*
X37631904Y46855000D01*
X37727142Y46902620D01*
X38489047Y45997858D02*
X38536666Y45950239D01*
X38489047Y45902620D01*
X38441428Y45950239D01*
X38489047Y45997858D01*
X38489047Y45902620D01*
X39489047Y45902620D02*
X38917619Y45902620D01*
X39203333Y45902620D02*
X39203333Y46902620D01*
X39108095Y46759762D01*
X39012857Y46664524D01*
X38917619Y46616905D01*
X40346190Y46569286D02*
X40346190Y45902620D01*
X39917619Y46569286D02*
X39917619Y46045477D01*
X39965238Y45950239D01*
X40060476Y45902620D01*
X40203333Y45902620D01*
X40298571Y45950239D01*
X40346190Y45997858D01*
X41155714Y46426429D02*
X40822380Y46426429D01*
X40822380Y45902620D02*
X40822380Y46902620D01*
X41298571Y46902620D01*
X28202142Y15152620D02*
X28297380Y15152620D01*
X28392619Y15105000D01*
X28440238Y15057381D01*
X28487857Y14962143D01*
X28535476Y14771667D01*
X28535476Y14533572D01*
X28487857Y14343096D01*
X28440238Y14247858D01*
X28392619Y14200239D01*
X28297380Y14152620D01*
X28202142Y14152620D01*
X28106904Y14200239D01*
X28059285Y14247858D01*
X28011666Y14343096D01*
X27964047Y14533572D01*
X27964047Y14771667D01*
X28011666Y14962143D01*
X28059285Y15057381D01*
X28106904Y15105000D01*
X28202142Y15152620D01*
X28964047Y14247858D02*
X29011666Y14200239D01*
X28964047Y14152620D01*
X28916428Y14200239D01*
X28964047Y14247858D01*
X28964047Y14152620D01*
X29964047Y14152620D02*
X29392619Y14152620D01*
X29678333Y14152620D02*
X29678333Y15152620D01*
X29583095Y15009762D01*
X29487857Y14914524D01*
X29392619Y14866905D01*
X30821190Y14819286D02*
X30821190Y14152620D01*
X30392619Y14819286D02*
X30392619Y14295477D01*
X30440238Y14200239D01*
X30535476Y14152620D01*
X30678333Y14152620D01*
X30773571Y14200239D01*
X30821190Y14247858D01*
X31630714Y14676429D02*
X31297380Y14676429D01*
X31297380Y14152620D02*
X31297380Y15152620D01*
X31773571Y15152620D01*
X80907142Y54522620D02*
X81002380Y54522620D01*
X81097619Y54475000D01*
X81145238Y54427381D01*
X81192857Y54332143D01*
X81240476Y54141667D01*
X81240476Y53903572D01*
X81192857Y53713096D01*
X81145238Y53617858D01*
X81097619Y53570239D01*
X81002380Y53522620D01*
X80907142Y53522620D01*
X80811904Y53570239D01*
X80764285Y53617858D01*
X80716666Y53713096D01*
X80669047Y53903572D01*
X80669047Y54141667D01*
X80716666Y54332143D01*
X80764285Y54427381D01*
X80811904Y54475000D01*
X80907142Y54522620D01*
X81669047Y53617858D02*
X81716666Y53570239D01*
X81669047Y53522620D01*
X81621428Y53570239D01*
X81669047Y53617858D01*
X81669047Y53522620D01*
X82669047Y53522620D02*
X82097619Y53522620D01*
X82383333Y53522620D02*
X82383333Y54522620D01*
X82288095Y54379762D01*
X82192857Y54284524D01*
X82097619Y54236905D01*
X83526190Y54189286D02*
X83526190Y53522620D01*
X83097619Y54189286D02*
X83097619Y53665477D01*
X83145238Y53570239D01*
X83240476Y53522620D01*
X83383333Y53522620D01*
X83478571Y53570239D01*
X83526190Y53617858D01*
X84335714Y54046429D02*
X84002380Y54046429D01*
X84002380Y53522620D02*
X84002380Y54522620D01*
X84478571Y54522620D01*
X57412142Y71032620D02*
X57507380Y71032620D01*
X57602619Y70985000D01*
X57650238Y70937381D01*
X57697857Y70842143D01*
X57745476Y70651667D01*
X57745476Y70413572D01*
X57697857Y70223096D01*
X57650238Y70127858D01*
X57602619Y70080239D01*
X57507380Y70032620D01*
X57412142Y70032620D01*
X57316904Y70080239D01*
X57269285Y70127858D01*
X57221666Y70223096D01*
X57174047Y70413572D01*
X57174047Y70651667D01*
X57221666Y70842143D01*
X57269285Y70937381D01*
X57316904Y70985000D01*
X57412142Y71032620D01*
X58174047Y70127858D02*
X58221666Y70080239D01*
X58174047Y70032620D01*
X58126428Y70080239D01*
X58174047Y70127858D01*
X58174047Y70032620D01*
X59174047Y70032620D02*
X58602619Y70032620D01*
X58888333Y70032620D02*
X58888333Y71032620D01*
X58793095Y70889762D01*
X58697857Y70794524D01*
X58602619Y70746905D01*
X60031190Y70699286D02*
X60031190Y70032620D01*
X59602619Y70699286D02*
X59602619Y70175477D01*
X59650238Y70080239D01*
X59745476Y70032620D01*
X59888333Y70032620D01*
X59983571Y70080239D01*
X60031190Y70127858D01*
X60840714Y70556429D02*
X60507380Y70556429D01*
X60507380Y70032620D02*
X60507380Y71032620D01*
X60983571Y71032620D01*
X105672142Y54522620D02*
X105767380Y54522620D01*
X105862619Y54475000D01*
X105910238Y54427381D01*
X105957857Y54332143D01*
X106005476Y54141667D01*
X106005476Y53903572D01*
X105957857Y53713096D01*
X105910238Y53617858D01*
X105862619Y53570239D01*
X105767380Y53522620D01*
X105672142Y53522620D01*
X105576904Y53570239D01*
X105529285Y53617858D01*
X105481666Y53713096D01*
X105434047Y53903572D01*
X105434047Y54141667D01*
X105481666Y54332143D01*
X105529285Y54427381D01*
X105576904Y54475000D01*
X105672142Y54522620D01*
X106434047Y53617858D02*
X106481666Y53570239D01*
X106434047Y53522620D01*
X106386428Y53570239D01*
X106434047Y53617858D01*
X106434047Y53522620D01*
X107434047Y53522620D02*
X106862619Y53522620D01*
X107148333Y53522620D02*
X107148333Y54522620D01*
X107053095Y54379762D01*
X106957857Y54284524D01*
X106862619Y54236905D01*
X108291190Y54189286D02*
X108291190Y53522620D01*
X107862619Y54189286D02*
X107862619Y53665477D01*
X107910238Y53570239D01*
X108005476Y53522620D01*
X108148333Y53522620D01*
X108243571Y53570239D01*
X108291190Y53617858D01*
X109100714Y54046429D02*
X108767380Y54046429D01*
X108767380Y53522620D02*
X108767380Y54522620D01*
X109243571Y54522620D01*
D13*
X144780238Y45545239D02*
X145161190Y45545239D01*
X145351666Y45450000D01*
X145542142Y45259524D01*
X145637380Y44878572D01*
X145637380Y44211905D01*
X145542142Y43830953D01*
X145351666Y43640477D01*
X145161190Y43545239D01*
X144780238Y43545239D01*
X144589761Y43640477D01*
X144399285Y43830953D01*
X144304047Y44211905D01*
X144304047Y44878572D01*
X144399285Y45259524D01*
X144589761Y45450000D01*
X144780238Y45545239D01*
X147161190Y44592858D02*
X146494523Y44592858D01*
X146494523Y43545239D02*
X146494523Y45545239D01*
X147446904Y45545239D01*
X148875476Y44592858D02*
X148208809Y44592858D01*
X148208809Y43545239D02*
X148208809Y45545239D01*
X149161190Y45545239D01*
X145446904Y59515239D02*
X145827857Y59515239D01*
X146018333Y59420000D01*
X146208809Y59229524D01*
X146304047Y58848572D01*
X146304047Y58181905D01*
X146208809Y57800953D01*
X146018333Y57610477D01*
X145827857Y57515239D01*
X145446904Y57515239D01*
X145256428Y57610477D01*
X145065952Y57800953D01*
X144970714Y58181905D01*
X144970714Y58848572D01*
X145065952Y59229524D01*
X145256428Y59420000D01*
X145446904Y59515239D01*
X147161190Y57515239D02*
X147161190Y59515239D01*
X148304047Y57515239D01*
X148304047Y59515239D01*
D10*
X146494523Y70397620D02*
X146018333Y70397620D01*
X145970714Y69921429D01*
X146018333Y69969048D01*
X146113571Y70016667D01*
X146351666Y70016667D01*
X146446904Y69969048D01*
X146494523Y69921429D01*
X146542142Y69826191D01*
X146542142Y69588096D01*
X146494523Y69492858D01*
X146446904Y69445239D01*
X146351666Y69397620D01*
X146113571Y69397620D01*
X146018333Y69445239D01*
X145970714Y69492858D01*
X146827857Y70397620D02*
X147161190Y69397620D01*
X147494523Y70397620D01*
X143867380Y33202620D02*
X143295952Y33202620D01*
X143581666Y33202620D02*
X143581666Y34202620D01*
X143486428Y34059762D01*
X143391190Y33964524D01*
X143295952Y33916905D01*
X144486428Y34202620D02*
X144581666Y34202620D01*
X144676904Y34155000D01*
X144724523Y34107381D01*
X144772142Y34012143D01*
X144819761Y33821667D01*
X144819761Y33583572D01*
X144772142Y33393096D01*
X144724523Y33297858D01*
X144676904Y33250239D01*
X144581666Y33202620D01*
X144486428Y33202620D01*
X144391190Y33250239D01*
X144343571Y33297858D01*
X144295952Y33393096D01*
X144248333Y33583572D01*
X144248333Y33821667D01*
X144295952Y34012143D01*
X144343571Y34107381D01*
X144391190Y34155000D01*
X144486428Y34202620D01*
X145438809Y34202620D02*
X145534047Y34202620D01*
X145629285Y34155000D01*
X145676904Y34107381D01*
X145724523Y34012143D01*
X145772142Y33821667D01*
X145772142Y33583572D01*
X145724523Y33393096D01*
X145676904Y33297858D01*
X145629285Y33250239D01*
X145534047Y33202620D01*
X145438809Y33202620D01*
X145343571Y33250239D01*
X145295952Y33297858D01*
X145248333Y33393096D01*
X145200714Y33583572D01*
X145200714Y33821667D01*
X145248333Y34012143D01*
X145295952Y34107381D01*
X145343571Y34155000D01*
X145438809Y34202620D01*
X146629285Y33869286D02*
X146629285Y33202620D01*
X146200714Y33869286D02*
X146200714Y33345477D01*
X146248333Y33250239D01*
X146343571Y33202620D01*
X146486428Y33202620D01*
X146581666Y33250239D01*
X146629285Y33297858D01*
X147438809Y33726429D02*
X147105476Y33726429D01*
X147105476Y33202620D02*
X147105476Y34202620D01*
X147581666Y34202620D01*
D14*
X8860000Y88705000D02*
X8155000Y88705000D01*
X10895000Y88705000D02*
X10190000Y88705000D01*
X8860000Y92945000D02*
X8155000Y92945000D01*
X10895000Y92945000D02*
X10190000Y92945000D01*
X8155000Y92945000D02*
X8155000Y88705000D01*
X10895000Y92945000D02*
X10895000Y88705000D01*
X10895000Y79610000D02*
X10895000Y75370000D01*
X8155000Y79610000D02*
X8155000Y75370000D01*
X10895000Y79610000D02*
X10190000Y79610000D01*
X8860000Y79610000D02*
X8155000Y79610000D01*
X10895000Y75370000D02*
X10190000Y75370000D01*
X8860000Y75370000D02*
X8155000Y75370000D01*
X33120000Y92945000D02*
X33120000Y88705000D01*
X30380000Y92945000D02*
X30380000Y88705000D01*
X33120000Y92945000D02*
X32415000Y92945000D01*
X31085000Y92945000D02*
X30380000Y92945000D01*
X33120000Y88705000D02*
X32415000Y88705000D01*
X31085000Y88705000D02*
X30380000Y88705000D01*
X31850000Y19920000D02*
X31850000Y15680000D01*
X29110000Y19920000D02*
X29110000Y15680000D01*
X31850000Y19920000D02*
X31145000Y19920000D01*
X29815000Y19920000D02*
X29110000Y19920000D01*
X31850000Y15680000D02*
X31145000Y15680000D01*
X29815000Y15680000D02*
X29110000Y15680000D01*
X31085000Y75370000D02*
X30380000Y75370000D01*
X33120000Y75370000D02*
X32415000Y75370000D01*
X31085000Y79610000D02*
X30380000Y79610000D01*
X33120000Y79610000D02*
X32415000Y79610000D01*
X30380000Y79610000D02*
X30380000Y75370000D01*
X33120000Y79610000D02*
X33120000Y75370000D01*
X8860000Y61400000D02*
X8155000Y61400000D01*
X10895000Y61400000D02*
X10190000Y61400000D01*
X8860000Y65640000D02*
X8155000Y65640000D01*
X10895000Y65640000D02*
X10190000Y65640000D01*
X8155000Y65640000D02*
X8155000Y61400000D01*
X10895000Y65640000D02*
X10895000Y61400000D01*
X59025000Y72195000D02*
X58320000Y72195000D01*
X61060000Y72195000D02*
X60355000Y72195000D01*
X59025000Y76435000D02*
X58320000Y76435000D01*
X61060000Y76435000D02*
X60355000Y76435000D01*
X58320000Y76435000D02*
X58320000Y72195000D01*
X61060000Y76435000D02*
X61060000Y72195000D01*
X33120000Y65640000D02*
X33120000Y61400000D01*
X30380000Y65640000D02*
X30380000Y61400000D01*
X33120000Y65640000D02*
X32415000Y65640000D01*
X31085000Y65640000D02*
X30380000Y65640000D01*
X33120000Y61400000D02*
X32415000Y61400000D01*
X31085000Y61400000D02*
X30380000Y61400000D01*
X83920000Y59290000D02*
X83920000Y55050000D01*
X81180000Y59290000D02*
X81180000Y55050000D01*
X83920000Y59290000D02*
X83215000Y59290000D01*
X81885000Y59290000D02*
X81180000Y59290000D01*
X83920000Y55050000D02*
X83215000Y55050000D01*
X81885000Y55050000D02*
X81180000Y55050000D01*
X106650000Y55050000D02*
X105945000Y55050000D01*
X108685000Y55050000D02*
X107980000Y55050000D01*
X106650000Y59290000D02*
X105945000Y59290000D01*
X108685000Y59290000D02*
X107980000Y59290000D01*
X105945000Y59290000D02*
X105945000Y55050000D01*
X108685000Y59290000D02*
X108685000Y55050000D01*
X38705000Y47430000D02*
X38000000Y47430000D01*
X40740000Y47430000D02*
X40035000Y47430000D01*
X38705000Y51670000D02*
X38000000Y51670000D01*
X40740000Y51670000D02*
X40035000Y51670000D01*
X38000000Y51670000D02*
X38000000Y47430000D01*
X40740000Y51670000D02*
X40740000Y47430000D01*
X10895000Y51670000D02*
X10895000Y47430000D01*
X8155000Y51670000D02*
X8155000Y47430000D01*
X10895000Y51670000D02*
X10190000Y51670000D01*
X8860000Y51670000D02*
X8155000Y51670000D01*
X10895000Y47430000D02*
X10190000Y47430000D01*
X8860000Y47430000D02*
X8155000Y47430000D01*
X148055000Y37465000D02*
G75*
G03*
X148055000Y37465000I-2620000J0D01*
G01*
X145435000Y34885000D02*
X145435000Y40045000D01*
X145395000Y34885000D02*
X145395000Y40045000D01*
X145355000Y34886000D02*
X145355000Y40044000D01*
X145315000Y34887000D02*
X145315000Y40043000D01*
X145275000Y34889000D02*
X145275000Y40041000D01*
X145235000Y34892000D02*
X145235000Y40038000D01*
X145195000Y34896000D02*
X145195000Y36425000D01*
X145195000Y38505000D02*
X145195000Y40034000D01*
X145155000Y34900000D02*
X145155000Y36425000D01*
X145155000Y38505000D02*
X145155000Y40030000D01*
X145115000Y34904000D02*
X145115000Y36425000D01*
X145115000Y38505000D02*
X145115000Y40026000D01*
X145075000Y34909000D02*
X145075000Y36425000D01*
X145075000Y38505000D02*
X145075000Y40021000D01*
X145035000Y34915000D02*
X145035000Y36425000D01*
X145035000Y38505000D02*
X145035000Y40015000D01*
X144995000Y34922000D02*
X144995000Y36425000D01*
X144995000Y38505000D02*
X144995000Y40008000D01*
X144955000Y34929000D02*
X144955000Y36425000D01*
X144955000Y38505000D02*
X144955000Y40001000D01*
X144915000Y34937000D02*
X144915000Y36425000D01*
X144915000Y38505000D02*
X144915000Y39993000D01*
X144875000Y34945000D02*
X144875000Y36425000D01*
X144875000Y38505000D02*
X144875000Y39985000D01*
X144835000Y34954000D02*
X144835000Y36425000D01*
X144835000Y38505000D02*
X144835000Y39976000D01*
X144795000Y34964000D02*
X144795000Y36425000D01*
X144795000Y38505000D02*
X144795000Y39966000D01*
X144755000Y34974000D02*
X144755000Y36425000D01*
X144755000Y38505000D02*
X144755000Y39956000D01*
X144714000Y34985000D02*
X144714000Y36425000D01*
X144714000Y38505000D02*
X144714000Y39945000D01*
X144674000Y34997000D02*
X144674000Y36425000D01*
X144674000Y38505000D02*
X144674000Y39933000D01*
X144634000Y35010000D02*
X144634000Y36425000D01*
X144634000Y38505000D02*
X144634000Y39920000D01*
X144594000Y35023000D02*
X144594000Y36425000D01*
X144594000Y38505000D02*
X144594000Y39907000D01*
X144554000Y35037000D02*
X144554000Y36425000D01*
X144554000Y38505000D02*
X144554000Y39893000D01*
X144514000Y35051000D02*
X144514000Y36425000D01*
X144514000Y38505000D02*
X144514000Y39879000D01*
X144474000Y35067000D02*
X144474000Y36425000D01*
X144474000Y38505000D02*
X144474000Y39863000D01*
X144434000Y35083000D02*
X144434000Y36425000D01*
X144434000Y38505000D02*
X144434000Y39847000D01*
X144394000Y35100000D02*
X144394000Y36425000D01*
X144394000Y38505000D02*
X144394000Y39830000D01*
X144354000Y35117000D02*
X144354000Y36425000D01*
X144354000Y38505000D02*
X144354000Y39813000D01*
X144314000Y35136000D02*
X144314000Y36425000D01*
X144314000Y38505000D02*
X144314000Y39794000D01*
X144274000Y35155000D02*
X144274000Y36425000D01*
X144274000Y38505000D02*
X144274000Y39775000D01*
X144234000Y35175000D02*
X144234000Y36425000D01*
X144234000Y38505000D02*
X144234000Y39755000D01*
X144194000Y35197000D02*
X144194000Y36425000D01*
X144194000Y38505000D02*
X144194000Y39733000D01*
X144154000Y35218000D02*
X144154000Y36425000D01*
X144154000Y38505000D02*
X144154000Y39712000D01*
X144114000Y35241000D02*
X144114000Y36425000D01*
X144114000Y38505000D02*
X144114000Y39689000D01*
X144074000Y35265000D02*
X144074000Y36425000D01*
X144074000Y38505000D02*
X144074000Y39665000D01*
X144034000Y35290000D02*
X144034000Y36425000D01*
X144034000Y38505000D02*
X144034000Y39640000D01*
X143994000Y35316000D02*
X143994000Y36425000D01*
X143994000Y38505000D02*
X143994000Y39614000D01*
X143954000Y35343000D02*
X143954000Y36425000D01*
X143954000Y38505000D02*
X143954000Y39587000D01*
X143914000Y35370000D02*
X143914000Y36425000D01*
X143914000Y38505000D02*
X143914000Y39560000D01*
X143874000Y35400000D02*
X143874000Y36425000D01*
X143874000Y38505000D02*
X143874000Y39530000D01*
X143834000Y35430000D02*
X143834000Y36425000D01*
X143834000Y38505000D02*
X143834000Y39500000D01*
X143794000Y35461000D02*
X143794000Y36425000D01*
X143794000Y38505000D02*
X143794000Y39469000D01*
X143754000Y35494000D02*
X143754000Y36425000D01*
X143754000Y38505000D02*
X143754000Y39436000D01*
X143714000Y35528000D02*
X143714000Y36425000D01*
X143714000Y38505000D02*
X143714000Y39402000D01*
X143674000Y35564000D02*
X143674000Y36425000D01*
X143674000Y38505000D02*
X143674000Y39366000D01*
X143634000Y35601000D02*
X143634000Y36425000D01*
X143634000Y38505000D02*
X143634000Y39329000D01*
X143594000Y35639000D02*
X143594000Y36425000D01*
X143594000Y38505000D02*
X143594000Y39291000D01*
X143554000Y35680000D02*
X143554000Y36425000D01*
X143554000Y38505000D02*
X143554000Y39250000D01*
X143514000Y35722000D02*
X143514000Y36425000D01*
X143514000Y38505000D02*
X143514000Y39208000D01*
X143474000Y35766000D02*
X143474000Y36425000D01*
X143474000Y38505000D02*
X143474000Y39164000D01*
X143434000Y35812000D02*
X143434000Y36425000D01*
X143434000Y38505000D02*
X143434000Y39118000D01*
X143394000Y35860000D02*
X143394000Y36425000D01*
X143394000Y38505000D02*
X143394000Y39070000D01*
X143354000Y35911000D02*
X143354000Y36425000D01*
X143354000Y38505000D02*
X143354000Y39019000D01*
X143314000Y35965000D02*
X143314000Y36425000D01*
X143314000Y38505000D02*
X143314000Y38965000D01*
X143274000Y36022000D02*
X143274000Y36425000D01*
X143274000Y38505000D02*
X143274000Y38908000D01*
X143234000Y36082000D02*
X143234000Y36425000D01*
X143234000Y38505000D02*
X143234000Y38848000D01*
X143194000Y36146000D02*
X143194000Y36425000D01*
X143194000Y38505000D02*
X143194000Y38784000D01*
X143154000Y36214000D02*
X143154000Y36425000D01*
X143154000Y38505000D02*
X143154000Y38716000D01*
X143114000Y36287000D02*
X143114000Y38643000D01*
X143074000Y36367000D02*
X143074000Y38563000D01*
X143034000Y36454000D02*
X143034000Y38476000D01*
X142994000Y36550000D02*
X142994000Y38380000D01*
X142954000Y36660000D02*
X142954000Y38270000D01*
X142914000Y36788000D02*
X142914000Y38142000D01*
X142874000Y36947000D02*
X142874000Y37983000D01*
X142834000Y37181000D02*
X142834000Y37749000D01*
X148239775Y35990000D02*
X147739775Y35990000D01*
X147989775Y35740000D02*
X147989775Y36240000D01*
X49725000Y29110000D02*
X45485000Y29110000D01*
X49725000Y31850000D02*
X45485000Y31850000D01*
X49725000Y29110000D02*
X49725000Y29815000D01*
X49725000Y31145000D02*
X49725000Y31850000D01*
X45485000Y29110000D02*
X45485000Y29815000D01*
X45485000Y31145000D02*
X45485000Y31850000D01*
X44645000Y29815000D02*
X44645000Y29110000D01*
X44645000Y31850000D02*
X44645000Y31145000D01*
X40405000Y29815000D02*
X40405000Y29110000D01*
X40405000Y31850000D02*
X40405000Y31145000D01*
X40405000Y29110000D02*
X44645000Y29110000D01*
X40405000Y31850000D02*
X44645000Y31850000D01*
X109180000Y87630000D02*
G75*
G03*
X109180000Y87630000I-2500000J0D01*
G01*
X105135000Y85070000D02*
X108225000Y85070000D01*
X106680462Y90620000D02*
G75*
G03*
X105135170Y85070000I-462J-2990000D01*
G01*
X106679538Y90620000D02*
G75*
G02*
X108224830Y85070000I462J-2990000D01*
G01*
X117835000Y85070000D02*
X120925000Y85070000D01*
X121880000Y87630000D02*
G75*
G03*
X121880000Y87630000I-2500000J0D01*
G01*
X119379538Y90620000D02*
G75*
G02*
X120924830Y85070000I462J-2990000D01*
G01*
X119380462Y90620000D02*
G75*
G03*
X117835170Y85070000I-462J-2990000D01*
G01*
X133945000Y87630000D02*
G75*
G03*
X133945000Y87630000I-2500000J0D01*
G01*
X129900000Y85070000D02*
X132990000Y85070000D01*
X131445462Y90620000D02*
G75*
G03*
X129900170Y85070000I-462J-2990000D01*
G01*
X131444538Y90620000D02*
G75*
G02*
X132989830Y85070000I462J-2990000D01*
G01*
X93940000Y24765000D02*
G75*
G03*
X93940000Y24765000I-2500000J0D01*
G01*
X88880000Y26310000D02*
X88880000Y23220000D01*
X94430000Y24764538D02*
G75*
G03*
X88880000Y26309830I-2990000J462D01*
G01*
X94430000Y24765462D02*
G75*
G02*
X88880000Y23220170I-2990000J-462D01*
G01*
X95230000Y26310000D02*
X95230000Y23220000D01*
X100290000Y24765000D02*
G75*
G03*
X100290000Y24765000I-2500000J0D01*
G01*
X100780000Y24765462D02*
G75*
G02*
X95230000Y23220170I-2990000J-462D01*
G01*
X100780000Y24764538D02*
G75*
G03*
X95230000Y26309830I-2990000J462D01*
G01*
X106640000Y24765000D02*
G75*
G03*
X106640000Y24765000I-2500000J0D01*
G01*
X101580000Y26310000D02*
X101580000Y23220000D01*
X107130000Y24764538D02*
G75*
G03*
X101580000Y26309830I-2990000J462D01*
G01*
X107130000Y24765462D02*
G75*
G02*
X101580000Y23220170I-2990000J-462D01*
G01*
X107930000Y26310000D02*
X107930000Y23220000D01*
X112990000Y24765000D02*
G75*
G03*
X112990000Y24765000I-2500000J0D01*
G01*
X113480000Y24765462D02*
G75*
G02*
X107930000Y23220170I-2990000J-462D01*
G01*
X113480000Y24764538D02*
G75*
G03*
X107930000Y26309830I-2990000J462D01*
G01*
X121880000Y24765000D02*
G75*
G03*
X121880000Y24765000I-2500000J0D01*
G01*
X116820000Y26310000D02*
X116820000Y23220000D01*
X122370000Y24764538D02*
G75*
G03*
X116820000Y26309830I-2990000J462D01*
G01*
X122370000Y24765462D02*
G75*
G02*
X116820000Y23220170I-2990000J-462D01*
G01*
X123170000Y26310000D02*
X123170000Y23220000D01*
X128230000Y24765000D02*
G75*
G03*
X128230000Y24765000I-2500000J0D01*
G01*
X128720000Y24765462D02*
G75*
G02*
X123170000Y23220170I-2990000J-462D01*
G01*
X128720000Y24764538D02*
G75*
G03*
X123170000Y26309830I-2990000J462D01*
G01*
X134580000Y24765000D02*
G75*
G03*
X134580000Y24765000I-2500000J0D01*
G01*
X129520000Y26310000D02*
X129520000Y23220000D01*
X135070000Y24764538D02*
G75*
G03*
X129520000Y26309830I-2990000J462D01*
G01*
X135070000Y24765462D02*
G75*
G02*
X129520000Y23220170I-2990000J-462D01*
G01*
X135870000Y26310000D02*
X135870000Y23220000D01*
X140930000Y24765000D02*
G75*
G03*
X140930000Y24765000I-2500000J0D01*
G01*
X141420000Y24765462D02*
G75*
G02*
X135870000Y23220170I-2990000J-462D01*
G01*
X141420000Y24764538D02*
G75*
G03*
X135870000Y26309830I-2990000J462D01*
G01*
X135425000Y62290000D02*
X135425000Y61240000D01*
X136475000Y61240000D02*
X135425000Y61240000D01*
X141525000Y70640000D02*
X150325000Y70640000D01*
X150325000Y70640000D02*
X150325000Y61440000D01*
X135625000Y67940000D02*
X135625000Y70640000D01*
X135625000Y70640000D02*
X137525000Y70640000D01*
X150325000Y61440000D02*
X135625000Y61440000D01*
X135625000Y61440000D02*
X135625000Y64040000D01*
X108585000Y71525000D02*
X108585000Y72295000D01*
X108585000Y79605000D02*
X108585000Y78835000D01*
X109955000Y72295000D02*
X109955000Y78835000D01*
X107215000Y72295000D02*
X109955000Y72295000D01*
X107215000Y78835000D02*
X107215000Y72295000D01*
X109955000Y78835000D02*
X107215000Y78835000D01*
X137160000Y84685000D02*
X137160000Y83915000D01*
X137160000Y76605000D02*
X137160000Y77375000D01*
X135790000Y83915000D02*
X135790000Y77375000D01*
X138530000Y83915000D02*
X135790000Y83915000D01*
X138530000Y77375000D02*
X138530000Y83915000D01*
X135790000Y77375000D02*
X138530000Y77375000D01*
X105510000Y78835000D02*
X102770000Y78835000D01*
X102770000Y78835000D02*
X102770000Y72295000D01*
X102770000Y72295000D02*
X105510000Y72295000D01*
X105510000Y72295000D02*
X105510000Y78835000D01*
X104140000Y79605000D02*
X104140000Y78835000D01*
X104140000Y71525000D02*
X104140000Y72295000D01*
X34695000Y5080000D02*
X35465000Y5080000D01*
X42775000Y5080000D02*
X42005000Y5080000D01*
X35465000Y3710000D02*
X42005000Y3710000D01*
X35465000Y6450000D02*
X35465000Y3710000D01*
X42005000Y6450000D02*
X35465000Y6450000D01*
X42005000Y3710000D02*
X42005000Y6450000D01*
X72925000Y31655000D02*
X75665000Y31655000D01*
X75665000Y31655000D02*
X75665000Y38195000D01*
X75665000Y38195000D02*
X72925000Y38195000D01*
X72925000Y38195000D02*
X72925000Y31655000D01*
X74295000Y30885000D02*
X74295000Y31655000D01*
X74295000Y38965000D02*
X74295000Y38195000D01*
X39775000Y38735000D02*
X40545000Y38735000D01*
X47855000Y38735000D02*
X47085000Y38735000D01*
X40545000Y37365000D02*
X47085000Y37365000D01*
X40545000Y40105000D02*
X40545000Y37365000D01*
X47085000Y40105000D02*
X40545000Y40105000D01*
X47085000Y37365000D02*
X47085000Y40105000D01*
X40545000Y36295000D02*
X40545000Y33555000D01*
X40545000Y33555000D02*
X47085000Y33555000D01*
X47085000Y33555000D02*
X47085000Y36295000D01*
X47085000Y36295000D02*
X40545000Y36295000D01*
X39775000Y34925000D02*
X40545000Y34925000D01*
X47855000Y34925000D02*
X47085000Y34925000D01*
X110260000Y92710000D02*
X111030000Y92710000D01*
X118340000Y92710000D02*
X117570000Y92710000D01*
X111030000Y91340000D02*
X117570000Y91340000D01*
X111030000Y94080000D02*
X111030000Y91340000D01*
X117570000Y94080000D02*
X111030000Y94080000D01*
X117570000Y91340000D02*
X117570000Y94080000D01*
X127730000Y95150000D02*
X127730000Y97890000D01*
X127730000Y97890000D02*
X121190000Y97890000D01*
X121190000Y97890000D02*
X121190000Y95150000D01*
X121190000Y95150000D02*
X127730000Y95150000D01*
X128500000Y96520000D02*
X127730000Y96520000D01*
X120420000Y96520000D02*
X121190000Y96520000D01*
X129945000Y92710000D02*
X130715000Y92710000D01*
X138025000Y92710000D02*
X137255000Y92710000D01*
X130715000Y91340000D02*
X137255000Y91340000D01*
X130715000Y94080000D02*
X130715000Y91340000D01*
X137255000Y94080000D02*
X130715000Y94080000D01*
X137255000Y91340000D02*
X137255000Y94080000D01*
X145990000Y47565000D02*
X148650000Y47565000D01*
X145990000Y52705000D02*
X145990000Y47565000D01*
X148650000Y52705000D02*
X148650000Y47565000D01*
X145990000Y52705000D02*
X148650000Y52705000D01*
X145990000Y53975000D02*
X145990000Y55305000D01*
X145990000Y55305000D02*
X147320000Y55305000D01*
X9605000Y34437000D02*
X14685000Y34437000D01*
X14685000Y34437000D02*
X14685000Y26307000D01*
X14685000Y26307000D02*
X9605000Y26307000D01*
X9605000Y26307000D02*
X9605000Y34437000D01*
X128905000Y82167000D02*
X133985000Y82167000D01*
X133985000Y82167000D02*
X133985000Y74037000D01*
X133985000Y74037000D02*
X128905000Y74037000D01*
X128905000Y74037000D02*
X128905000Y82167000D01*
X116840000Y74037000D02*
X116840000Y82167000D01*
X121920000Y74037000D02*
X116840000Y74037000D01*
X121920000Y82167000D02*
X121920000Y74037000D01*
X116840000Y82167000D02*
X121920000Y82167000D01*
X93980000Y14863000D02*
X93980000Y6733000D01*
X88900000Y14863000D02*
X93980000Y14863000D01*
X88900000Y6733000D02*
X88900000Y14863000D01*
X93980000Y6733000D02*
X88900000Y6733000D01*
X100330000Y6733000D02*
X95250000Y6733000D01*
X95250000Y6733000D02*
X95250000Y14863000D01*
X95250000Y14863000D02*
X100330000Y14863000D01*
X100330000Y14863000D02*
X100330000Y6733000D01*
X106680000Y6733000D02*
X101600000Y6733000D01*
X101600000Y6733000D02*
X101600000Y14863000D01*
X101600000Y14863000D02*
X106680000Y14863000D01*
X106680000Y14863000D02*
X106680000Y6733000D01*
X113030000Y6733000D02*
X107950000Y6733000D01*
X107950000Y6733000D02*
X107950000Y14863000D01*
X107950000Y14863000D02*
X113030000Y14863000D01*
X113030000Y14863000D02*
X113030000Y6733000D01*
X121920000Y14863000D02*
X121920000Y6733000D01*
X116840000Y14863000D02*
X121920000Y14863000D01*
X116840000Y6733000D02*
X116840000Y14863000D01*
X121920000Y6733000D02*
X116840000Y6733000D01*
X128270000Y14863000D02*
X128270000Y6733000D01*
X123190000Y14863000D02*
X128270000Y14863000D01*
X123190000Y6733000D02*
X123190000Y14863000D01*
X128270000Y6733000D02*
X123190000Y6733000D01*
X134620000Y6733000D02*
X129540000Y6733000D01*
X129540000Y6733000D02*
X129540000Y14863000D01*
X129540000Y14863000D02*
X134620000Y14863000D01*
X134620000Y14863000D02*
X134620000Y6733000D01*
X140970000Y14863000D02*
X140970000Y6733000D01*
X135890000Y14863000D02*
X140970000Y14863000D01*
X135890000Y6733000D02*
X135890000Y14863000D01*
X140970000Y6733000D02*
X135890000Y6733000D01*
X93980000Y35308000D02*
X88900000Y35308000D01*
X88900000Y35308000D02*
X88900000Y43438000D01*
X88900000Y43438000D02*
X93980000Y43438000D01*
X93980000Y43438000D02*
X93980000Y35308000D01*
X100330000Y43438000D02*
X100330000Y35308000D01*
X95250000Y43438000D02*
X100330000Y43438000D01*
X95250000Y35308000D02*
X95250000Y43438000D01*
X100330000Y35308000D02*
X95250000Y35308000D01*
X106680000Y43438000D02*
X106680000Y35308000D01*
X101600000Y43438000D02*
X106680000Y43438000D01*
X101600000Y35308000D02*
X101600000Y43438000D01*
X106680000Y35308000D02*
X101600000Y35308000D01*
X113030000Y35308000D02*
X107950000Y35308000D01*
X107950000Y35308000D02*
X107950000Y43438000D01*
X107950000Y43438000D02*
X113030000Y43438000D01*
X113030000Y43438000D02*
X113030000Y35308000D01*
X121920000Y43438000D02*
X121920000Y35308000D01*
X116840000Y43438000D02*
X121920000Y43438000D01*
X116840000Y35308000D02*
X116840000Y43438000D01*
X121920000Y35308000D02*
X116840000Y35308000D01*
X128270000Y35308000D02*
X123190000Y35308000D01*
X123190000Y35308000D02*
X123190000Y43438000D01*
X123190000Y43438000D02*
X128270000Y43438000D01*
X128270000Y43438000D02*
X128270000Y35308000D01*
X134620000Y43438000D02*
X134620000Y35308000D01*
X129540000Y43438000D02*
X134620000Y43438000D01*
X129540000Y35308000D02*
X129540000Y43438000D01*
X134620000Y35308000D02*
X129540000Y35308000D01*
X140970000Y35308000D02*
X135890000Y35308000D01*
X135890000Y35308000D02*
X135890000Y43438000D01*
X135890000Y43438000D02*
X140970000Y43438000D01*
X140970000Y43438000D02*
X140970000Y35308000D01*
X11370000Y93055000D02*
X11370000Y91805000D01*
X29270000Y93055000D02*
X11370000Y93055000D01*
X29270000Y88555000D02*
X29270000Y93055000D01*
X11370000Y88555000D02*
X29270000Y88555000D01*
X11370000Y89805000D02*
X11370000Y88555000D01*
X11370000Y91805000D02*
G75*
G02*
X11370000Y89805000I0J-1000000D01*
G01*
X11370000Y76470000D02*
X11370000Y75220000D01*
X11370000Y75220000D02*
X29270000Y75220000D01*
X29270000Y75220000D02*
X29270000Y79720000D01*
X29270000Y79720000D02*
X11370000Y79720000D01*
X11370000Y79720000D02*
X11370000Y78470000D01*
X11370000Y78470000D02*
G75*
G02*
X11370000Y76470000I0J-1000000D01*
G01*
X33595000Y89805000D02*
X33595000Y88555000D01*
X33595000Y88555000D02*
X54035000Y88555000D01*
X54035000Y88555000D02*
X54035000Y93055000D01*
X54035000Y93055000D02*
X33595000Y93055000D01*
X33595000Y93055000D02*
X33595000Y91805000D01*
X33595000Y91805000D02*
G75*
G02*
X33595000Y89805000I0J-1000000D01*
G01*
X32325000Y16780000D02*
X32325000Y11720000D01*
X32325000Y11720000D02*
X83245000Y11720000D01*
X83245000Y11720000D02*
X83245000Y23840000D01*
X83245000Y23840000D02*
X32325000Y23840000D01*
X32325000Y23840000D02*
X32325000Y18780000D01*
X32325000Y18780000D02*
G75*
G02*
X32325000Y16780000I0J-1000000D01*
G01*
X33595000Y76470000D02*
X33595000Y75220000D01*
X33595000Y75220000D02*
X51495000Y75220000D01*
X51495000Y75220000D02*
X51495000Y79720000D01*
X51495000Y79720000D02*
X33595000Y79720000D01*
X33595000Y79720000D02*
X33595000Y78470000D01*
X33595000Y78470000D02*
G75*
G02*
X33595000Y76470000I0J-1000000D01*
G01*
X11370000Y62500000D02*
X11370000Y61250000D01*
X11370000Y61250000D02*
X29270000Y61250000D01*
X29270000Y61250000D02*
X29270000Y65750000D01*
X29270000Y65750000D02*
X11370000Y65750000D01*
X11370000Y65750000D02*
X11370000Y64500000D01*
X11370000Y64500000D02*
G75*
G02*
X11370000Y62500000I0J-1000000D01*
G01*
X33595000Y65750000D02*
X33595000Y64500000D01*
X51495000Y65750000D02*
X33595000Y65750000D01*
X51495000Y61250000D02*
X51495000Y65750000D01*
X33595000Y61250000D02*
X51495000Y61250000D01*
X33595000Y62500000D02*
X33595000Y61250000D01*
X33595000Y64500000D02*
G75*
G02*
X33595000Y62500000I0J-1000000D01*
G01*
X84395000Y56150000D02*
X84395000Y54900000D01*
X84395000Y54900000D02*
X104835000Y54900000D01*
X104835000Y54900000D02*
X104835000Y59400000D01*
X104835000Y59400000D02*
X84395000Y59400000D01*
X84395000Y59400000D02*
X84395000Y58150000D01*
X84395000Y58150000D02*
G75*
G02*
X84395000Y56150000I0J-1000000D01*
G01*
X109160000Y59400000D02*
X109160000Y58150000D01*
X129600000Y59400000D02*
X109160000Y59400000D01*
X129600000Y54900000D02*
X129600000Y59400000D01*
X109160000Y54900000D02*
X129600000Y54900000D01*
X109160000Y56150000D02*
X109160000Y54900000D01*
X109160000Y58150000D02*
G75*
G02*
X109160000Y56150000I0J-1000000D01*
G01*
X41215000Y51780000D02*
X41215000Y50530000D01*
X66735000Y51780000D02*
X41215000Y51780000D01*
X66735000Y47280000D02*
X66735000Y51780000D01*
X41215000Y47280000D02*
X66735000Y47280000D01*
X41215000Y48530000D02*
X41215000Y47280000D01*
X41215000Y50530000D02*
G75*
G02*
X41215000Y48530000I0J-1000000D01*
G01*
X11370000Y48530000D02*
X11370000Y47280000D01*
X11370000Y47280000D02*
X36890000Y47280000D01*
X36890000Y47280000D02*
X36890000Y51780000D01*
X36890000Y51780000D02*
X11370000Y51780000D01*
X11370000Y51780000D02*
X11370000Y50530000D01*
X11370000Y50530000D02*
G75*
G02*
X11370000Y48530000I0J-1000000D01*
G01*
X126535000Y30350000D02*
X126535000Y33150000D01*
X126535000Y33150000D02*
X103335000Y33150000D01*
X103335000Y33150000D02*
X103335000Y30350000D01*
X103335000Y30350000D02*
X126535000Y30350000D01*
X123825000Y30350000D02*
X123825000Y33150000D01*
X127170000Y46225000D02*
X127170000Y49025000D01*
X127170000Y49025000D02*
X103970000Y49025000D01*
X103970000Y49025000D02*
X103970000Y46225000D01*
X103970000Y46225000D02*
X127170000Y46225000D01*
X124460000Y46225000D02*
X124460000Y49025000D01*
X123825000Y17650000D02*
X123825000Y20450000D01*
X103335000Y17650000D02*
X126535000Y17650000D01*
X103335000Y20450000D02*
X103335000Y17650000D01*
X126535000Y20450000D02*
X103335000Y20450000D01*
X126535000Y17650000D02*
X126535000Y20450000D01*
X29380000Y37970000D02*
X29380000Y40770000D01*
X29380000Y40770000D02*
X6180000Y40770000D01*
X6180000Y40770000D02*
X6180000Y37970000D01*
X6180000Y37970000D02*
X29380000Y37970000D01*
X26670000Y37970000D02*
X26670000Y40770000D01*
X61535000Y73295000D02*
X61535000Y68235000D01*
X61535000Y68235000D02*
X97215000Y68235000D01*
X97215000Y68235000D02*
X97215000Y80355000D01*
X97215000Y80355000D02*
X61535000Y80355000D01*
X61535000Y80355000D02*
X61535000Y75295000D01*
X61535000Y75295000D02*
G75*
G02*
X61535000Y73295000I0J-1000000D01*
G01*
X14346000Y19955000D02*
X14346000Y9805000D01*
X10546000Y9805000D02*
X14346000Y9805000D01*
X10546000Y19955000D02*
X10546000Y9805000D01*
X10546000Y19955000D02*
X14346000Y19955000D01*
X16007000Y19970000D02*
X19807000Y19970000D01*
X16007000Y19970000D02*
X16007000Y9820000D01*
X16007000Y9820000D02*
X19807000Y9820000D01*
X19807000Y19970000D02*
X19807000Y9820000D01*
X25268000Y19970000D02*
X25268000Y9820000D01*
X21468000Y9820000D02*
X25268000Y9820000D01*
X21468000Y19970000D02*
X21468000Y9820000D01*
X21468000Y19970000D02*
X25268000Y19970000D01*
X88230000Y88465000D02*
X88230000Y85525000D01*
X88470000Y88465000D02*
X88470000Y85525000D01*
X88350000Y88465000D02*
X88350000Y85525000D01*
X93910000Y86995000D02*
X92890000Y86995000D01*
X86430000Y86995000D02*
X87450000Y86995000D01*
X92890000Y88465000D02*
X87450000Y88465000D01*
X92890000Y85525000D02*
X92890000Y88465000D01*
X87450000Y85525000D02*
X92890000Y85525000D01*
X87450000Y88465000D02*
X87450000Y85525000D01*
X65225000Y88465000D02*
X65225000Y85525000D01*
X65225000Y85525000D02*
X70665000Y85525000D01*
X70665000Y85525000D02*
X70665000Y88465000D01*
X70665000Y88465000D02*
X65225000Y88465000D01*
X64205000Y86995000D02*
X65225000Y86995000D01*
X71685000Y86995000D02*
X70665000Y86995000D01*
X66125000Y88465000D02*
X66125000Y85525000D01*
X66245000Y88465000D02*
X66245000Y85525000D01*
X66005000Y88465000D02*
X66005000Y85525000D01*
X91380000Y95310000D02*
X91380000Y92650000D01*
X96520000Y95310000D02*
X91380000Y95310000D01*
X96520000Y92650000D02*
X91380000Y92650000D01*
X96520000Y95310000D02*
X96520000Y92650000D01*
X97790000Y95310000D02*
X99120000Y95310000D01*
X99120000Y95310000D02*
X99120000Y93980000D01*
X86410000Y91365000D02*
X63410000Y91365000D01*
X63410000Y91365000D02*
X63410000Y96965000D01*
X86410000Y91365000D02*
X86410000Y96965000D01*
X86410000Y96965000D02*
X63410000Y96965000D01*
D10*
X9358333Y93622858D02*
X9310714Y93575239D01*
X9167857Y93527620D01*
X9072619Y93527620D01*
X8929761Y93575239D01*
X8834523Y93670477D01*
X8786904Y93765715D01*
X8739285Y93956191D01*
X8739285Y94099048D01*
X8786904Y94289524D01*
X8834523Y94384762D01*
X8929761Y94480000D01*
X9072619Y94527620D01*
X9167857Y94527620D01*
X9310714Y94480000D01*
X9358333Y94432381D01*
X10310714Y93527620D02*
X9739285Y93527620D01*
X10025000Y93527620D02*
X10025000Y94527620D01*
X9929761Y94384762D01*
X9834523Y94289524D01*
X9739285Y94241905D01*
X9333333Y80142858D02*
X9285714Y80095239D01*
X9142857Y80047620D01*
X9047619Y80047620D01*
X8904761Y80095239D01*
X8809523Y80190477D01*
X8761904Y80285715D01*
X8714285Y80476191D01*
X8714285Y80619048D01*
X8761904Y80809524D01*
X8809523Y80904762D01*
X8904761Y81000000D01*
X9047619Y81047620D01*
X9142857Y81047620D01*
X9285714Y81000000D01*
X9333333Y80952381D01*
X9714285Y80952381D02*
X9761904Y81000000D01*
X9857142Y81047620D01*
X10095238Y81047620D01*
X10190476Y81000000D01*
X10238095Y80952381D01*
X10285714Y80857143D01*
X10285714Y80761905D01*
X10238095Y80619048D01*
X9666666Y80047620D01*
X10285714Y80047620D01*
X31583333Y93622858D02*
X31535714Y93575239D01*
X31392857Y93527620D01*
X31297619Y93527620D01*
X31154761Y93575239D01*
X31059523Y93670477D01*
X31011904Y93765715D01*
X30964285Y93956191D01*
X30964285Y94099048D01*
X31011904Y94289524D01*
X31059523Y94384762D01*
X31154761Y94480000D01*
X31297619Y94527620D01*
X31392857Y94527620D01*
X31535714Y94480000D01*
X31583333Y94432381D01*
X31916666Y94527620D02*
X32535714Y94527620D01*
X32202380Y94146667D01*
X32345238Y94146667D01*
X32440476Y94099048D01*
X32488095Y94051429D01*
X32535714Y93956191D01*
X32535714Y93718096D01*
X32488095Y93622858D01*
X32440476Y93575239D01*
X32345238Y93527620D01*
X32059523Y93527620D01*
X31964285Y93575239D01*
X31916666Y93622858D01*
X30313333Y20597858D02*
X30265714Y20550239D01*
X30122857Y20502620D01*
X30027619Y20502620D01*
X29884761Y20550239D01*
X29789523Y20645477D01*
X29741904Y20740715D01*
X29694285Y20931191D01*
X29694285Y21074048D01*
X29741904Y21264524D01*
X29789523Y21359762D01*
X29884761Y21455000D01*
X30027619Y21502620D01*
X30122857Y21502620D01*
X30265714Y21455000D01*
X30313333Y21407381D01*
X31170476Y21169286D02*
X31170476Y20502620D01*
X30932380Y21550239D02*
X30694285Y20835953D01*
X31313333Y20835953D01*
X31583333Y80287858D02*
X31535714Y80240239D01*
X31392857Y80192620D01*
X31297619Y80192620D01*
X31154761Y80240239D01*
X31059523Y80335477D01*
X31011904Y80430715D01*
X30964285Y80621191D01*
X30964285Y80764048D01*
X31011904Y80954524D01*
X31059523Y81049762D01*
X31154761Y81145000D01*
X31297619Y81192620D01*
X31392857Y81192620D01*
X31535714Y81145000D01*
X31583333Y81097381D01*
X32488095Y81192620D02*
X32011904Y81192620D01*
X31964285Y80716429D01*
X32011904Y80764048D01*
X32107142Y80811667D01*
X32345238Y80811667D01*
X32440476Y80764048D01*
X32488095Y80716429D01*
X32535714Y80621191D01*
X32535714Y80383096D01*
X32488095Y80287858D01*
X32440476Y80240239D01*
X32345238Y80192620D01*
X32107142Y80192620D01*
X32011904Y80240239D01*
X31964285Y80287858D01*
X9358333Y66317858D02*
X9310714Y66270239D01*
X9167857Y66222620D01*
X9072619Y66222620D01*
X8929761Y66270239D01*
X8834523Y66365477D01*
X8786904Y66460715D01*
X8739285Y66651191D01*
X8739285Y66794048D01*
X8786904Y66984524D01*
X8834523Y67079762D01*
X8929761Y67175000D01*
X9072619Y67222620D01*
X9167857Y67222620D01*
X9310714Y67175000D01*
X9358333Y67127381D01*
X10215476Y67222620D02*
X10025000Y67222620D01*
X9929761Y67175000D01*
X9882142Y67127381D01*
X9786904Y66984524D01*
X9739285Y66794048D01*
X9739285Y66413096D01*
X9786904Y66317858D01*
X9834523Y66270239D01*
X9929761Y66222620D01*
X10120238Y66222620D01*
X10215476Y66270239D01*
X10263095Y66317858D01*
X10310714Y66413096D01*
X10310714Y66651191D01*
X10263095Y66746429D01*
X10215476Y66794048D01*
X10120238Y66841667D01*
X9929761Y66841667D01*
X9834523Y66794048D01*
X9786904Y66746429D01*
X9739285Y66651191D01*
X59523333Y77112858D02*
X59475714Y77065239D01*
X59332857Y77017620D01*
X59237619Y77017620D01*
X59094761Y77065239D01*
X58999523Y77160477D01*
X58951904Y77255715D01*
X58904285Y77446191D01*
X58904285Y77589048D01*
X58951904Y77779524D01*
X58999523Y77874762D01*
X59094761Y77970000D01*
X59237619Y78017620D01*
X59332857Y78017620D01*
X59475714Y77970000D01*
X59523333Y77922381D01*
X59856666Y78017620D02*
X60523333Y78017620D01*
X60094761Y77017620D01*
X31583333Y66317858D02*
X31535714Y66270239D01*
X31392857Y66222620D01*
X31297619Y66222620D01*
X31154761Y66270239D01*
X31059523Y66365477D01*
X31011904Y66460715D01*
X30964285Y66651191D01*
X30964285Y66794048D01*
X31011904Y66984524D01*
X31059523Y67079762D01*
X31154761Y67175000D01*
X31297619Y67222620D01*
X31392857Y67222620D01*
X31535714Y67175000D01*
X31583333Y67127381D01*
X32154761Y66794048D02*
X32059523Y66841667D01*
X32011904Y66889286D01*
X31964285Y66984524D01*
X31964285Y67032143D01*
X32011904Y67127381D01*
X32059523Y67175000D01*
X32154761Y67222620D01*
X32345238Y67222620D01*
X32440476Y67175000D01*
X32488095Y67127381D01*
X32535714Y67032143D01*
X32535714Y66984524D01*
X32488095Y66889286D01*
X32440476Y66841667D01*
X32345238Y66794048D01*
X32154761Y66794048D01*
X32059523Y66746429D01*
X32011904Y66698810D01*
X31964285Y66603572D01*
X31964285Y66413096D01*
X32011904Y66317858D01*
X32059523Y66270239D01*
X32154761Y66222620D01*
X32345238Y66222620D01*
X32440476Y66270239D01*
X32488095Y66317858D01*
X32535714Y66413096D01*
X32535714Y66603572D01*
X32488095Y66698810D01*
X32440476Y66746429D01*
X32345238Y66794048D01*
X82383333Y59967858D02*
X82335714Y59920239D01*
X82192857Y59872620D01*
X82097619Y59872620D01*
X81954761Y59920239D01*
X81859523Y60015477D01*
X81811904Y60110715D01*
X81764285Y60301191D01*
X81764285Y60444048D01*
X81811904Y60634524D01*
X81859523Y60729762D01*
X81954761Y60825000D01*
X82097619Y60872620D01*
X82192857Y60872620D01*
X82335714Y60825000D01*
X82383333Y60777381D01*
X82859523Y59872620D02*
X83050000Y59872620D01*
X83145238Y59920239D01*
X83192857Y59967858D01*
X83288095Y60110715D01*
X83335714Y60301191D01*
X83335714Y60682143D01*
X83288095Y60777381D01*
X83240476Y60825000D01*
X83145238Y60872620D01*
X82954761Y60872620D01*
X82859523Y60825000D01*
X82811904Y60777381D01*
X82764285Y60682143D01*
X82764285Y60444048D01*
X82811904Y60348810D01*
X82859523Y60301191D01*
X82954761Y60253572D01*
X83145238Y60253572D01*
X83240476Y60301191D01*
X83288095Y60348810D01*
X83335714Y60444048D01*
X106672142Y59967858D02*
X106624523Y59920239D01*
X106481666Y59872620D01*
X106386428Y59872620D01*
X106243571Y59920239D01*
X106148333Y60015477D01*
X106100714Y60110715D01*
X106053095Y60301191D01*
X106053095Y60444048D01*
X106100714Y60634524D01*
X106148333Y60729762D01*
X106243571Y60825000D01*
X106386428Y60872620D01*
X106481666Y60872620D01*
X106624523Y60825000D01*
X106672142Y60777381D01*
X107624523Y59872620D02*
X107053095Y59872620D01*
X107338809Y59872620D02*
X107338809Y60872620D01*
X107243571Y60729762D01*
X107148333Y60634524D01*
X107053095Y60586905D01*
X108243571Y60872620D02*
X108338809Y60872620D01*
X108434047Y60825000D01*
X108481666Y60777381D01*
X108529285Y60682143D01*
X108576904Y60491667D01*
X108576904Y60253572D01*
X108529285Y60063096D01*
X108481666Y59967858D01*
X108434047Y59920239D01*
X108338809Y59872620D01*
X108243571Y59872620D01*
X108148333Y59920239D01*
X108100714Y59967858D01*
X108053095Y60063096D01*
X108005476Y60253572D01*
X108005476Y60491667D01*
X108053095Y60682143D01*
X108100714Y60777381D01*
X108148333Y60825000D01*
X108243571Y60872620D01*
X38727142Y52347858D02*
X38679523Y52300239D01*
X38536666Y52252620D01*
X38441428Y52252620D01*
X38298571Y52300239D01*
X38203333Y52395477D01*
X38155714Y52490715D01*
X38108095Y52681191D01*
X38108095Y52824048D01*
X38155714Y53014524D01*
X38203333Y53109762D01*
X38298571Y53205000D01*
X38441428Y53252620D01*
X38536666Y53252620D01*
X38679523Y53205000D01*
X38727142Y53157381D01*
X39679523Y52252620D02*
X39108095Y52252620D01*
X39393809Y52252620D02*
X39393809Y53252620D01*
X39298571Y53109762D01*
X39203333Y53014524D01*
X39108095Y52966905D01*
X40631904Y52252620D02*
X40060476Y52252620D01*
X40346190Y52252620D02*
X40346190Y53252620D01*
X40250952Y53109762D01*
X40155714Y53014524D01*
X40060476Y52966905D01*
X8882142Y52347858D02*
X8834523Y52300239D01*
X8691666Y52252620D01*
X8596428Y52252620D01*
X8453571Y52300239D01*
X8358333Y52395477D01*
X8310714Y52490715D01*
X8263095Y52681191D01*
X8263095Y52824048D01*
X8310714Y53014524D01*
X8358333Y53109762D01*
X8453571Y53205000D01*
X8596428Y53252620D01*
X8691666Y53252620D01*
X8834523Y53205000D01*
X8882142Y53157381D01*
X9834523Y52252620D02*
X9263095Y52252620D01*
X9548809Y52252620D02*
X9548809Y53252620D01*
X9453571Y53109762D01*
X9358333Y53014524D01*
X9263095Y52966905D01*
X10215476Y53157381D02*
X10263095Y53205000D01*
X10358333Y53252620D01*
X10596428Y53252620D01*
X10691666Y53205000D01*
X10739285Y53157381D01*
X10786904Y53062143D01*
X10786904Y52966905D01*
X10739285Y52824048D01*
X10167857Y52252620D01*
X10786904Y52252620D01*
X144792142Y40917858D02*
X144744523Y40870239D01*
X144601666Y40822620D01*
X144506428Y40822620D01*
X144363571Y40870239D01*
X144268333Y40965477D01*
X144220714Y41060715D01*
X144173095Y41251191D01*
X144173095Y41394048D01*
X144220714Y41584524D01*
X144268333Y41679762D01*
X144363571Y41775000D01*
X144506428Y41822620D01*
X144601666Y41822620D01*
X144744523Y41775000D01*
X144792142Y41727381D01*
X145744523Y40822620D02*
X145173095Y40822620D01*
X145458809Y40822620D02*
X145458809Y41822620D01*
X145363571Y41679762D01*
X145268333Y41584524D01*
X145173095Y41536905D01*
X146077857Y41822620D02*
X146696904Y41822620D01*
X146363571Y41441667D01*
X146506428Y41441667D01*
X146601666Y41394048D01*
X146649285Y41346429D01*
X146696904Y41251191D01*
X146696904Y41013096D01*
X146649285Y40917858D01*
X146601666Y40870239D01*
X146506428Y40822620D01*
X146220714Y40822620D01*
X146125476Y40870239D01*
X146077857Y40917858D01*
X46962142Y32027858D02*
X46914523Y31980239D01*
X46771666Y31932620D01*
X46676428Y31932620D01*
X46533571Y31980239D01*
X46438333Y32075477D01*
X46390714Y32170715D01*
X46343095Y32361191D01*
X46343095Y32504048D01*
X46390714Y32694524D01*
X46438333Y32789762D01*
X46533571Y32885000D01*
X46676428Y32932620D01*
X46771666Y32932620D01*
X46914523Y32885000D01*
X46962142Y32837381D01*
X47914523Y31932620D02*
X47343095Y31932620D01*
X47628809Y31932620D02*
X47628809Y32932620D01*
X47533571Y32789762D01*
X47438333Y32694524D01*
X47343095Y32646905D01*
X48771666Y32599286D02*
X48771666Y31932620D01*
X48533571Y32980239D02*
X48295476Y32265953D01*
X48914523Y32265953D01*
X41882142Y32027858D02*
X41834523Y31980239D01*
X41691666Y31932620D01*
X41596428Y31932620D01*
X41453571Y31980239D01*
X41358333Y32075477D01*
X41310714Y32170715D01*
X41263095Y32361191D01*
X41263095Y32504048D01*
X41310714Y32694524D01*
X41358333Y32789762D01*
X41453571Y32885000D01*
X41596428Y32932620D01*
X41691666Y32932620D01*
X41834523Y32885000D01*
X41882142Y32837381D01*
X42834523Y31932620D02*
X42263095Y31932620D01*
X42548809Y31932620D02*
X42548809Y32932620D01*
X42453571Y32789762D01*
X42358333Y32694524D01*
X42263095Y32646905D01*
X43739285Y32932620D02*
X43263095Y32932620D01*
X43215476Y32456429D01*
X43263095Y32504048D01*
X43358333Y32551667D01*
X43596428Y32551667D01*
X43691666Y32504048D01*
X43739285Y32456429D01*
X43786904Y32361191D01*
X43786904Y32123096D01*
X43739285Y32027858D01*
X43691666Y31980239D01*
X43596428Y31932620D01*
X43358333Y31932620D01*
X43263095Y31980239D01*
X43215476Y32027858D01*
X102766904Y89717620D02*
X102766904Y90717620D01*
X103005000Y90717620D01*
X103147857Y90670000D01*
X103243095Y90574762D01*
X103290714Y90479524D01*
X103338333Y90289048D01*
X103338333Y90146191D01*
X103290714Y89955715D01*
X103243095Y89860477D01*
X103147857Y89765239D01*
X103005000Y89717620D01*
X102766904Y89717620D01*
X104290714Y89717620D02*
X103719285Y89717620D01*
X104005000Y89717620D02*
X104005000Y90717620D01*
X103909761Y90574762D01*
X103814523Y90479524D01*
X103719285Y90431905D01*
X115466904Y89717620D02*
X115466904Y90717620D01*
X115705000Y90717620D01*
X115847857Y90670000D01*
X115943095Y90574762D01*
X115990714Y90479524D01*
X116038333Y90289048D01*
X116038333Y90146191D01*
X115990714Y89955715D01*
X115943095Y89860477D01*
X115847857Y89765239D01*
X115705000Y89717620D01*
X115466904Y89717620D01*
X116419285Y90622381D02*
X116466904Y90670000D01*
X116562142Y90717620D01*
X116800238Y90717620D01*
X116895476Y90670000D01*
X116943095Y90622381D01*
X116990714Y90527143D01*
X116990714Y90431905D01*
X116943095Y90289048D01*
X116371666Y89717620D01*
X116990714Y89717620D01*
X127531904Y89717620D02*
X127531904Y90717620D01*
X127770000Y90717620D01*
X127912857Y90670000D01*
X128008095Y90574762D01*
X128055714Y90479524D01*
X128103333Y90289048D01*
X128103333Y90146191D01*
X128055714Y89955715D01*
X128008095Y89860477D01*
X127912857Y89765239D01*
X127770000Y89717620D01*
X127531904Y89717620D01*
X128436666Y90717620D02*
X129055714Y90717620D01*
X128722380Y90336667D01*
X128865238Y90336667D01*
X128960476Y90289048D01*
X129008095Y90241429D01*
X129055714Y90146191D01*
X129055714Y89908096D01*
X129008095Y89812858D01*
X128960476Y89765239D01*
X128865238Y89717620D01*
X128579523Y89717620D01*
X128484285Y89765239D01*
X128436666Y89812858D01*
X90701904Y20502620D02*
X90701904Y21502620D01*
X90940000Y21502620D01*
X91082857Y21455000D01*
X91178095Y21359762D01*
X91225714Y21264524D01*
X91273333Y21074048D01*
X91273333Y20931191D01*
X91225714Y20740715D01*
X91178095Y20645477D01*
X91082857Y20550239D01*
X90940000Y20502620D01*
X90701904Y20502620D01*
X92130476Y21169286D02*
X92130476Y20502620D01*
X91892380Y21550239D02*
X91654285Y20835953D01*
X92273333Y20835953D01*
X97051904Y20502620D02*
X97051904Y21502620D01*
X97290000Y21502620D01*
X97432857Y21455000D01*
X97528095Y21359762D01*
X97575714Y21264524D01*
X97623333Y21074048D01*
X97623333Y20931191D01*
X97575714Y20740715D01*
X97528095Y20645477D01*
X97432857Y20550239D01*
X97290000Y20502620D01*
X97051904Y20502620D01*
X98528095Y21502620D02*
X98051904Y21502620D01*
X98004285Y21026429D01*
X98051904Y21074048D01*
X98147142Y21121667D01*
X98385238Y21121667D01*
X98480476Y21074048D01*
X98528095Y21026429D01*
X98575714Y20931191D01*
X98575714Y20693096D01*
X98528095Y20597858D01*
X98480476Y20550239D01*
X98385238Y20502620D01*
X98147142Y20502620D01*
X98051904Y20550239D01*
X98004285Y20597858D01*
X103401904Y20502620D02*
X103401904Y21502620D01*
X103640000Y21502620D01*
X103782857Y21455000D01*
X103878095Y21359762D01*
X103925714Y21264524D01*
X103973333Y21074048D01*
X103973333Y20931191D01*
X103925714Y20740715D01*
X103878095Y20645477D01*
X103782857Y20550239D01*
X103640000Y20502620D01*
X103401904Y20502620D01*
X104830476Y21502620D02*
X104640000Y21502620D01*
X104544761Y21455000D01*
X104497142Y21407381D01*
X104401904Y21264524D01*
X104354285Y21074048D01*
X104354285Y20693096D01*
X104401904Y20597858D01*
X104449523Y20550239D01*
X104544761Y20502620D01*
X104735238Y20502620D01*
X104830476Y20550239D01*
X104878095Y20597858D01*
X104925714Y20693096D01*
X104925714Y20931191D01*
X104878095Y21026429D01*
X104830476Y21074048D01*
X104735238Y21121667D01*
X104544761Y21121667D01*
X104449523Y21074048D01*
X104401904Y21026429D01*
X104354285Y20931191D01*
X109751904Y20502620D02*
X109751904Y21502620D01*
X109990000Y21502620D01*
X110132857Y21455000D01*
X110228095Y21359762D01*
X110275714Y21264524D01*
X110323333Y21074048D01*
X110323333Y20931191D01*
X110275714Y20740715D01*
X110228095Y20645477D01*
X110132857Y20550239D01*
X109990000Y20502620D01*
X109751904Y20502620D01*
X110656666Y21502620D02*
X111323333Y21502620D01*
X110894761Y20502620D01*
X118641904Y20502620D02*
X118641904Y21502620D01*
X118880000Y21502620D01*
X119022857Y21455000D01*
X119118095Y21359762D01*
X119165714Y21264524D01*
X119213333Y21074048D01*
X119213333Y20931191D01*
X119165714Y20740715D01*
X119118095Y20645477D01*
X119022857Y20550239D01*
X118880000Y20502620D01*
X118641904Y20502620D01*
X119784761Y21074048D02*
X119689523Y21121667D01*
X119641904Y21169286D01*
X119594285Y21264524D01*
X119594285Y21312143D01*
X119641904Y21407381D01*
X119689523Y21455000D01*
X119784761Y21502620D01*
X119975238Y21502620D01*
X120070476Y21455000D01*
X120118095Y21407381D01*
X120165714Y21312143D01*
X120165714Y21264524D01*
X120118095Y21169286D01*
X120070476Y21121667D01*
X119975238Y21074048D01*
X119784761Y21074048D01*
X119689523Y21026429D01*
X119641904Y20978810D01*
X119594285Y20883572D01*
X119594285Y20693096D01*
X119641904Y20597858D01*
X119689523Y20550239D01*
X119784761Y20502620D01*
X119975238Y20502620D01*
X120070476Y20550239D01*
X120118095Y20597858D01*
X120165714Y20693096D01*
X120165714Y20883572D01*
X120118095Y20978810D01*
X120070476Y21026429D01*
X119975238Y21074048D01*
X124991904Y20502620D02*
X124991904Y21502620D01*
X125230000Y21502620D01*
X125372857Y21455000D01*
X125468095Y21359762D01*
X125515714Y21264524D01*
X125563333Y21074048D01*
X125563333Y20931191D01*
X125515714Y20740715D01*
X125468095Y20645477D01*
X125372857Y20550239D01*
X125230000Y20502620D01*
X124991904Y20502620D01*
X126039523Y20502620D02*
X126230000Y20502620D01*
X126325238Y20550239D01*
X126372857Y20597858D01*
X126468095Y20740715D01*
X126515714Y20931191D01*
X126515714Y21312143D01*
X126468095Y21407381D01*
X126420476Y21455000D01*
X126325238Y21502620D01*
X126134761Y21502620D01*
X126039523Y21455000D01*
X125991904Y21407381D01*
X125944285Y21312143D01*
X125944285Y21074048D01*
X125991904Y20978810D01*
X126039523Y20931191D01*
X126134761Y20883572D01*
X126325238Y20883572D01*
X126420476Y20931191D01*
X126468095Y20978810D01*
X126515714Y21074048D01*
X130865714Y20502620D02*
X130865714Y21502620D01*
X131103809Y21502620D01*
X131246666Y21455000D01*
X131341904Y21359762D01*
X131389523Y21264524D01*
X131437142Y21074048D01*
X131437142Y20931191D01*
X131389523Y20740715D01*
X131341904Y20645477D01*
X131246666Y20550239D01*
X131103809Y20502620D01*
X130865714Y20502620D01*
X132389523Y20502620D02*
X131818095Y20502620D01*
X132103809Y20502620D02*
X132103809Y21502620D01*
X132008571Y21359762D01*
X131913333Y21264524D01*
X131818095Y21216905D01*
X133008571Y21502620D02*
X133103809Y21502620D01*
X133199047Y21455000D01*
X133246666Y21407381D01*
X133294285Y21312143D01*
X133341904Y21121667D01*
X133341904Y20883572D01*
X133294285Y20693096D01*
X133246666Y20597858D01*
X133199047Y20550239D01*
X133103809Y20502620D01*
X133008571Y20502620D01*
X132913333Y20550239D01*
X132865714Y20597858D01*
X132818095Y20693096D01*
X132770476Y20883572D01*
X132770476Y21121667D01*
X132818095Y21312143D01*
X132865714Y21407381D01*
X132913333Y21455000D01*
X133008571Y21502620D01*
X137215714Y20502620D02*
X137215714Y21502620D01*
X137453809Y21502620D01*
X137596666Y21455000D01*
X137691904Y21359762D01*
X137739523Y21264524D01*
X137787142Y21074048D01*
X137787142Y20931191D01*
X137739523Y20740715D01*
X137691904Y20645477D01*
X137596666Y20550239D01*
X137453809Y20502620D01*
X137215714Y20502620D01*
X138739523Y20502620D02*
X138168095Y20502620D01*
X138453809Y20502620D02*
X138453809Y21502620D01*
X138358571Y21359762D01*
X138263333Y21264524D01*
X138168095Y21216905D01*
X139691904Y20502620D02*
X139120476Y20502620D01*
X139406190Y20502620D02*
X139406190Y21502620D01*
X139310952Y21359762D01*
X139215714Y21264524D01*
X139120476Y21216905D01*
X142541666Y72302620D02*
X142541666Y71588334D01*
X142494047Y71445477D01*
X142398809Y71350239D01*
X142255952Y71302620D01*
X142160714Y71302620D01*
X143541666Y71302620D02*
X142970238Y71302620D01*
X143255952Y71302620D02*
X143255952Y72302620D01*
X143160714Y72159762D01*
X143065476Y72064524D01*
X142970238Y72016905D01*
X110323333Y78922620D02*
X109990000Y79398810D01*
X109751904Y78922620D02*
X109751904Y79922620D01*
X110132857Y79922620D01*
X110228095Y79875000D01*
X110275714Y79827381D01*
X110323333Y79732143D01*
X110323333Y79589286D01*
X110275714Y79494048D01*
X110228095Y79446429D01*
X110132857Y79398810D01*
X109751904Y79398810D01*
X110704285Y79827381D02*
X110751904Y79875000D01*
X110847142Y79922620D01*
X111085238Y79922620D01*
X111180476Y79875000D01*
X111228095Y79827381D01*
X111275714Y79732143D01*
X111275714Y79636905D01*
X111228095Y79494048D01*
X110656666Y78922620D01*
X111275714Y78922620D01*
X138898333Y84002620D02*
X138565000Y84478810D01*
X138326904Y84002620D02*
X138326904Y85002620D01*
X138707857Y85002620D01*
X138803095Y84955000D01*
X138850714Y84907381D01*
X138898333Y84812143D01*
X138898333Y84669286D01*
X138850714Y84574048D01*
X138803095Y84526429D01*
X138707857Y84478810D01*
X138326904Y84478810D01*
X139231666Y85002620D02*
X139850714Y85002620D01*
X139517380Y84621667D01*
X139660238Y84621667D01*
X139755476Y84574048D01*
X139803095Y84526429D01*
X139850714Y84431191D01*
X139850714Y84193096D01*
X139803095Y84097858D01*
X139755476Y84050239D01*
X139660238Y84002620D01*
X139374523Y84002620D01*
X139279285Y84050239D01*
X139231666Y84097858D01*
X105878333Y78922620D02*
X105545000Y79398810D01*
X105306904Y78922620D02*
X105306904Y79922620D01*
X105687857Y79922620D01*
X105783095Y79875000D01*
X105830714Y79827381D01*
X105878333Y79732143D01*
X105878333Y79589286D01*
X105830714Y79494048D01*
X105783095Y79446429D01*
X105687857Y79398810D01*
X105306904Y79398810D01*
X106783095Y79922620D02*
X106306904Y79922620D01*
X106259285Y79446429D01*
X106306904Y79494048D01*
X106402142Y79541667D01*
X106640238Y79541667D01*
X106735476Y79494048D01*
X106783095Y79446429D01*
X106830714Y79351191D01*
X106830714Y79113096D01*
X106783095Y79017858D01*
X106735476Y78970239D01*
X106640238Y78922620D01*
X106402142Y78922620D01*
X106306904Y78970239D01*
X106259285Y79017858D01*
X38092142Y7167620D02*
X37758809Y7643810D01*
X37520714Y7167620D02*
X37520714Y8167620D01*
X37901666Y8167620D01*
X37996904Y8120000D01*
X38044523Y8072381D01*
X38092142Y7977143D01*
X38092142Y7834286D01*
X38044523Y7739048D01*
X37996904Y7691429D01*
X37901666Y7643810D01*
X37520714Y7643810D01*
X39044523Y7167620D02*
X38473095Y7167620D01*
X38758809Y7167620D02*
X38758809Y8167620D01*
X38663571Y8024762D01*
X38568333Y7929524D01*
X38473095Y7881905D01*
X39996904Y7167620D02*
X39425476Y7167620D01*
X39711190Y7167620D02*
X39711190Y8167620D01*
X39615952Y8024762D01*
X39520714Y7929524D01*
X39425476Y7881905D01*
X76827142Y37012620D02*
X76493809Y37488810D01*
X76255714Y37012620D02*
X76255714Y38012620D01*
X76636666Y38012620D01*
X76731904Y37965000D01*
X76779523Y37917381D01*
X76827142Y37822143D01*
X76827142Y37679286D01*
X76779523Y37584048D01*
X76731904Y37536429D01*
X76636666Y37488810D01*
X76255714Y37488810D01*
X77779523Y37012620D02*
X77208095Y37012620D01*
X77493809Y37012620D02*
X77493809Y38012620D01*
X77398571Y37869762D01*
X77303333Y37774524D01*
X77208095Y37726905D01*
X78160476Y37917381D02*
X78208095Y37965000D01*
X78303333Y38012620D01*
X78541428Y38012620D01*
X78636666Y37965000D01*
X78684285Y37917381D01*
X78731904Y37822143D01*
X78731904Y37726905D01*
X78684285Y37584048D01*
X78112857Y37012620D01*
X78731904Y37012620D01*
X38092142Y40187620D02*
X37758809Y40663810D01*
X37520714Y40187620D02*
X37520714Y41187620D01*
X37901666Y41187620D01*
X37996904Y41140000D01*
X38044523Y41092381D01*
X38092142Y40997143D01*
X38092142Y40854286D01*
X38044523Y40759048D01*
X37996904Y40711429D01*
X37901666Y40663810D01*
X37520714Y40663810D01*
X39044523Y40187620D02*
X38473095Y40187620D01*
X38758809Y40187620D02*
X38758809Y41187620D01*
X38663571Y41044762D01*
X38568333Y40949524D01*
X38473095Y40901905D01*
X39377857Y41187620D02*
X39996904Y41187620D01*
X39663571Y40806667D01*
X39806428Y40806667D01*
X39901666Y40759048D01*
X39949285Y40711429D01*
X39996904Y40616191D01*
X39996904Y40378096D01*
X39949285Y40282858D01*
X39901666Y40235239D01*
X39806428Y40187620D01*
X39520714Y40187620D01*
X39425476Y40235239D01*
X39377857Y40282858D01*
X38092142Y36377620D02*
X37758809Y36853810D01*
X37520714Y36377620D02*
X37520714Y37377620D01*
X37901666Y37377620D01*
X37996904Y37330000D01*
X38044523Y37282381D01*
X38092142Y37187143D01*
X38092142Y37044286D01*
X38044523Y36949048D01*
X37996904Y36901429D01*
X37901666Y36853810D01*
X37520714Y36853810D01*
X39044523Y36377620D02*
X38473095Y36377620D01*
X38758809Y36377620D02*
X38758809Y37377620D01*
X38663571Y37234762D01*
X38568333Y37139524D01*
X38473095Y37091905D01*
X39901666Y37044286D02*
X39901666Y36377620D01*
X39663571Y37425239D02*
X39425476Y36710953D01*
X40044523Y36710953D01*
X111752142Y94162620D02*
X111418809Y94638810D01*
X111180714Y94162620D02*
X111180714Y95162620D01*
X111561666Y95162620D01*
X111656904Y95115000D01*
X111704523Y95067381D01*
X111752142Y94972143D01*
X111752142Y94829286D01*
X111704523Y94734048D01*
X111656904Y94686429D01*
X111561666Y94638810D01*
X111180714Y94638810D01*
X112704523Y94162620D02*
X112133095Y94162620D01*
X112418809Y94162620D02*
X112418809Y95162620D01*
X112323571Y95019762D01*
X112228333Y94924524D01*
X112133095Y94876905D01*
X113609285Y95162620D02*
X113133095Y95162620D01*
X113085476Y94686429D01*
X113133095Y94734048D01*
X113228333Y94781667D01*
X113466428Y94781667D01*
X113561666Y94734048D01*
X113609285Y94686429D01*
X113656904Y94591191D01*
X113656904Y94353096D01*
X113609285Y94257858D01*
X113561666Y94210239D01*
X113466428Y94162620D01*
X113228333Y94162620D01*
X113133095Y94210239D01*
X113085476Y94257858D01*
X121912142Y97972620D02*
X121578809Y98448810D01*
X121340714Y97972620D02*
X121340714Y98972620D01*
X121721666Y98972620D01*
X121816904Y98925000D01*
X121864523Y98877381D01*
X121912142Y98782143D01*
X121912142Y98639286D01*
X121864523Y98544048D01*
X121816904Y98496429D01*
X121721666Y98448810D01*
X121340714Y98448810D01*
X122864523Y97972620D02*
X122293095Y97972620D01*
X122578809Y97972620D02*
X122578809Y98972620D01*
X122483571Y98829762D01*
X122388333Y98734524D01*
X122293095Y98686905D01*
X123721666Y98972620D02*
X123531190Y98972620D01*
X123435952Y98925000D01*
X123388333Y98877381D01*
X123293095Y98734524D01*
X123245476Y98544048D01*
X123245476Y98163096D01*
X123293095Y98067858D01*
X123340714Y98020239D01*
X123435952Y97972620D01*
X123626428Y97972620D01*
X123721666Y98020239D01*
X123769285Y98067858D01*
X123816904Y98163096D01*
X123816904Y98401191D01*
X123769285Y98496429D01*
X123721666Y98544048D01*
X123626428Y98591667D01*
X123435952Y98591667D01*
X123340714Y98544048D01*
X123293095Y98496429D01*
X123245476Y98401191D01*
X131437142Y94162620D02*
X131103809Y94638810D01*
X130865714Y94162620D02*
X130865714Y95162620D01*
X131246666Y95162620D01*
X131341904Y95115000D01*
X131389523Y95067381D01*
X131437142Y94972143D01*
X131437142Y94829286D01*
X131389523Y94734048D01*
X131341904Y94686429D01*
X131246666Y94638810D01*
X130865714Y94638810D01*
X132389523Y94162620D02*
X131818095Y94162620D01*
X132103809Y94162620D02*
X132103809Y95162620D01*
X132008571Y95019762D01*
X131913333Y94924524D01*
X131818095Y94876905D01*
X132722857Y95162620D02*
X133389523Y95162620D01*
X132960952Y94162620D01*
X144018095Y51030239D02*
X144160952Y50982620D01*
X144399047Y50982620D01*
X144494285Y51030239D01*
X144541904Y51077858D01*
X144589523Y51173096D01*
X144589523Y51268334D01*
X144541904Y51363572D01*
X144494285Y51411191D01*
X144399047Y51458810D01*
X144208571Y51506429D01*
X144113333Y51554048D01*
X144065714Y51601667D01*
X144018095Y51696905D01*
X144018095Y51792143D01*
X144065714Y51887381D01*
X144113333Y51935000D01*
X144208571Y51982620D01*
X144446666Y51982620D01*
X144589523Y51935000D01*
X145541904Y50982620D02*
X144970476Y50982620D01*
X145256190Y50982620D02*
X145256190Y51982620D01*
X145160952Y51839762D01*
X145065714Y51744524D01*
X144970476Y51696905D01*
X10811666Y35310239D02*
X10954523Y35262620D01*
X11192619Y35262620D01*
X11287857Y35310239D01*
X11335476Y35357858D01*
X11383095Y35453096D01*
X11383095Y35548334D01*
X11335476Y35643572D01*
X11287857Y35691191D01*
X11192619Y35738810D01*
X11002142Y35786429D01*
X10906904Y35834048D01*
X10859285Y35881667D01*
X10811666Y35976905D01*
X10811666Y36072143D01*
X10859285Y36167381D01*
X10906904Y36215000D01*
X11002142Y36262620D01*
X11240238Y36262620D01*
X11383095Y36215000D01*
X11716428Y36262620D02*
X11954523Y35262620D01*
X12145000Y35976905D01*
X12335476Y35262620D01*
X12573571Y36262620D01*
X13478333Y35262620D02*
X12906904Y35262620D01*
X13192619Y35262620D02*
X13192619Y36262620D01*
X13097380Y36119762D01*
X13002142Y36024524D01*
X12906904Y35976905D01*
X130111666Y72620239D02*
X130254523Y72572620D01*
X130492619Y72572620D01*
X130587857Y72620239D01*
X130635476Y72667858D01*
X130683095Y72763096D01*
X130683095Y72858334D01*
X130635476Y72953572D01*
X130587857Y73001191D01*
X130492619Y73048810D01*
X130302142Y73096429D01*
X130206904Y73144048D01*
X130159285Y73191667D01*
X130111666Y73286905D01*
X130111666Y73382143D01*
X130159285Y73477381D01*
X130206904Y73525000D01*
X130302142Y73572620D01*
X130540238Y73572620D01*
X130683095Y73525000D01*
X131016428Y73572620D02*
X131254523Y72572620D01*
X131445000Y73286905D01*
X131635476Y72572620D01*
X131873571Y73572620D01*
X132206904Y73477381D02*
X132254523Y73525000D01*
X132349761Y73572620D01*
X132587857Y73572620D01*
X132683095Y73525000D01*
X132730714Y73477381D01*
X132778333Y73382143D01*
X132778333Y73286905D01*
X132730714Y73144048D01*
X132159285Y72572620D01*
X132778333Y72572620D01*
X118046666Y72620239D02*
X118189523Y72572620D01*
X118427619Y72572620D01*
X118522857Y72620239D01*
X118570476Y72667858D01*
X118618095Y72763096D01*
X118618095Y72858334D01*
X118570476Y72953572D01*
X118522857Y73001191D01*
X118427619Y73048810D01*
X118237142Y73096429D01*
X118141904Y73144048D01*
X118094285Y73191667D01*
X118046666Y73286905D01*
X118046666Y73382143D01*
X118094285Y73477381D01*
X118141904Y73525000D01*
X118237142Y73572620D01*
X118475238Y73572620D01*
X118618095Y73525000D01*
X118951428Y73572620D02*
X119189523Y72572620D01*
X119380000Y73286905D01*
X119570476Y72572620D01*
X119808571Y73572620D01*
X120618095Y73572620D02*
X120427619Y73572620D01*
X120332380Y73525000D01*
X120284761Y73477381D01*
X120189523Y73334524D01*
X120141904Y73144048D01*
X120141904Y72763096D01*
X120189523Y72667858D01*
X120237142Y72620239D01*
X120332380Y72572620D01*
X120522857Y72572620D01*
X120618095Y72620239D01*
X120665714Y72667858D01*
X120713333Y72763096D01*
X120713333Y73001191D01*
X120665714Y73096429D01*
X120618095Y73144048D01*
X120522857Y73191667D01*
X120332380Y73191667D01*
X120237142Y73144048D01*
X120189523Y73096429D01*
X120141904Y73001191D01*
X90106666Y15470239D02*
X90249523Y15422620D01*
X90487619Y15422620D01*
X90582857Y15470239D01*
X90630476Y15517858D01*
X90678095Y15613096D01*
X90678095Y15708334D01*
X90630476Y15803572D01*
X90582857Y15851191D01*
X90487619Y15898810D01*
X90297142Y15946429D01*
X90201904Y15994048D01*
X90154285Y16041667D01*
X90106666Y16136905D01*
X90106666Y16232143D01*
X90154285Y16327381D01*
X90201904Y16375000D01*
X90297142Y16422620D01*
X90535238Y16422620D01*
X90678095Y16375000D01*
X91011428Y16422620D02*
X91249523Y15422620D01*
X91440000Y16136905D01*
X91630476Y15422620D01*
X91868571Y16422620D01*
X92154285Y16422620D02*
X92820952Y16422620D01*
X92392380Y15422620D01*
X96456666Y15470239D02*
X96599523Y15422620D01*
X96837619Y15422620D01*
X96932857Y15470239D01*
X96980476Y15517858D01*
X97028095Y15613096D01*
X97028095Y15708334D01*
X96980476Y15803572D01*
X96932857Y15851191D01*
X96837619Y15898810D01*
X96647142Y15946429D01*
X96551904Y15994048D01*
X96504285Y16041667D01*
X96456666Y16136905D01*
X96456666Y16232143D01*
X96504285Y16327381D01*
X96551904Y16375000D01*
X96647142Y16422620D01*
X96885238Y16422620D01*
X97028095Y16375000D01*
X97361428Y16422620D02*
X97599523Y15422620D01*
X97790000Y16136905D01*
X97980476Y15422620D01*
X98218571Y16422620D01*
X98742380Y15994048D02*
X98647142Y16041667D01*
X98599523Y16089286D01*
X98551904Y16184524D01*
X98551904Y16232143D01*
X98599523Y16327381D01*
X98647142Y16375000D01*
X98742380Y16422620D01*
X98932857Y16422620D01*
X99028095Y16375000D01*
X99075714Y16327381D01*
X99123333Y16232143D01*
X99123333Y16184524D01*
X99075714Y16089286D01*
X99028095Y16041667D01*
X98932857Y15994048D01*
X98742380Y15994048D01*
X98647142Y15946429D01*
X98599523Y15898810D01*
X98551904Y15803572D01*
X98551904Y15613096D01*
X98599523Y15517858D01*
X98647142Y15470239D01*
X98742380Y15422620D01*
X98932857Y15422620D01*
X99028095Y15470239D01*
X99075714Y15517858D01*
X99123333Y15613096D01*
X99123333Y15803572D01*
X99075714Y15898810D01*
X99028095Y15946429D01*
X98932857Y15994048D01*
X102806666Y15470239D02*
X102949523Y15422620D01*
X103187619Y15422620D01*
X103282857Y15470239D01*
X103330476Y15517858D01*
X103378095Y15613096D01*
X103378095Y15708334D01*
X103330476Y15803572D01*
X103282857Y15851191D01*
X103187619Y15898810D01*
X102997142Y15946429D01*
X102901904Y15994048D01*
X102854285Y16041667D01*
X102806666Y16136905D01*
X102806666Y16232143D01*
X102854285Y16327381D01*
X102901904Y16375000D01*
X102997142Y16422620D01*
X103235238Y16422620D01*
X103378095Y16375000D01*
X103711428Y16422620D02*
X103949523Y15422620D01*
X104140000Y16136905D01*
X104330476Y15422620D01*
X104568571Y16422620D01*
X104997142Y15422620D02*
X105187619Y15422620D01*
X105282857Y15470239D01*
X105330476Y15517858D01*
X105425714Y15660715D01*
X105473333Y15851191D01*
X105473333Y16232143D01*
X105425714Y16327381D01*
X105378095Y16375000D01*
X105282857Y16422620D01*
X105092380Y16422620D01*
X104997142Y16375000D01*
X104949523Y16327381D01*
X104901904Y16232143D01*
X104901904Y15994048D01*
X104949523Y15898810D01*
X104997142Y15851191D01*
X105092380Y15803572D01*
X105282857Y15803572D01*
X105378095Y15851191D01*
X105425714Y15898810D01*
X105473333Y15994048D01*
X108680476Y15470239D02*
X108823333Y15422620D01*
X109061428Y15422620D01*
X109156666Y15470239D01*
X109204285Y15517858D01*
X109251904Y15613096D01*
X109251904Y15708334D01*
X109204285Y15803572D01*
X109156666Y15851191D01*
X109061428Y15898810D01*
X108870952Y15946429D01*
X108775714Y15994048D01*
X108728095Y16041667D01*
X108680476Y16136905D01*
X108680476Y16232143D01*
X108728095Y16327381D01*
X108775714Y16375000D01*
X108870952Y16422620D01*
X109109047Y16422620D01*
X109251904Y16375000D01*
X109585238Y16422620D02*
X109823333Y15422620D01*
X110013809Y16136905D01*
X110204285Y15422620D01*
X110442380Y16422620D01*
X111347142Y15422620D02*
X110775714Y15422620D01*
X111061428Y15422620D02*
X111061428Y16422620D01*
X110966190Y16279762D01*
X110870952Y16184524D01*
X110775714Y16136905D01*
X111966190Y16422620D02*
X112061428Y16422620D01*
X112156666Y16375000D01*
X112204285Y16327381D01*
X112251904Y16232143D01*
X112299523Y16041667D01*
X112299523Y15803572D01*
X112251904Y15613096D01*
X112204285Y15517858D01*
X112156666Y15470239D01*
X112061428Y15422620D01*
X111966190Y15422620D01*
X111870952Y15470239D01*
X111823333Y15517858D01*
X111775714Y15613096D01*
X111728095Y15803572D01*
X111728095Y16041667D01*
X111775714Y16232143D01*
X111823333Y16327381D01*
X111870952Y16375000D01*
X111966190Y16422620D01*
X117570476Y15470239D02*
X117713333Y15422620D01*
X117951428Y15422620D01*
X118046666Y15470239D01*
X118094285Y15517858D01*
X118141904Y15613096D01*
X118141904Y15708334D01*
X118094285Y15803572D01*
X118046666Y15851191D01*
X117951428Y15898810D01*
X117760952Y15946429D01*
X117665714Y15994048D01*
X117618095Y16041667D01*
X117570476Y16136905D01*
X117570476Y16232143D01*
X117618095Y16327381D01*
X117665714Y16375000D01*
X117760952Y16422620D01*
X117999047Y16422620D01*
X118141904Y16375000D01*
X118475238Y16422620D02*
X118713333Y15422620D01*
X118903809Y16136905D01*
X119094285Y15422620D01*
X119332380Y16422620D01*
X120237142Y15422620D02*
X119665714Y15422620D01*
X119951428Y15422620D02*
X119951428Y16422620D01*
X119856190Y16279762D01*
X119760952Y16184524D01*
X119665714Y16136905D01*
X121189523Y15422620D02*
X120618095Y15422620D01*
X120903809Y15422620D02*
X120903809Y16422620D01*
X120808571Y16279762D01*
X120713333Y16184524D01*
X120618095Y16136905D01*
X123920476Y15470239D02*
X124063333Y15422620D01*
X124301428Y15422620D01*
X124396666Y15470239D01*
X124444285Y15517858D01*
X124491904Y15613096D01*
X124491904Y15708334D01*
X124444285Y15803572D01*
X124396666Y15851191D01*
X124301428Y15898810D01*
X124110952Y15946429D01*
X124015714Y15994048D01*
X123968095Y16041667D01*
X123920476Y16136905D01*
X123920476Y16232143D01*
X123968095Y16327381D01*
X124015714Y16375000D01*
X124110952Y16422620D01*
X124349047Y16422620D01*
X124491904Y16375000D01*
X124825238Y16422620D02*
X125063333Y15422620D01*
X125253809Y16136905D01*
X125444285Y15422620D01*
X125682380Y16422620D01*
X126587142Y15422620D02*
X126015714Y15422620D01*
X126301428Y15422620D02*
X126301428Y16422620D01*
X126206190Y16279762D01*
X126110952Y16184524D01*
X126015714Y16136905D01*
X126968095Y16327381D02*
X127015714Y16375000D01*
X127110952Y16422620D01*
X127349047Y16422620D01*
X127444285Y16375000D01*
X127491904Y16327381D01*
X127539523Y16232143D01*
X127539523Y16136905D01*
X127491904Y15994048D01*
X126920476Y15422620D01*
X127539523Y15422620D01*
X130270476Y15470239D02*
X130413333Y15422620D01*
X130651428Y15422620D01*
X130746666Y15470239D01*
X130794285Y15517858D01*
X130841904Y15613096D01*
X130841904Y15708334D01*
X130794285Y15803572D01*
X130746666Y15851191D01*
X130651428Y15898810D01*
X130460952Y15946429D01*
X130365714Y15994048D01*
X130318095Y16041667D01*
X130270476Y16136905D01*
X130270476Y16232143D01*
X130318095Y16327381D01*
X130365714Y16375000D01*
X130460952Y16422620D01*
X130699047Y16422620D01*
X130841904Y16375000D01*
X131175238Y16422620D02*
X131413333Y15422620D01*
X131603809Y16136905D01*
X131794285Y15422620D01*
X132032380Y16422620D01*
X132937142Y15422620D02*
X132365714Y15422620D01*
X132651428Y15422620D02*
X132651428Y16422620D01*
X132556190Y16279762D01*
X132460952Y16184524D01*
X132365714Y16136905D01*
X133270476Y16422620D02*
X133889523Y16422620D01*
X133556190Y16041667D01*
X133699047Y16041667D01*
X133794285Y15994048D01*
X133841904Y15946429D01*
X133889523Y15851191D01*
X133889523Y15613096D01*
X133841904Y15517858D01*
X133794285Y15470239D01*
X133699047Y15422620D01*
X133413333Y15422620D01*
X133318095Y15470239D01*
X133270476Y15517858D01*
X136620476Y15470239D02*
X136763333Y15422620D01*
X137001428Y15422620D01*
X137096666Y15470239D01*
X137144285Y15517858D01*
X137191904Y15613096D01*
X137191904Y15708334D01*
X137144285Y15803572D01*
X137096666Y15851191D01*
X137001428Y15898810D01*
X136810952Y15946429D01*
X136715714Y15994048D01*
X136668095Y16041667D01*
X136620476Y16136905D01*
X136620476Y16232143D01*
X136668095Y16327381D01*
X136715714Y16375000D01*
X136810952Y16422620D01*
X137049047Y16422620D01*
X137191904Y16375000D01*
X137525238Y16422620D02*
X137763333Y15422620D01*
X137953809Y16136905D01*
X138144285Y15422620D01*
X138382380Y16422620D01*
X139287142Y15422620D02*
X138715714Y15422620D01*
X139001428Y15422620D02*
X139001428Y16422620D01*
X138906190Y16279762D01*
X138810952Y16184524D01*
X138715714Y16136905D01*
X140144285Y16089286D02*
X140144285Y15422620D01*
X139906190Y16470239D02*
X139668095Y15755953D01*
X140287142Y15755953D01*
X89630476Y33625239D02*
X89773333Y33577620D01*
X90011428Y33577620D01*
X90106666Y33625239D01*
X90154285Y33672858D01*
X90201904Y33768096D01*
X90201904Y33863334D01*
X90154285Y33958572D01*
X90106666Y34006191D01*
X90011428Y34053810D01*
X89820952Y34101429D01*
X89725714Y34149048D01*
X89678095Y34196667D01*
X89630476Y34291905D01*
X89630476Y34387143D01*
X89678095Y34482381D01*
X89725714Y34530000D01*
X89820952Y34577620D01*
X90059047Y34577620D01*
X90201904Y34530000D01*
X90535238Y34577620D02*
X90773333Y33577620D01*
X90963809Y34291905D01*
X91154285Y33577620D01*
X91392380Y34577620D01*
X92297142Y33577620D02*
X91725714Y33577620D01*
X92011428Y33577620D02*
X92011428Y34577620D01*
X91916190Y34434762D01*
X91820952Y34339524D01*
X91725714Y34291905D01*
X93201904Y34577620D02*
X92725714Y34577620D01*
X92678095Y34101429D01*
X92725714Y34149048D01*
X92820952Y34196667D01*
X93059047Y34196667D01*
X93154285Y34149048D01*
X93201904Y34101429D01*
X93249523Y34006191D01*
X93249523Y33768096D01*
X93201904Y33672858D01*
X93154285Y33625239D01*
X93059047Y33577620D01*
X92820952Y33577620D01*
X92725714Y33625239D01*
X92678095Y33672858D01*
X95980476Y33625239D02*
X96123333Y33577620D01*
X96361428Y33577620D01*
X96456666Y33625239D01*
X96504285Y33672858D01*
X96551904Y33768096D01*
X96551904Y33863334D01*
X96504285Y33958572D01*
X96456666Y34006191D01*
X96361428Y34053810D01*
X96170952Y34101429D01*
X96075714Y34149048D01*
X96028095Y34196667D01*
X95980476Y34291905D01*
X95980476Y34387143D01*
X96028095Y34482381D01*
X96075714Y34530000D01*
X96170952Y34577620D01*
X96409047Y34577620D01*
X96551904Y34530000D01*
X96885238Y34577620D02*
X97123333Y33577620D01*
X97313809Y34291905D01*
X97504285Y33577620D01*
X97742380Y34577620D01*
X98647142Y33577620D02*
X98075714Y33577620D01*
X98361428Y33577620D02*
X98361428Y34577620D01*
X98266190Y34434762D01*
X98170952Y34339524D01*
X98075714Y34291905D01*
X99504285Y34577620D02*
X99313809Y34577620D01*
X99218571Y34530000D01*
X99170952Y34482381D01*
X99075714Y34339524D01*
X99028095Y34149048D01*
X99028095Y33768096D01*
X99075714Y33672858D01*
X99123333Y33625239D01*
X99218571Y33577620D01*
X99409047Y33577620D01*
X99504285Y33625239D01*
X99551904Y33672858D01*
X99599523Y33768096D01*
X99599523Y34006191D01*
X99551904Y34101429D01*
X99504285Y34149048D01*
X99409047Y34196667D01*
X99218571Y34196667D01*
X99123333Y34149048D01*
X99075714Y34101429D01*
X99028095Y34006191D01*
X102330476Y33625239D02*
X102473333Y33577620D01*
X102711428Y33577620D01*
X102806666Y33625239D01*
X102854285Y33672858D01*
X102901904Y33768096D01*
X102901904Y33863334D01*
X102854285Y33958572D01*
X102806666Y34006191D01*
X102711428Y34053810D01*
X102520952Y34101429D01*
X102425714Y34149048D01*
X102378095Y34196667D01*
X102330476Y34291905D01*
X102330476Y34387143D01*
X102378095Y34482381D01*
X102425714Y34530000D01*
X102520952Y34577620D01*
X102759047Y34577620D01*
X102901904Y34530000D01*
X103235238Y34577620D02*
X103473333Y33577620D01*
X103663809Y34291905D01*
X103854285Y33577620D01*
X104092380Y34577620D01*
X104997142Y33577620D02*
X104425714Y33577620D01*
X104711428Y33577620D02*
X104711428Y34577620D01*
X104616190Y34434762D01*
X104520952Y34339524D01*
X104425714Y34291905D01*
X105330476Y34577620D02*
X105997142Y34577620D01*
X105568571Y33577620D01*
X108680476Y33625239D02*
X108823333Y33577620D01*
X109061428Y33577620D01*
X109156666Y33625239D01*
X109204285Y33672858D01*
X109251904Y33768096D01*
X109251904Y33863334D01*
X109204285Y33958572D01*
X109156666Y34006191D01*
X109061428Y34053810D01*
X108870952Y34101429D01*
X108775714Y34149048D01*
X108728095Y34196667D01*
X108680476Y34291905D01*
X108680476Y34387143D01*
X108728095Y34482381D01*
X108775714Y34530000D01*
X108870952Y34577620D01*
X109109047Y34577620D01*
X109251904Y34530000D01*
X109585238Y34577620D02*
X109823333Y33577620D01*
X110013809Y34291905D01*
X110204285Y33577620D01*
X110442380Y34577620D01*
X111347142Y33577620D02*
X110775714Y33577620D01*
X111061428Y33577620D02*
X111061428Y34577620D01*
X110966190Y34434762D01*
X110870952Y34339524D01*
X110775714Y34291905D01*
X111918571Y34149048D02*
X111823333Y34196667D01*
X111775714Y34244286D01*
X111728095Y34339524D01*
X111728095Y34387143D01*
X111775714Y34482381D01*
X111823333Y34530000D01*
X111918571Y34577620D01*
X112109047Y34577620D01*
X112204285Y34530000D01*
X112251904Y34482381D01*
X112299523Y34387143D01*
X112299523Y34339524D01*
X112251904Y34244286D01*
X112204285Y34196667D01*
X112109047Y34149048D01*
X111918571Y34149048D01*
X111823333Y34101429D01*
X111775714Y34053810D01*
X111728095Y33958572D01*
X111728095Y33768096D01*
X111775714Y33672858D01*
X111823333Y33625239D01*
X111918571Y33577620D01*
X112109047Y33577620D01*
X112204285Y33625239D01*
X112251904Y33672858D01*
X112299523Y33768096D01*
X112299523Y33958572D01*
X112251904Y34053810D01*
X112204285Y34101429D01*
X112109047Y34149048D01*
X117570476Y33625239D02*
X117713333Y33577620D01*
X117951428Y33577620D01*
X118046666Y33625239D01*
X118094285Y33672858D01*
X118141904Y33768096D01*
X118141904Y33863334D01*
X118094285Y33958572D01*
X118046666Y34006191D01*
X117951428Y34053810D01*
X117760952Y34101429D01*
X117665714Y34149048D01*
X117618095Y34196667D01*
X117570476Y34291905D01*
X117570476Y34387143D01*
X117618095Y34482381D01*
X117665714Y34530000D01*
X117760952Y34577620D01*
X117999047Y34577620D01*
X118141904Y34530000D01*
X118475238Y34577620D02*
X118713333Y33577620D01*
X118903809Y34291905D01*
X119094285Y33577620D01*
X119332380Y34577620D01*
X120237142Y33577620D02*
X119665714Y33577620D01*
X119951428Y33577620D02*
X119951428Y34577620D01*
X119856190Y34434762D01*
X119760952Y34339524D01*
X119665714Y34291905D01*
X120713333Y33577620D02*
X120903809Y33577620D01*
X120999047Y33625239D01*
X121046666Y33672858D01*
X121141904Y33815715D01*
X121189523Y34006191D01*
X121189523Y34387143D01*
X121141904Y34482381D01*
X121094285Y34530000D01*
X120999047Y34577620D01*
X120808571Y34577620D01*
X120713333Y34530000D01*
X120665714Y34482381D01*
X120618095Y34387143D01*
X120618095Y34149048D01*
X120665714Y34053810D01*
X120713333Y34006191D01*
X120808571Y33958572D01*
X120999047Y33958572D01*
X121094285Y34006191D01*
X121141904Y34053810D01*
X121189523Y34149048D01*
X123920476Y33625239D02*
X124063333Y33577620D01*
X124301428Y33577620D01*
X124396666Y33625239D01*
X124444285Y33672858D01*
X124491904Y33768096D01*
X124491904Y33863334D01*
X124444285Y33958572D01*
X124396666Y34006191D01*
X124301428Y34053810D01*
X124110952Y34101429D01*
X124015714Y34149048D01*
X123968095Y34196667D01*
X123920476Y34291905D01*
X123920476Y34387143D01*
X123968095Y34482381D01*
X124015714Y34530000D01*
X124110952Y34577620D01*
X124349047Y34577620D01*
X124491904Y34530000D01*
X124825238Y34577620D02*
X125063333Y33577620D01*
X125253809Y34291905D01*
X125444285Y33577620D01*
X125682380Y34577620D01*
X126015714Y34482381D02*
X126063333Y34530000D01*
X126158571Y34577620D01*
X126396666Y34577620D01*
X126491904Y34530000D01*
X126539523Y34482381D01*
X126587142Y34387143D01*
X126587142Y34291905D01*
X126539523Y34149048D01*
X125968095Y33577620D01*
X126587142Y33577620D01*
X127206190Y34577620D02*
X127301428Y34577620D01*
X127396666Y34530000D01*
X127444285Y34482381D01*
X127491904Y34387143D01*
X127539523Y34196667D01*
X127539523Y33958572D01*
X127491904Y33768096D01*
X127444285Y33672858D01*
X127396666Y33625239D01*
X127301428Y33577620D01*
X127206190Y33577620D01*
X127110952Y33625239D01*
X127063333Y33672858D01*
X127015714Y33768096D01*
X126968095Y33958572D01*
X126968095Y34196667D01*
X127015714Y34387143D01*
X127063333Y34482381D01*
X127110952Y34530000D01*
X127206190Y34577620D01*
X130270476Y33625239D02*
X130413333Y33577620D01*
X130651428Y33577620D01*
X130746666Y33625239D01*
X130794285Y33672858D01*
X130841904Y33768096D01*
X130841904Y33863334D01*
X130794285Y33958572D01*
X130746666Y34006191D01*
X130651428Y34053810D01*
X130460952Y34101429D01*
X130365714Y34149048D01*
X130318095Y34196667D01*
X130270476Y34291905D01*
X130270476Y34387143D01*
X130318095Y34482381D01*
X130365714Y34530000D01*
X130460952Y34577620D01*
X130699047Y34577620D01*
X130841904Y34530000D01*
X131175238Y34577620D02*
X131413333Y33577620D01*
X131603809Y34291905D01*
X131794285Y33577620D01*
X132032380Y34577620D01*
X132365714Y34482381D02*
X132413333Y34530000D01*
X132508571Y34577620D01*
X132746666Y34577620D01*
X132841904Y34530000D01*
X132889523Y34482381D01*
X132937142Y34387143D01*
X132937142Y34291905D01*
X132889523Y34149048D01*
X132318095Y33577620D01*
X132937142Y33577620D01*
X133889523Y33577620D02*
X133318095Y33577620D01*
X133603809Y33577620D02*
X133603809Y34577620D01*
X133508571Y34434762D01*
X133413333Y34339524D01*
X133318095Y34291905D01*
X136620476Y33625239D02*
X136763333Y33577620D01*
X137001428Y33577620D01*
X137096666Y33625239D01*
X137144285Y33672858D01*
X137191904Y33768096D01*
X137191904Y33863334D01*
X137144285Y33958572D01*
X137096666Y34006191D01*
X137001428Y34053810D01*
X136810952Y34101429D01*
X136715714Y34149048D01*
X136668095Y34196667D01*
X136620476Y34291905D01*
X136620476Y34387143D01*
X136668095Y34482381D01*
X136715714Y34530000D01*
X136810952Y34577620D01*
X137049047Y34577620D01*
X137191904Y34530000D01*
X137525238Y34577620D02*
X137763333Y33577620D01*
X137953809Y34291905D01*
X138144285Y33577620D01*
X138382380Y34577620D01*
X138715714Y34482381D02*
X138763333Y34530000D01*
X138858571Y34577620D01*
X139096666Y34577620D01*
X139191904Y34530000D01*
X139239523Y34482381D01*
X139287142Y34387143D01*
X139287142Y34291905D01*
X139239523Y34149048D01*
X138668095Y33577620D01*
X139287142Y33577620D01*
X139668095Y34482381D02*
X139715714Y34530000D01*
X139810952Y34577620D01*
X140049047Y34577620D01*
X140144285Y34530000D01*
X140191904Y34482381D01*
X140239523Y34387143D01*
X140239523Y34291905D01*
X140191904Y34149048D01*
X139620476Y33577620D01*
X140239523Y33577620D01*
X13843095Y85002620D02*
X13843095Y84193096D01*
X13890714Y84097858D01*
X13938333Y84050239D01*
X14033571Y84002620D01*
X14224047Y84002620D01*
X14319285Y84050239D01*
X14366904Y84097858D01*
X14414523Y84193096D01*
X14414523Y85002620D01*
X15414523Y84002620D02*
X14843095Y84002620D01*
X15128809Y84002620D02*
X15128809Y85002620D01*
X15033571Y84859762D01*
X14938333Y84764524D01*
X14843095Y84716905D01*
X13843095Y71667620D02*
X13843095Y70858096D01*
X13890714Y70762858D01*
X13938333Y70715239D01*
X14033571Y70667620D01*
X14224047Y70667620D01*
X14319285Y70715239D01*
X14366904Y70762858D01*
X14414523Y70858096D01*
X14414523Y71667620D01*
X14843095Y71572381D02*
X14890714Y71620000D01*
X14985952Y71667620D01*
X15224047Y71667620D01*
X15319285Y71620000D01*
X15366904Y71572381D01*
X15414523Y71477143D01*
X15414523Y71381905D01*
X15366904Y71239048D01*
X14795476Y70667620D01*
X15414523Y70667620D01*
X36238095Y85047620D02*
X36238095Y84238096D01*
X36285714Y84142858D01*
X36333333Y84095239D01*
X36428571Y84047620D01*
X36619047Y84047620D01*
X36714285Y84095239D01*
X36761904Y84142858D01*
X36809523Y84238096D01*
X36809523Y85047620D01*
X37190476Y85047620D02*
X37809523Y85047620D01*
X37476190Y84666667D01*
X37619047Y84666667D01*
X37714285Y84619048D01*
X37761904Y84571429D01*
X37809523Y84476191D01*
X37809523Y84238096D01*
X37761904Y84142858D01*
X37714285Y84095239D01*
X37619047Y84047620D01*
X37333333Y84047620D01*
X37238095Y84095239D01*
X37190476Y84142858D01*
X54483095Y8167620D02*
X54483095Y7358096D01*
X54530714Y7262858D01*
X54578333Y7215239D01*
X54673571Y7167620D01*
X54864047Y7167620D01*
X54959285Y7215239D01*
X55006904Y7262858D01*
X55054523Y7358096D01*
X55054523Y8167620D01*
X55959285Y7834286D02*
X55959285Y7167620D01*
X55721190Y8215239D02*
X55483095Y7500953D01*
X56102142Y7500953D01*
X36068095Y71667620D02*
X36068095Y70858096D01*
X36115714Y70762858D01*
X36163333Y70715239D01*
X36258571Y70667620D01*
X36449047Y70667620D01*
X36544285Y70715239D01*
X36591904Y70762858D01*
X36639523Y70858096D01*
X36639523Y71667620D01*
X37591904Y71667620D02*
X37115714Y71667620D01*
X37068095Y71191429D01*
X37115714Y71239048D01*
X37210952Y71286667D01*
X37449047Y71286667D01*
X37544285Y71239048D01*
X37591904Y71191429D01*
X37639523Y71096191D01*
X37639523Y70858096D01*
X37591904Y70762858D01*
X37544285Y70715239D01*
X37449047Y70667620D01*
X37210952Y70667620D01*
X37115714Y70715239D01*
X37068095Y70762858D01*
X13843095Y57697620D02*
X13843095Y56888096D01*
X13890714Y56792858D01*
X13938333Y56745239D01*
X14033571Y56697620D01*
X14224047Y56697620D01*
X14319285Y56745239D01*
X14366904Y56792858D01*
X14414523Y56888096D01*
X14414523Y57697620D01*
X15319285Y57697620D02*
X15128809Y57697620D01*
X15033571Y57650000D01*
X14985952Y57602381D01*
X14890714Y57459524D01*
X14843095Y57269048D01*
X14843095Y56888096D01*
X14890714Y56792858D01*
X14938333Y56745239D01*
X15033571Y56697620D01*
X15224047Y56697620D01*
X15319285Y56745239D01*
X15366904Y56792858D01*
X15414523Y56888096D01*
X15414523Y57126191D01*
X15366904Y57221429D01*
X15319285Y57269048D01*
X15224047Y57316667D01*
X15033571Y57316667D01*
X14938333Y57269048D01*
X14890714Y57221429D01*
X14843095Y57126191D01*
X36068095Y57697620D02*
X36068095Y56888096D01*
X36115714Y56792858D01*
X36163333Y56745239D01*
X36258571Y56697620D01*
X36449047Y56697620D01*
X36544285Y56745239D01*
X36591904Y56792858D01*
X36639523Y56888096D01*
X36639523Y57697620D01*
X37258571Y57269048D02*
X37163333Y57316667D01*
X37115714Y57364286D01*
X37068095Y57459524D01*
X37068095Y57507143D01*
X37115714Y57602381D01*
X37163333Y57650000D01*
X37258571Y57697620D01*
X37449047Y57697620D01*
X37544285Y57650000D01*
X37591904Y57602381D01*
X37639523Y57507143D01*
X37639523Y57459524D01*
X37591904Y57364286D01*
X37544285Y57316667D01*
X37449047Y57269048D01*
X37258571Y57269048D01*
X37163333Y57221429D01*
X37115714Y57173810D01*
X37068095Y57078572D01*
X37068095Y56888096D01*
X37115714Y56792858D01*
X37163333Y56745239D01*
X37258571Y56697620D01*
X37449047Y56697620D01*
X37544285Y56745239D01*
X37591904Y56792858D01*
X37639523Y56888096D01*
X37639523Y57078572D01*
X37591904Y57173810D01*
X37544285Y57221429D01*
X37449047Y57269048D01*
X88138095Y51347620D02*
X88138095Y50538096D01*
X88185714Y50442858D01*
X88233333Y50395239D01*
X88328571Y50347620D01*
X88519047Y50347620D01*
X88614285Y50395239D01*
X88661904Y50442858D01*
X88709523Y50538096D01*
X88709523Y51347620D01*
X89233333Y50347620D02*
X89423809Y50347620D01*
X89519047Y50395239D01*
X89566666Y50442858D01*
X89661904Y50585715D01*
X89709523Y50776191D01*
X89709523Y51157143D01*
X89661904Y51252381D01*
X89614285Y51300000D01*
X89519047Y51347620D01*
X89328571Y51347620D01*
X89233333Y51300000D01*
X89185714Y51252381D01*
X89138095Y51157143D01*
X89138095Y50919048D01*
X89185714Y50823810D01*
X89233333Y50776191D01*
X89328571Y50728572D01*
X89519047Y50728572D01*
X89614285Y50776191D01*
X89661904Y50823810D01*
X89709523Y50919048D01*
X113061904Y51347620D02*
X113061904Y50538096D01*
X113109523Y50442858D01*
X113157142Y50395239D01*
X113252380Y50347620D01*
X113442857Y50347620D01*
X113538095Y50395239D01*
X113585714Y50442858D01*
X113633333Y50538096D01*
X113633333Y51347620D01*
X114633333Y50347620D02*
X114061904Y50347620D01*
X114347619Y50347620D02*
X114347619Y51347620D01*
X114252380Y51204762D01*
X114157142Y51109524D01*
X114061904Y51061905D01*
X115252380Y51347620D02*
X115347619Y51347620D01*
X115442857Y51300000D01*
X115490476Y51252381D01*
X115538095Y51157143D01*
X115585714Y50966667D01*
X115585714Y50728572D01*
X115538095Y50538096D01*
X115490476Y50442858D01*
X115442857Y50395239D01*
X115347619Y50347620D01*
X115252380Y50347620D01*
X115157142Y50395239D01*
X115109523Y50442858D01*
X115061904Y50538096D01*
X115014285Y50728572D01*
X115014285Y50966667D01*
X115061904Y51157143D01*
X115109523Y51252381D01*
X115157142Y51300000D01*
X115252380Y51347620D01*
X43846904Y43727620D02*
X43846904Y42918096D01*
X43894523Y42822858D01*
X43942142Y42775239D01*
X44037380Y42727620D01*
X44227857Y42727620D01*
X44323095Y42775239D01*
X44370714Y42822858D01*
X44418333Y42918096D01*
X44418333Y43727620D01*
X45418333Y42727620D02*
X44846904Y42727620D01*
X45132619Y42727620D02*
X45132619Y43727620D01*
X45037380Y43584762D01*
X44942142Y43489524D01*
X44846904Y43441905D01*
X46370714Y42727620D02*
X45799285Y42727620D01*
X46085000Y42727620D02*
X46085000Y43727620D01*
X45989761Y43584762D01*
X45894523Y43489524D01*
X45799285Y43441905D01*
X14636904Y43727620D02*
X14636904Y42918096D01*
X14684523Y42822858D01*
X14732142Y42775239D01*
X14827380Y42727620D01*
X15017857Y42727620D01*
X15113095Y42775239D01*
X15160714Y42822858D01*
X15208333Y42918096D01*
X15208333Y43727620D01*
X16208333Y42727620D02*
X15636904Y42727620D01*
X15922619Y42727620D02*
X15922619Y43727620D01*
X15827380Y43584762D01*
X15732142Y43489524D01*
X15636904Y43441905D01*
X16589285Y43632381D02*
X16636904Y43680000D01*
X16732142Y43727620D01*
X16970238Y43727620D01*
X17065476Y43680000D01*
X17113095Y43632381D01*
X17160714Y43537143D01*
X17160714Y43441905D01*
X17113095Y43299048D01*
X16541666Y42727620D01*
X17160714Y42727620D01*
X100909523Y31297620D02*
X100576190Y31773810D01*
X100338095Y31297620D02*
X100338095Y32297620D01*
X100719047Y32297620D01*
X100814285Y32250000D01*
X100861904Y32202381D01*
X100909523Y32107143D01*
X100909523Y31964286D01*
X100861904Y31869048D01*
X100814285Y31821429D01*
X100719047Y31773810D01*
X100338095Y31773810D01*
X101338095Y31297620D02*
X101338095Y32297620D01*
X101909523Y31297620D01*
X101909523Y32297620D01*
X102909523Y31297620D02*
X102338095Y31297620D01*
X102623809Y31297620D02*
X102623809Y32297620D01*
X102528571Y32154762D01*
X102433333Y32059524D01*
X102338095Y32011905D01*
X101544523Y47172620D02*
X101211190Y47648810D01*
X100973095Y47172620D02*
X100973095Y48172620D01*
X101354047Y48172620D01*
X101449285Y48125000D01*
X101496904Y48077381D01*
X101544523Y47982143D01*
X101544523Y47839286D01*
X101496904Y47744048D01*
X101449285Y47696429D01*
X101354047Y47648810D01*
X100973095Y47648810D01*
X101973095Y47172620D02*
X101973095Y48172620D01*
X102544523Y47172620D01*
X102544523Y48172620D01*
X102973095Y48077381D02*
X103020714Y48125000D01*
X103115952Y48172620D01*
X103354047Y48172620D01*
X103449285Y48125000D01*
X103496904Y48077381D01*
X103544523Y47982143D01*
X103544523Y47886905D01*
X103496904Y47744048D01*
X102925476Y47172620D01*
X103544523Y47172620D01*
X100909523Y18597620D02*
X100576190Y19073810D01*
X100338095Y18597620D02*
X100338095Y19597620D01*
X100719047Y19597620D01*
X100814285Y19550000D01*
X100861904Y19502381D01*
X100909523Y19407143D01*
X100909523Y19264286D01*
X100861904Y19169048D01*
X100814285Y19121429D01*
X100719047Y19073810D01*
X100338095Y19073810D01*
X101338095Y18597620D02*
X101338095Y19597620D01*
X101909523Y18597620D01*
X101909523Y19597620D01*
X102290476Y19597620D02*
X102909523Y19597620D01*
X102576190Y19216667D01*
X102719047Y19216667D01*
X102814285Y19169048D01*
X102861904Y19121429D01*
X102909523Y19026191D01*
X102909523Y18788096D01*
X102861904Y18692858D01*
X102814285Y18645239D01*
X102719047Y18597620D01*
X102433333Y18597620D01*
X102338095Y18645239D01*
X102290476Y18692858D01*
X3754523Y37647620D02*
X3421190Y38123810D01*
X3183095Y37647620D02*
X3183095Y38647620D01*
X3564047Y38647620D01*
X3659285Y38600000D01*
X3706904Y38552381D01*
X3754523Y38457143D01*
X3754523Y38314286D01*
X3706904Y38219048D01*
X3659285Y38171429D01*
X3564047Y38123810D01*
X3183095Y38123810D01*
X4183095Y37647620D02*
X4183095Y38647620D01*
X4754523Y37647620D01*
X4754523Y38647620D01*
X5659285Y38314286D02*
X5659285Y37647620D01*
X5421190Y38695239D02*
X5183095Y37980953D01*
X5802142Y37980953D01*
X76708095Y64682620D02*
X76708095Y63873096D01*
X76755714Y63777858D01*
X76803333Y63730239D01*
X76898571Y63682620D01*
X77089047Y63682620D01*
X77184285Y63730239D01*
X77231904Y63777858D01*
X77279523Y63873096D01*
X77279523Y64682620D01*
X77660476Y64682620D02*
X78327142Y64682620D01*
X77898571Y63682620D01*
X11112666Y23050239D02*
X11255523Y23002620D01*
X11493619Y23002620D01*
X11588857Y23050239D01*
X11636476Y23097858D01*
X11684095Y23193096D01*
X11684095Y23288334D01*
X11636476Y23383572D01*
X11588857Y23431191D01*
X11493619Y23478810D01*
X11303142Y23526429D01*
X11207904Y23574048D01*
X11160285Y23621667D01*
X11112666Y23716905D01*
X11112666Y23812143D01*
X11160285Y23907381D01*
X11207904Y23955000D01*
X11303142Y24002620D01*
X11541238Y24002620D01*
X11684095Y23955000D01*
X12017428Y24002620D02*
X12255523Y23002620D01*
X12446000Y23716905D01*
X12636476Y23002620D01*
X12874571Y24002620D01*
X13160285Y24002620D02*
X13779333Y24002620D01*
X13446000Y23621667D01*
X13588857Y23621667D01*
X13684095Y23574048D01*
X13731714Y23526429D01*
X13779333Y23431191D01*
X13779333Y23193096D01*
X13731714Y23097858D01*
X13684095Y23050239D01*
X13588857Y23002620D01*
X13303142Y23002620D01*
X13207904Y23050239D01*
X13160285Y23097858D01*
X16573666Y23065239D02*
X16716523Y23017620D01*
X16954619Y23017620D01*
X17049857Y23065239D01*
X17097476Y23112858D01*
X17145095Y23208096D01*
X17145095Y23303334D01*
X17097476Y23398572D01*
X17049857Y23446191D01*
X16954619Y23493810D01*
X16764142Y23541429D01*
X16668904Y23589048D01*
X16621285Y23636667D01*
X16573666Y23731905D01*
X16573666Y23827143D01*
X16621285Y23922381D01*
X16668904Y23970000D01*
X16764142Y24017620D01*
X17002238Y24017620D01*
X17145095Y23970000D01*
X17478428Y24017620D02*
X17716523Y23017620D01*
X17907000Y23731905D01*
X18097476Y23017620D01*
X18335571Y24017620D01*
X19145095Y23684286D02*
X19145095Y23017620D01*
X18907000Y24065239D02*
X18668904Y23350953D01*
X19287952Y23350953D01*
X22034666Y23065239D02*
X22177523Y23017620D01*
X22415619Y23017620D01*
X22510857Y23065239D01*
X22558476Y23112858D01*
X22606095Y23208096D01*
X22606095Y23303334D01*
X22558476Y23398572D01*
X22510857Y23446191D01*
X22415619Y23493810D01*
X22225142Y23541429D01*
X22129904Y23589048D01*
X22082285Y23636667D01*
X22034666Y23731905D01*
X22034666Y23827143D01*
X22082285Y23922381D01*
X22129904Y23970000D01*
X22225142Y24017620D01*
X22463238Y24017620D01*
X22606095Y23970000D01*
X22939428Y24017620D02*
X23177523Y23017620D01*
X23368000Y23731905D01*
X23558476Y23017620D01*
X23796571Y24017620D01*
X24653714Y24017620D02*
X24177523Y24017620D01*
X24129904Y23541429D01*
X24177523Y23589048D01*
X24272761Y23636667D01*
X24510857Y23636667D01*
X24606095Y23589048D01*
X24653714Y23541429D01*
X24701333Y23446191D01*
X24701333Y23208096D01*
X24653714Y23112858D01*
X24606095Y23065239D01*
X24510857Y23017620D01*
X24272761Y23017620D01*
X24177523Y23065239D01*
X24129904Y23112858D01*
X89590714Y84002620D02*
X89590714Y85002620D01*
X89828809Y85002620D01*
X89971666Y84955000D01*
X90066904Y84859762D01*
X90114523Y84764524D01*
X90162142Y84574048D01*
X90162142Y84431191D01*
X90114523Y84240715D01*
X90066904Y84145477D01*
X89971666Y84050239D01*
X89828809Y84002620D01*
X89590714Y84002620D01*
X91114523Y84002620D02*
X90543095Y84002620D01*
X90828809Y84002620D02*
X90828809Y85002620D01*
X90733571Y84859762D01*
X90638333Y84764524D01*
X90543095Y84716905D01*
X91495476Y84907381D02*
X91543095Y84955000D01*
X91638333Y85002620D01*
X91876428Y85002620D01*
X91971666Y84955000D01*
X92019285Y84907381D01*
X92066904Y84812143D01*
X92066904Y84716905D01*
X92019285Y84574048D01*
X91447857Y84002620D01*
X92066904Y84002620D01*
X84828095Y88642620D02*
X84828095Y89642620D01*
X85399523Y88642620D02*
X84970952Y89214048D01*
X85399523Y89642620D02*
X84828095Y89071191D01*
X66730714Y84002620D02*
X66730714Y85002620D01*
X66968809Y85002620D01*
X67111666Y84955000D01*
X67206904Y84859762D01*
X67254523Y84764524D01*
X67302142Y84574048D01*
X67302142Y84431191D01*
X67254523Y84240715D01*
X67206904Y84145477D01*
X67111666Y84050239D01*
X66968809Y84002620D01*
X66730714Y84002620D01*
X68254523Y84002620D02*
X67683095Y84002620D01*
X67968809Y84002620D02*
X67968809Y85002620D01*
X67873571Y84859762D01*
X67778333Y84764524D01*
X67683095Y84716905D01*
X68587857Y85002620D02*
X69206904Y85002620D01*
X68873571Y84621667D01*
X69016428Y84621667D01*
X69111666Y84574048D01*
X69159285Y84526429D01*
X69206904Y84431191D01*
X69206904Y84193096D01*
X69159285Y84097858D01*
X69111666Y84050239D01*
X69016428Y84002620D01*
X68730714Y84002620D01*
X68635476Y84050239D01*
X68587857Y84097858D01*
X62603095Y88642620D02*
X62603095Y89642620D01*
X63174523Y88642620D02*
X62745952Y89214048D01*
X63174523Y89642620D02*
X62603095Y89071191D01*
X99786666Y94527620D02*
X99786666Y93813334D01*
X99739047Y93670477D01*
X99643809Y93575239D01*
X99500952Y93527620D01*
X99405714Y93527620D01*
X100215238Y94432381D02*
X100262857Y94480000D01*
X100358095Y94527620D01*
X100596190Y94527620D01*
X100691428Y94480000D01*
X100739047Y94432381D01*
X100786666Y94337143D01*
X100786666Y94241905D01*
X100739047Y94099048D01*
X100167619Y93527620D01*
X100786666Y93527620D01*
X75419285Y90186429D02*
X75562142Y90138810D01*
X75609761Y90091191D01*
X75657380Y89995953D01*
X75657380Y89853096D01*
X75609761Y89757858D01*
X75562142Y89710239D01*
X75466904Y89662620D01*
X75085952Y89662620D01*
X75085952Y90662620D01*
X75419285Y90662620D01*
X75514523Y90615000D01*
X75562142Y90567381D01*
X75609761Y90472143D01*
X75609761Y90376905D01*
X75562142Y90281667D01*
X75514523Y90234048D01*
X75419285Y90186429D01*
X75085952Y90186429D01*
X75943095Y90662620D02*
X76514523Y90662620D01*
X76228809Y89662620D02*
X76228809Y90662620D01*
X77371666Y89662620D02*
X76800238Y89662620D01*
X77085952Y89662620D02*
X77085952Y90662620D01*
X76990714Y90519762D01*
X76895476Y90424524D01*
X76800238Y90376905D01*
X82658571Y94807858D02*
X83801428Y94807858D01*
X83230000Y94236429D02*
X83230000Y95379286D01*
M02*
