G04 #@! TF.GenerationSoftware,KiCad,Pcbnew,(5.1.9)-1*
G04 #@! TF.CreationDate,2025-11-02T13:22:50+09:00*
G04 #@! TF.ProjectId,ECOM-800,45434f4d-2d38-4303-902e-6b696361645f,rev?*
G04 #@! TF.SameCoordinates,PX53920b0PY93c3260*
G04 #@! TF.FileFunction,Soldermask,Bot*
G04 #@! TF.FilePolarity,Negative*
%FSLAX46Y46*%
G04 Gerber Fmt 4.6, Leading zero omitted, Abs format (unit mm)*
G04 Created by KiCad (PCBNEW (5.1.9)-1) date 2025-11-02 13:22:50*
%MOMM*%
%LPD*%
G01*
G04 APERTURE LIST*
%ADD10C,3.200000*%
%ADD11C,1.600000*%
%ADD12R,1.600000X1.600000*%
%ADD13R,1.800000X1.800000*%
%ADD14C,1.800000*%
%ADD15R,3.500000X3.500000*%
%ADD16O,1.600000X1.600000*%
%ADD17R,1.700000X1.700000*%
%ADD18O,1.700000X1.700000*%
%ADD19C,1.700000*%
%ADD20O,1.600000X2.400000*%
%ADD21R,1.600000X2.400000*%
%ADD22O,1.800000X1.350000*%
%ADD23R,1.350000X1.350000*%
%ADD24O,1.350000X1.350000*%
%ADD25O,2.200000X2.200000*%
%ADD26R,2.200000X2.200000*%
%ADD27R,1.500000X1.500000*%
G04 APERTURE END LIST*
D10*
X5000000Y95000000D03*
X145000000Y95000000D03*
X145000000Y5000000D03*
X5000000Y5000000D03*
D11*
X9525000Y89575000D03*
X9525000Y92075000D03*
X9525000Y78740000D03*
X9525000Y76240000D03*
X31750000Y92075000D03*
X31750000Y89575000D03*
X30480000Y19050000D03*
X30480000Y16550000D03*
X31750000Y76240000D03*
X31750000Y78740000D03*
X9525000Y62270000D03*
X9525000Y64770000D03*
X59690000Y73065000D03*
X59690000Y75565000D03*
X31750000Y64770000D03*
X31750000Y62270000D03*
X82550000Y58420000D03*
X82550000Y55920000D03*
X107315000Y55920000D03*
X107315000Y58420000D03*
X39370000Y48300000D03*
X39370000Y50800000D03*
X9525000Y50800000D03*
X9525000Y48300000D03*
D12*
X146685000Y37465000D03*
D11*
X144185000Y37465000D03*
X48855000Y30480000D03*
X46355000Y30480000D03*
X43775000Y30480000D03*
X41275000Y30480000D03*
D13*
X106680000Y86360000D03*
D14*
X106680000Y88900000D03*
X119380000Y88900000D03*
D13*
X119380000Y86360000D03*
X131445000Y86360000D03*
D14*
X131445000Y88900000D03*
D13*
X90170000Y24765000D03*
D14*
X92710000Y24765000D03*
X99060000Y24765000D03*
D13*
X96520000Y24765000D03*
X102870000Y24765000D03*
D14*
X105410000Y24765000D03*
X111760000Y24765000D03*
D13*
X109220000Y24765000D03*
X118110000Y24765000D03*
D14*
X120650000Y24765000D03*
X127000000Y24765000D03*
D13*
X124460000Y24765000D03*
X130810000Y24765000D03*
D14*
X133350000Y24765000D03*
X139700000Y24765000D03*
D13*
X137160000Y24765000D03*
D15*
X136525000Y66040000D03*
G36*
G01*
X144025000Y67040000D02*
X144025000Y65040000D01*
G75*
G02*
X143275000Y64290000I-750000J0D01*
G01*
X141775000Y64290000D01*
G75*
G02*
X141025000Y65040000I0J750000D01*
G01*
X141025000Y67040000D01*
G75*
G02*
X141775000Y67790000I750000J0D01*
G01*
X143275000Y67790000D01*
G75*
G02*
X144025000Y67040000I0J-750000D01*
G01*
G37*
G36*
G01*
X141275000Y71615000D02*
X141275000Y69865000D01*
G75*
G02*
X140400000Y68990000I-875000J0D01*
G01*
X138650000Y68990000D01*
G75*
G02*
X137775000Y69865000I0J875000D01*
G01*
X137775000Y71615000D01*
G75*
G02*
X138650000Y72490000I875000J0D01*
G01*
X140400000Y72490000D01*
G75*
G02*
X141275000Y71615000I0J-875000D01*
G01*
G37*
D16*
X108585000Y70485000D03*
D11*
X108585000Y80645000D03*
D16*
X137160000Y85725000D03*
D11*
X137160000Y75565000D03*
X104140000Y80645000D03*
D16*
X104140000Y70485000D03*
X33655000Y5080000D03*
D11*
X43815000Y5080000D03*
X74295000Y29845000D03*
D16*
X74295000Y40005000D03*
X38735000Y38735000D03*
D11*
X48895000Y38735000D03*
X38735000Y34925000D03*
D16*
X48895000Y34925000D03*
X109220000Y92710000D03*
D11*
X119380000Y92710000D03*
X129540000Y96520000D03*
D16*
X119380000Y96520000D03*
X128905000Y92710000D03*
D11*
X139065000Y92710000D03*
D17*
X147320000Y53975000D03*
D18*
X147320000Y51435000D03*
X147320000Y48895000D03*
D17*
X12145000Y32915000D03*
D19*
X12145000Y30375000D03*
X12145000Y27835000D03*
D17*
X131445000Y80645000D03*
D19*
X131445000Y78105000D03*
X131445000Y75565000D03*
X119380000Y75565000D03*
X119380000Y78105000D03*
D17*
X119380000Y80645000D03*
D19*
X91440000Y13335000D03*
X91440000Y10795000D03*
D17*
X91440000Y8255000D03*
X97790000Y8255000D03*
D19*
X97790000Y10795000D03*
X97790000Y13335000D03*
D17*
X104140000Y8255000D03*
D19*
X104140000Y10795000D03*
X104140000Y13335000D03*
D17*
X110490000Y8255000D03*
D19*
X110490000Y10795000D03*
X110490000Y13335000D03*
X119380000Y13335000D03*
X119380000Y10795000D03*
D17*
X119380000Y8255000D03*
D19*
X125730000Y13335000D03*
X125730000Y10795000D03*
D17*
X125730000Y8255000D03*
X132080000Y8255000D03*
D19*
X132080000Y10795000D03*
X132080000Y13335000D03*
X138430000Y13335000D03*
X138430000Y10795000D03*
D17*
X138430000Y8255000D03*
X91440000Y36830000D03*
D19*
X91440000Y39370000D03*
X91440000Y41910000D03*
X97790000Y41910000D03*
X97790000Y39370000D03*
D17*
X97790000Y36830000D03*
D19*
X104140000Y41910000D03*
X104140000Y39370000D03*
D17*
X104140000Y36830000D03*
X110490000Y36830000D03*
D19*
X110490000Y39370000D03*
X110490000Y41910000D03*
X119380000Y41910000D03*
X119380000Y39370000D03*
D17*
X119380000Y36830000D03*
X125730000Y36830000D03*
D19*
X125730000Y39370000D03*
X125730000Y41910000D03*
X132080000Y41910000D03*
X132080000Y39370000D03*
D17*
X132080000Y36830000D03*
X138430000Y36830000D03*
D19*
X138430000Y39370000D03*
X138430000Y41910000D03*
D20*
X12700000Y94615000D03*
X27940000Y86995000D03*
X15240000Y94615000D03*
X25400000Y86995000D03*
X17780000Y94615000D03*
X22860000Y86995000D03*
X20320000Y94615000D03*
X20320000Y86995000D03*
X22860000Y94615000D03*
X17780000Y86995000D03*
X25400000Y94615000D03*
X15240000Y86995000D03*
X27940000Y94615000D03*
D21*
X12700000Y86995000D03*
X12700000Y73660000D03*
D20*
X27940000Y81280000D03*
X15240000Y73660000D03*
X25400000Y81280000D03*
X17780000Y73660000D03*
X22860000Y81280000D03*
X20320000Y73660000D03*
X20320000Y81280000D03*
X22860000Y73660000D03*
X17780000Y81280000D03*
X25400000Y73660000D03*
X15240000Y81280000D03*
X27940000Y73660000D03*
X12700000Y81280000D03*
D21*
X34925000Y86995000D03*
D20*
X52705000Y94615000D03*
X37465000Y86995000D03*
X50165000Y94615000D03*
X40005000Y86995000D03*
X47625000Y94615000D03*
X42545000Y86995000D03*
X45085000Y94615000D03*
X45085000Y86995000D03*
X42545000Y94615000D03*
X47625000Y86995000D03*
X40005000Y94615000D03*
X50165000Y86995000D03*
X37465000Y94615000D03*
X52705000Y86995000D03*
X34925000Y94615000D03*
D21*
X33655000Y10160000D03*
D20*
X81915000Y25400000D03*
X36195000Y10160000D03*
X79375000Y25400000D03*
X38735000Y10160000D03*
X76835000Y25400000D03*
X41275000Y10160000D03*
X74295000Y25400000D03*
X43815000Y10160000D03*
X71755000Y25400000D03*
X46355000Y10160000D03*
X69215000Y25400000D03*
X48895000Y10160000D03*
X66675000Y25400000D03*
X51435000Y10160000D03*
X64135000Y25400000D03*
X53975000Y10160000D03*
X61595000Y25400000D03*
X56515000Y10160000D03*
X59055000Y25400000D03*
X59055000Y10160000D03*
X56515000Y25400000D03*
X61595000Y10160000D03*
X53975000Y25400000D03*
X64135000Y10160000D03*
X51435000Y25400000D03*
X66675000Y10160000D03*
X48895000Y25400000D03*
X69215000Y10160000D03*
X46355000Y25400000D03*
X71755000Y10160000D03*
X43815000Y25400000D03*
X74295000Y10160000D03*
X41275000Y25400000D03*
X76835000Y10160000D03*
X38735000Y25400000D03*
X79375000Y10160000D03*
X36195000Y25400000D03*
X81915000Y10160000D03*
X33655000Y25400000D03*
D21*
X34925000Y73660000D03*
D20*
X50165000Y81280000D03*
X37465000Y73660000D03*
X47625000Y81280000D03*
X40005000Y73660000D03*
X45085000Y81280000D03*
X42545000Y73660000D03*
X42545000Y81280000D03*
X45085000Y73660000D03*
X40005000Y81280000D03*
X47625000Y73660000D03*
X37465000Y81280000D03*
X50165000Y73660000D03*
X34925000Y81280000D03*
D21*
X12700000Y59690000D03*
D20*
X27940000Y67310000D03*
X15240000Y59690000D03*
X25400000Y67310000D03*
X17780000Y59690000D03*
X22860000Y67310000D03*
X20320000Y59690000D03*
X20320000Y67310000D03*
X22860000Y59690000D03*
X17780000Y67310000D03*
X25400000Y59690000D03*
X15240000Y67310000D03*
X27940000Y59690000D03*
X12700000Y67310000D03*
X34925000Y67310000D03*
X50165000Y59690000D03*
X37465000Y67310000D03*
X47625000Y59690000D03*
X40005000Y67310000D03*
X45085000Y59690000D03*
X42545000Y67310000D03*
X42545000Y59690000D03*
X45085000Y67310000D03*
X40005000Y59690000D03*
X47625000Y67310000D03*
X37465000Y59690000D03*
X50165000Y67310000D03*
D21*
X34925000Y59690000D03*
X85725000Y53340000D03*
D20*
X103505000Y60960000D03*
X88265000Y53340000D03*
X100965000Y60960000D03*
X90805000Y53340000D03*
X98425000Y60960000D03*
X93345000Y53340000D03*
X95885000Y60960000D03*
X95885000Y53340000D03*
X93345000Y60960000D03*
X98425000Y53340000D03*
X90805000Y60960000D03*
X100965000Y53340000D03*
X88265000Y60960000D03*
X103505000Y53340000D03*
X85725000Y60960000D03*
X110490000Y60960000D03*
X128270000Y53340000D03*
X113030000Y60960000D03*
X125730000Y53340000D03*
X115570000Y60960000D03*
X123190000Y53340000D03*
X118110000Y60960000D03*
X120650000Y53340000D03*
X120650000Y60960000D03*
X118110000Y53340000D03*
X123190000Y60960000D03*
X115570000Y53340000D03*
X125730000Y60960000D03*
X113030000Y53340000D03*
X128270000Y60960000D03*
D21*
X110490000Y53340000D03*
D20*
X42545000Y53340000D03*
X65405000Y45720000D03*
X45085000Y53340000D03*
X62865000Y45720000D03*
X47625000Y53340000D03*
X60325000Y45720000D03*
X50165000Y53340000D03*
X57785000Y45720000D03*
X52705000Y53340000D03*
X55245000Y45720000D03*
X55245000Y53340000D03*
X52705000Y45720000D03*
X57785000Y53340000D03*
X50165000Y45720000D03*
X60325000Y53340000D03*
X47625000Y45720000D03*
X62865000Y53340000D03*
X45085000Y45720000D03*
X65405000Y53340000D03*
D21*
X42545000Y45720000D03*
X12700000Y45720000D03*
D20*
X35560000Y53340000D03*
X15240000Y45720000D03*
X33020000Y53340000D03*
X17780000Y45720000D03*
X30480000Y53340000D03*
X20320000Y45720000D03*
X27940000Y53340000D03*
X22860000Y45720000D03*
X25400000Y53340000D03*
X25400000Y45720000D03*
X22860000Y53340000D03*
X27940000Y45720000D03*
X20320000Y53340000D03*
X30480000Y45720000D03*
X17780000Y53340000D03*
X33020000Y45720000D03*
X15240000Y53340000D03*
X35560000Y45720000D03*
X12700000Y53340000D03*
D12*
X125095000Y31750000D03*
D16*
X122555000Y31750000D03*
X120015000Y31750000D03*
X117475000Y31750000D03*
X114935000Y31750000D03*
X112395000Y31750000D03*
X109855000Y31750000D03*
X107315000Y31750000D03*
X104775000Y31750000D03*
D12*
X125730000Y47625000D03*
D16*
X123190000Y47625000D03*
X120650000Y47625000D03*
X118110000Y47625000D03*
X115570000Y47625000D03*
X113030000Y47625000D03*
X110490000Y47625000D03*
X107950000Y47625000D03*
X105410000Y47625000D03*
X104775000Y19050000D03*
X107315000Y19050000D03*
X109855000Y19050000D03*
X112395000Y19050000D03*
X114935000Y19050000D03*
X117475000Y19050000D03*
X120015000Y19050000D03*
X122555000Y19050000D03*
D12*
X125095000Y19050000D03*
X27940000Y39370000D03*
D16*
X25400000Y39370000D03*
X22860000Y39370000D03*
X20320000Y39370000D03*
X17780000Y39370000D03*
X15240000Y39370000D03*
X12700000Y39370000D03*
X10160000Y39370000D03*
X7620000Y39370000D03*
D21*
X62865000Y66675000D03*
D20*
X95885000Y81915000D03*
X65405000Y66675000D03*
X93345000Y81915000D03*
X67945000Y66675000D03*
X90805000Y81915000D03*
X70485000Y66675000D03*
X88265000Y81915000D03*
X73025000Y66675000D03*
X85725000Y81915000D03*
X75565000Y66675000D03*
X83185000Y81915000D03*
X78105000Y66675000D03*
X80645000Y81915000D03*
X80645000Y66675000D03*
X78105000Y81915000D03*
X83185000Y66675000D03*
X75565000Y81915000D03*
X85725000Y66675000D03*
X73025000Y81915000D03*
X88265000Y66675000D03*
X70485000Y81915000D03*
X90805000Y66675000D03*
X67945000Y81915000D03*
X93345000Y66675000D03*
X65405000Y81915000D03*
X95885000Y66675000D03*
X62865000Y81915000D03*
D22*
X12446000Y21255000D03*
D23*
X12446000Y18955000D03*
D24*
X12446000Y16955000D03*
X12446000Y14955000D03*
X12446000Y10955000D03*
D22*
X12446000Y8655000D03*
X17907000Y8670000D03*
D24*
X17907000Y10970000D03*
X17907000Y14970000D03*
X17907000Y16970000D03*
D23*
X17907000Y18970000D03*
D22*
X17907000Y21270000D03*
X23368000Y21270000D03*
D23*
X23368000Y18970000D03*
D24*
X23368000Y16970000D03*
X23368000Y14970000D03*
X23368000Y10970000D03*
D22*
X23368000Y8670000D03*
D25*
X95250000Y86995000D03*
D26*
X85090000Y86995000D03*
X62865000Y86995000D03*
D25*
X73025000Y86995000D03*
D17*
X97790000Y93980000D03*
D18*
X95250000Y93980000D03*
X92710000Y93980000D03*
D11*
X74910000Y92365000D03*
D27*
X79910000Y95965000D03*
X69910000Y95965000D03*
M02*
