G04 #@! TF.GenerationSoftware,KiCad,Pcbnew,(5.1.9)-1*
G04 #@! TF.CreationDate,2025-11-02T13:22:50+09:00*
G04 #@! TF.ProjectId,ECOM-800,45434f4d-2d38-4303-902e-6b696361645f,rev?*
G04 #@! TF.SameCoordinates,PX53920b0PY93c3260*
G04 #@! TF.FileFunction,Copper,L2,Bot*
G04 #@! TF.FilePolarity,Positive*
%FSLAX46Y46*%
G04 Gerber Fmt 4.6, Leading zero omitted, Abs format (unit mm)*
G04 Created by KiCad (PCBNEW (5.1.9)-1) date 2025-11-02 13:22:50*
%MOMM*%
%LPD*%
G01*
G04 APERTURE LIST*
G04 #@! TA.AperFunction,ComponentPad*
%ADD10C,1.600000*%
G04 #@! TD*
G04 #@! TA.AperFunction,ComponentPad*
%ADD11R,1.600000X1.600000*%
G04 #@! TD*
G04 #@! TA.AperFunction,ComponentPad*
%ADD12R,1.800000X1.800000*%
G04 #@! TD*
G04 #@! TA.AperFunction,ComponentPad*
%ADD13C,1.800000*%
G04 #@! TD*
G04 #@! TA.AperFunction,ComponentPad*
%ADD14R,3.500000X3.500000*%
G04 #@! TD*
G04 #@! TA.AperFunction,ComponentPad*
%ADD15O,1.600000X1.600000*%
G04 #@! TD*
G04 #@! TA.AperFunction,ComponentPad*
%ADD16R,1.700000X1.700000*%
G04 #@! TD*
G04 #@! TA.AperFunction,ComponentPad*
%ADD17O,1.700000X1.700000*%
G04 #@! TD*
G04 #@! TA.AperFunction,ComponentPad*
%ADD18C,1.700000*%
G04 #@! TD*
G04 #@! TA.AperFunction,ComponentPad*
%ADD19O,1.600000X2.400000*%
G04 #@! TD*
G04 #@! TA.AperFunction,ComponentPad*
%ADD20R,1.600000X2.400000*%
G04 #@! TD*
G04 #@! TA.AperFunction,ComponentPad*
%ADD21O,1.800000X1.350000*%
G04 #@! TD*
G04 #@! TA.AperFunction,ComponentPad*
%ADD22R,1.350000X1.350000*%
G04 #@! TD*
G04 #@! TA.AperFunction,ComponentPad*
%ADD23O,1.350000X1.350000*%
G04 #@! TD*
G04 #@! TA.AperFunction,ComponentPad*
%ADD24O,2.200000X2.200000*%
G04 #@! TD*
G04 #@! TA.AperFunction,ComponentPad*
%ADD25R,2.200000X2.200000*%
G04 #@! TD*
G04 #@! TA.AperFunction,ComponentPad*
%ADD26R,1.500000X1.500000*%
G04 #@! TD*
G04 #@! TA.AperFunction,ViaPad*
%ADD27C,0.500000*%
G04 #@! TD*
G04 #@! TA.AperFunction,Conductor*
%ADD28C,0.400000*%
G04 #@! TD*
G04 #@! TA.AperFunction,Conductor*
%ADD29C,0.200000*%
G04 #@! TD*
G04 APERTURE END LIST*
D10*
X9525000Y89575000D03*
X9525000Y92075000D03*
X9525000Y78740000D03*
X9525000Y76240000D03*
X31750000Y92075000D03*
X31750000Y89575000D03*
X30480000Y19050000D03*
X30480000Y16550000D03*
X31750000Y76240000D03*
X31750000Y78740000D03*
X9525000Y62270000D03*
X9525000Y64770000D03*
X59690000Y73065000D03*
X59690000Y75565000D03*
X31750000Y64770000D03*
X31750000Y62270000D03*
X82550000Y58420000D03*
X82550000Y55920000D03*
X107315000Y55920000D03*
X107315000Y58420000D03*
X39370000Y48300000D03*
X39370000Y50800000D03*
X9525000Y50800000D03*
X9525000Y48300000D03*
D11*
X146685000Y37465000D03*
D10*
X144185000Y37465000D03*
X48855000Y30480000D03*
X46355000Y30480000D03*
X43775000Y30480000D03*
X41275000Y30480000D03*
D12*
X106680000Y86360000D03*
D13*
X106680000Y88900000D03*
X119380000Y88900000D03*
D12*
X119380000Y86360000D03*
X131445000Y86360000D03*
D13*
X131445000Y88900000D03*
D12*
X90170000Y24765000D03*
D13*
X92710000Y24765000D03*
X99060000Y24765000D03*
D12*
X96520000Y24765000D03*
X102870000Y24765000D03*
D13*
X105410000Y24765000D03*
X111760000Y24765000D03*
D12*
X109220000Y24765000D03*
X118110000Y24765000D03*
D13*
X120650000Y24765000D03*
X127000000Y24765000D03*
D12*
X124460000Y24765000D03*
X130810000Y24765000D03*
D13*
X133350000Y24765000D03*
X139700000Y24765000D03*
D12*
X137160000Y24765000D03*
D14*
X136525000Y66040000D03*
G04 #@! TA.AperFunction,ComponentPad*
G36*
G01*
X144025000Y67040000D02*
X144025000Y65040000D01*
G75*
G02*
X143275000Y64290000I-750000J0D01*
G01*
X141775000Y64290000D01*
G75*
G02*
X141025000Y65040000I0J750000D01*
G01*
X141025000Y67040000D01*
G75*
G02*
X141775000Y67790000I750000J0D01*
G01*
X143275000Y67790000D01*
G75*
G02*
X144025000Y67040000I0J-750000D01*
G01*
G37*
G04 #@! TD.AperFunction*
G04 #@! TA.AperFunction,ComponentPad*
G36*
G01*
X141275000Y71615000D02*
X141275000Y69865000D01*
G75*
G02*
X140400000Y68990000I-875000J0D01*
G01*
X138650000Y68990000D01*
G75*
G02*
X137775000Y69865000I0J875000D01*
G01*
X137775000Y71615000D01*
G75*
G02*
X138650000Y72490000I875000J0D01*
G01*
X140400000Y72490000D01*
G75*
G02*
X141275000Y71615000I0J-875000D01*
G01*
G37*
G04 #@! TD.AperFunction*
D15*
X108585000Y70485000D03*
D10*
X108585000Y80645000D03*
D15*
X137160000Y85725000D03*
D10*
X137160000Y75565000D03*
X104140000Y80645000D03*
D15*
X104140000Y70485000D03*
X33655000Y5080000D03*
D10*
X43815000Y5080000D03*
X74295000Y29845000D03*
D15*
X74295000Y40005000D03*
X38735000Y38735000D03*
D10*
X48895000Y38735000D03*
X38735000Y34925000D03*
D15*
X48895000Y34925000D03*
X109220000Y92710000D03*
D10*
X119380000Y92710000D03*
X129540000Y96520000D03*
D15*
X119380000Y96520000D03*
X128905000Y92710000D03*
D10*
X139065000Y92710000D03*
D16*
X147320000Y53975000D03*
D17*
X147320000Y51435000D03*
X147320000Y48895000D03*
D16*
X12145000Y32915000D03*
D18*
X12145000Y30375000D03*
X12145000Y27835000D03*
D16*
X131445000Y80645000D03*
D18*
X131445000Y78105000D03*
X131445000Y75565000D03*
X119380000Y75565000D03*
X119380000Y78105000D03*
D16*
X119380000Y80645000D03*
D18*
X91440000Y13335000D03*
X91440000Y10795000D03*
D16*
X91440000Y8255000D03*
X97790000Y8255000D03*
D18*
X97790000Y10795000D03*
X97790000Y13335000D03*
D16*
X104140000Y8255000D03*
D18*
X104140000Y10795000D03*
X104140000Y13335000D03*
D16*
X110490000Y8255000D03*
D18*
X110490000Y10795000D03*
X110490000Y13335000D03*
X119380000Y13335000D03*
X119380000Y10795000D03*
D16*
X119380000Y8255000D03*
D18*
X125730000Y13335000D03*
X125730000Y10795000D03*
D16*
X125730000Y8255000D03*
X132080000Y8255000D03*
D18*
X132080000Y10795000D03*
X132080000Y13335000D03*
X138430000Y13335000D03*
X138430000Y10795000D03*
D16*
X138430000Y8255000D03*
X91440000Y36830000D03*
D18*
X91440000Y39370000D03*
X91440000Y41910000D03*
X97790000Y41910000D03*
X97790000Y39370000D03*
D16*
X97790000Y36830000D03*
D18*
X104140000Y41910000D03*
X104140000Y39370000D03*
D16*
X104140000Y36830000D03*
X110490000Y36830000D03*
D18*
X110490000Y39370000D03*
X110490000Y41910000D03*
X119380000Y41910000D03*
X119380000Y39370000D03*
D16*
X119380000Y36830000D03*
X125730000Y36830000D03*
D18*
X125730000Y39370000D03*
X125730000Y41910000D03*
X132080000Y41910000D03*
X132080000Y39370000D03*
D16*
X132080000Y36830000D03*
X138430000Y36830000D03*
D18*
X138430000Y39370000D03*
X138430000Y41910000D03*
D19*
X12700000Y94615000D03*
X27940000Y86995000D03*
X15240000Y94615000D03*
X25400000Y86995000D03*
X17780000Y94615000D03*
X22860000Y86995000D03*
X20320000Y94615000D03*
X20320000Y86995000D03*
X22860000Y94615000D03*
X17780000Y86995000D03*
X25400000Y94615000D03*
X15240000Y86995000D03*
X27940000Y94615000D03*
D20*
X12700000Y86995000D03*
X12700000Y73660000D03*
D19*
X27940000Y81280000D03*
X15240000Y73660000D03*
X25400000Y81280000D03*
X17780000Y73660000D03*
X22860000Y81280000D03*
X20320000Y73660000D03*
X20320000Y81280000D03*
X22860000Y73660000D03*
X17780000Y81280000D03*
X25400000Y73660000D03*
X15240000Y81280000D03*
X27940000Y73660000D03*
X12700000Y81280000D03*
D20*
X34925000Y86995000D03*
D19*
X52705000Y94615000D03*
X37465000Y86995000D03*
X50165000Y94615000D03*
X40005000Y86995000D03*
X47625000Y94615000D03*
X42545000Y86995000D03*
X45085000Y94615000D03*
X45085000Y86995000D03*
X42545000Y94615000D03*
X47625000Y86995000D03*
X40005000Y94615000D03*
X50165000Y86995000D03*
X37465000Y94615000D03*
X52705000Y86995000D03*
X34925000Y94615000D03*
D20*
X33655000Y10160000D03*
D19*
X81915000Y25400000D03*
X36195000Y10160000D03*
X79375000Y25400000D03*
X38735000Y10160000D03*
X76835000Y25400000D03*
X41275000Y10160000D03*
X74295000Y25400000D03*
X43815000Y10160000D03*
X71755000Y25400000D03*
X46355000Y10160000D03*
X69215000Y25400000D03*
X48895000Y10160000D03*
X66675000Y25400000D03*
X51435000Y10160000D03*
X64135000Y25400000D03*
X53975000Y10160000D03*
X61595000Y25400000D03*
X56515000Y10160000D03*
X59055000Y25400000D03*
X59055000Y10160000D03*
X56515000Y25400000D03*
X61595000Y10160000D03*
X53975000Y25400000D03*
X64135000Y10160000D03*
X51435000Y25400000D03*
X66675000Y10160000D03*
X48895000Y25400000D03*
X69215000Y10160000D03*
X46355000Y25400000D03*
X71755000Y10160000D03*
X43815000Y25400000D03*
X74295000Y10160000D03*
X41275000Y25400000D03*
X76835000Y10160000D03*
X38735000Y25400000D03*
X79375000Y10160000D03*
X36195000Y25400000D03*
X81915000Y10160000D03*
X33655000Y25400000D03*
D20*
X34925000Y73660000D03*
D19*
X50165000Y81280000D03*
X37465000Y73660000D03*
X47625000Y81280000D03*
X40005000Y73660000D03*
X45085000Y81280000D03*
X42545000Y73660000D03*
X42545000Y81280000D03*
X45085000Y73660000D03*
X40005000Y81280000D03*
X47625000Y73660000D03*
X37465000Y81280000D03*
X50165000Y73660000D03*
X34925000Y81280000D03*
D20*
X12700000Y59690000D03*
D19*
X27940000Y67310000D03*
X15240000Y59690000D03*
X25400000Y67310000D03*
X17780000Y59690000D03*
X22860000Y67310000D03*
X20320000Y59690000D03*
X20320000Y67310000D03*
X22860000Y59690000D03*
X17780000Y67310000D03*
X25400000Y59690000D03*
X15240000Y67310000D03*
X27940000Y59690000D03*
X12700000Y67310000D03*
X34925000Y67310000D03*
X50165000Y59690000D03*
X37465000Y67310000D03*
X47625000Y59690000D03*
X40005000Y67310000D03*
X45085000Y59690000D03*
X42545000Y67310000D03*
X42545000Y59690000D03*
X45085000Y67310000D03*
X40005000Y59690000D03*
X47625000Y67310000D03*
X37465000Y59690000D03*
X50165000Y67310000D03*
D20*
X34925000Y59690000D03*
X85725000Y53340000D03*
D19*
X103505000Y60960000D03*
X88265000Y53340000D03*
X100965000Y60960000D03*
X90805000Y53340000D03*
X98425000Y60960000D03*
X93345000Y53340000D03*
X95885000Y60960000D03*
X95885000Y53340000D03*
X93345000Y60960000D03*
X98425000Y53340000D03*
X90805000Y60960000D03*
X100965000Y53340000D03*
X88265000Y60960000D03*
X103505000Y53340000D03*
X85725000Y60960000D03*
X110490000Y60960000D03*
X128270000Y53340000D03*
X113030000Y60960000D03*
X125730000Y53340000D03*
X115570000Y60960000D03*
X123190000Y53340000D03*
X118110000Y60960000D03*
X120650000Y53340000D03*
X120650000Y60960000D03*
X118110000Y53340000D03*
X123190000Y60960000D03*
X115570000Y53340000D03*
X125730000Y60960000D03*
X113030000Y53340000D03*
X128270000Y60960000D03*
D20*
X110490000Y53340000D03*
D19*
X42545000Y53340000D03*
X65405000Y45720000D03*
X45085000Y53340000D03*
X62865000Y45720000D03*
X47625000Y53340000D03*
X60325000Y45720000D03*
X50165000Y53340000D03*
X57785000Y45720000D03*
X52705000Y53340000D03*
X55245000Y45720000D03*
X55245000Y53340000D03*
X52705000Y45720000D03*
X57785000Y53340000D03*
X50165000Y45720000D03*
X60325000Y53340000D03*
X47625000Y45720000D03*
X62865000Y53340000D03*
X45085000Y45720000D03*
X65405000Y53340000D03*
D20*
X42545000Y45720000D03*
X12700000Y45720000D03*
D19*
X35560000Y53340000D03*
X15240000Y45720000D03*
X33020000Y53340000D03*
X17780000Y45720000D03*
X30480000Y53340000D03*
X20320000Y45720000D03*
X27940000Y53340000D03*
X22860000Y45720000D03*
X25400000Y53340000D03*
X25400000Y45720000D03*
X22860000Y53340000D03*
X27940000Y45720000D03*
X20320000Y53340000D03*
X30480000Y45720000D03*
X17780000Y53340000D03*
X33020000Y45720000D03*
X15240000Y53340000D03*
X35560000Y45720000D03*
X12700000Y53340000D03*
D11*
X125095000Y31750000D03*
D15*
X122555000Y31750000D03*
X120015000Y31750000D03*
X117475000Y31750000D03*
X114935000Y31750000D03*
X112395000Y31750000D03*
X109855000Y31750000D03*
X107315000Y31750000D03*
X104775000Y31750000D03*
D11*
X125730000Y47625000D03*
D15*
X123190000Y47625000D03*
X120650000Y47625000D03*
X118110000Y47625000D03*
X115570000Y47625000D03*
X113030000Y47625000D03*
X110490000Y47625000D03*
X107950000Y47625000D03*
X105410000Y47625000D03*
X104775000Y19050000D03*
X107315000Y19050000D03*
X109855000Y19050000D03*
X112395000Y19050000D03*
X114935000Y19050000D03*
X117475000Y19050000D03*
X120015000Y19050000D03*
X122555000Y19050000D03*
D11*
X125095000Y19050000D03*
X27940000Y39370000D03*
D15*
X25400000Y39370000D03*
X22860000Y39370000D03*
X20320000Y39370000D03*
X17780000Y39370000D03*
X15240000Y39370000D03*
X12700000Y39370000D03*
X10160000Y39370000D03*
X7620000Y39370000D03*
D20*
X62865000Y66675000D03*
D19*
X95885000Y81915000D03*
X65405000Y66675000D03*
X93345000Y81915000D03*
X67945000Y66675000D03*
X90805000Y81915000D03*
X70485000Y66675000D03*
X88265000Y81915000D03*
X73025000Y66675000D03*
X85725000Y81915000D03*
X75565000Y66675000D03*
X83185000Y81915000D03*
X78105000Y66675000D03*
X80645000Y81915000D03*
X80645000Y66675000D03*
X78105000Y81915000D03*
X83185000Y66675000D03*
X75565000Y81915000D03*
X85725000Y66675000D03*
X73025000Y81915000D03*
X88265000Y66675000D03*
X70485000Y81915000D03*
X90805000Y66675000D03*
X67945000Y81915000D03*
X93345000Y66675000D03*
X65405000Y81915000D03*
X95885000Y66675000D03*
X62865000Y81915000D03*
D21*
X12446000Y21255000D03*
D22*
X12446000Y18955000D03*
D23*
X12446000Y16955000D03*
X12446000Y14955000D03*
X12446000Y10955000D03*
D21*
X12446000Y8655000D03*
X17907000Y8670000D03*
D23*
X17907000Y10970000D03*
X17907000Y14970000D03*
X17907000Y16970000D03*
D22*
X17907000Y18970000D03*
D21*
X17907000Y21270000D03*
X23368000Y21270000D03*
D22*
X23368000Y18970000D03*
D23*
X23368000Y16970000D03*
X23368000Y14970000D03*
X23368000Y10970000D03*
D21*
X23368000Y8670000D03*
D24*
X95250000Y86995000D03*
D25*
X85090000Y86995000D03*
X62865000Y86995000D03*
D24*
X73025000Y86995000D03*
D16*
X97790000Y93980000D03*
D17*
X95250000Y93980000D03*
X92710000Y93980000D03*
D10*
X74910000Y92365000D03*
D26*
X79910000Y95965000D03*
X69910000Y95965000D03*
D27*
X82361900Y46377900D03*
X128099700Y75565000D03*
X110377700Y78433800D03*
X10082300Y61048400D03*
X22258100Y78664400D03*
X29510000Y62957800D03*
X30317200Y70043300D03*
X55162900Y70193800D03*
X58309900Y67569400D03*
X26877700Y63002200D03*
X112061500Y44588700D03*
X21227200Y43629200D03*
X49309700Y39995000D03*
X51996900Y40515800D03*
X56113000Y39938500D03*
X61185900Y39567200D03*
X67237500Y40389900D03*
X69259200Y39446200D03*
X69247900Y40857900D03*
X49787700Y41166900D03*
X38477300Y40731000D03*
X32368100Y95000000D03*
X21138900Y28426500D03*
X49405300Y63299000D03*
X70821600Y52533700D03*
X69417500Y52639800D03*
X69542800Y42582300D03*
X65298300Y43687500D03*
X66567700Y52133400D03*
X64304600Y52241200D03*
X63711100Y44333600D03*
X62249100Y51763600D03*
X59864100Y55750800D03*
X21590000Y37860900D03*
X91368800Y75529200D03*
X54011700Y56790800D03*
X100760800Y47464200D03*
X105136300Y51839700D03*
X60299700Y47453700D03*
X63812100Y55517500D03*
X83090100Y48014600D03*
X69930800Y52153700D03*
D28*
X31750000Y78740000D02*
X32950400Y77539600D01*
X32950400Y77539600D02*
X32950400Y65970400D01*
X32950400Y65970400D02*
X31750000Y64770000D01*
X34925000Y81280000D02*
X34925000Y82880300D01*
X34925000Y82880300D02*
X33724600Y84080700D01*
X33724600Y84080700D02*
X33724600Y90100400D01*
X33724600Y90100400D02*
X31750000Y92075000D01*
X27940000Y40570300D02*
X29238800Y41869100D01*
X29238800Y41869100D02*
X29238800Y47421900D01*
X29238800Y47421900D02*
X34290000Y52473100D01*
X34290000Y52473100D02*
X34290000Y54172000D01*
X34290000Y54172000D02*
X35077100Y54959100D01*
X35077100Y54959100D02*
X36159800Y54959100D01*
X27940000Y39370000D02*
X27940000Y38169700D01*
X33655000Y27000300D02*
X33655000Y32454700D01*
X33655000Y32454700D02*
X27940000Y38169700D01*
X74295000Y40005000D02*
X74295000Y41205300D01*
X74295000Y41205300D02*
X74295000Y50165000D01*
X74295000Y50165000D02*
X82550000Y58420000D01*
X34925000Y67310000D02*
X34925000Y65709700D01*
X39370000Y50800000D02*
X39370000Y51748900D01*
X39370000Y51748900D02*
X36159800Y54959100D01*
X34925000Y65709700D02*
X36159800Y64474900D01*
X36159800Y64474900D02*
X36159800Y54959100D01*
X12700000Y54940300D02*
X11381300Y56259000D01*
X11381300Y56259000D02*
X11381300Y62913700D01*
X11381300Y62913700D02*
X9525000Y64770000D01*
X125095000Y19050000D02*
X125095000Y20250300D01*
X125095000Y31750000D02*
X125095000Y30549700D01*
X125095000Y30549700D02*
X123159600Y28614300D01*
X123159600Y28614300D02*
X123159600Y22185700D01*
X123159600Y22185700D02*
X125095000Y20250300D01*
X71728400Y83515300D02*
X71728400Y72863900D01*
X71728400Y72863900D02*
X74295000Y70297300D01*
X74295000Y70297300D02*
X74295000Y65774700D01*
X74295000Y65774700D02*
X81649700Y58420000D01*
X81649700Y58420000D02*
X82550000Y58420000D01*
X73025000Y85494700D02*
X71728400Y84198100D01*
X71728400Y84198100D02*
X71728400Y83515300D01*
X67945000Y83515300D02*
X71728400Y83515300D01*
X33655000Y5080000D02*
X33655000Y6280300D01*
X30480000Y19050000D02*
X31680400Y17849600D01*
X31680400Y17849600D02*
X31680400Y8254900D01*
X31680400Y8254900D02*
X33655000Y6280300D01*
X12700000Y67310000D02*
X12700000Y68910300D01*
X12700000Y68910300D02*
X11099700Y70510600D01*
X11099700Y70510600D02*
X11099700Y77165300D01*
X11099700Y77165300D02*
X9525000Y78740000D01*
X12700000Y53340000D02*
X12700000Y54940300D01*
X137160000Y90805000D02*
X137160000Y85725000D01*
X139065000Y92710000D02*
X137160000Y90805000D01*
X129540000Y96520000D02*
X131445000Y96520000D01*
X131445000Y96520000D02*
X137160000Y90805000D01*
X108585000Y70485000D02*
X109785300Y70485000D01*
X119380000Y92710000D02*
X120733000Y91357000D01*
X120733000Y91357000D02*
X120733000Y79714600D01*
X120733000Y79714600D02*
X120413000Y79394600D01*
X120413000Y79394600D02*
X118694900Y79394600D01*
X118694900Y79394600D02*
X109785300Y70485000D01*
X108585000Y70485000D02*
X108585000Y69284700D01*
X110490000Y60960000D02*
X110490000Y67379700D01*
X110490000Y67379700D02*
X108585000Y69284700D01*
X67945000Y81915000D02*
X67945000Y83515300D01*
X73025000Y86995000D02*
X73025000Y85494700D01*
X27940000Y39370000D02*
X27940000Y40570300D01*
X12700000Y81280000D02*
X12700000Y82880300D01*
X12700000Y82880300D02*
X11099700Y84480600D01*
X11099700Y84480600D02*
X11099700Y90500300D01*
X11099700Y90500300D02*
X9525000Y92075000D01*
X33655000Y25400000D02*
X33655000Y27000300D01*
X47625000Y81280000D02*
X47625000Y79679700D01*
X50165000Y73660000D02*
X50165000Y77139700D01*
X50165000Y77139700D02*
X47625000Y79679700D01*
X81915000Y10160000D02*
X81915000Y11760300D01*
X91440000Y13335000D02*
X83489700Y13335000D01*
X83489700Y13335000D02*
X81915000Y11760300D01*
X36790000Y45720000D02*
X36790000Y41429400D01*
X36790000Y41429400D02*
X38255100Y39964300D01*
X38255100Y39964300D02*
X39203400Y39964300D01*
X39203400Y39964300D02*
X43775000Y35392700D01*
X43775000Y35392700D02*
X43775000Y30480000D01*
X103505000Y53340000D02*
X103505000Y51739700D01*
X97790000Y41910000D02*
X97790000Y46024700D01*
X97790000Y46024700D02*
X103505000Y51739700D01*
X65405000Y73065000D02*
X65405000Y66675000D01*
X70485000Y80314700D02*
X65405000Y75234700D01*
X65405000Y75234700D02*
X65405000Y73065000D01*
X59690000Y73065000D02*
X65405000Y73065000D01*
X70485000Y81915000D02*
X70485000Y80314700D01*
X29099000Y62449300D02*
X29240700Y62307500D01*
X29240700Y62307500D02*
X29333400Y62307500D01*
X29333400Y62307500D02*
X29370900Y62270000D01*
X29370900Y62270000D02*
X31750000Y62270000D01*
X27940000Y72059700D02*
X29145300Y70854400D01*
X29145300Y70854400D02*
X29145300Y63512700D01*
X29145300Y63512700D02*
X28859700Y63227100D01*
X28859700Y63227100D02*
X28859700Y62688500D01*
X28859700Y62688500D02*
X29099000Y62449300D01*
X29099000Y62449300D02*
X27940000Y61290300D01*
X27940000Y59690000D02*
X27940000Y61290300D01*
X27940000Y73660000D02*
X27940000Y72059700D01*
X75565000Y81915000D02*
X75565000Y83515300D01*
X74910000Y92365000D02*
X74910000Y84170300D01*
X74910000Y84170300D02*
X75565000Y83515300D01*
X82550000Y55920000D02*
X82361900Y55731900D01*
X82361900Y55731900D02*
X82361900Y46377900D01*
X9525000Y48300000D02*
X10781000Y49556000D01*
X10781000Y49556000D02*
X10781000Y61269400D01*
X10781000Y61269400D02*
X9780400Y62270000D01*
X9780400Y62270000D02*
X9525000Y62270000D01*
X36790000Y45720000D02*
X39370000Y48300000D01*
X35560000Y45720000D02*
X36790000Y45720000D01*
X38735000Y11760300D02*
X42545000Y15570300D01*
X42545000Y15570300D02*
X42545000Y29250000D01*
X42545000Y29250000D02*
X43775000Y30480000D01*
X80645000Y81915000D02*
X80645000Y80314700D01*
X80645000Y80314700D02*
X81915000Y79044700D01*
X81915000Y79044700D02*
X81915000Y62922400D01*
X81915000Y62922400D02*
X83768400Y61069000D01*
X83768400Y61069000D02*
X83768400Y57138400D01*
X83768400Y57138400D02*
X82550000Y55920000D01*
X38735000Y10160000D02*
X38735000Y11760300D01*
X9525000Y48300000D02*
X11430000Y46395000D01*
X11430000Y46395000D02*
X11430000Y38144000D01*
X11430000Y38144000D02*
X13395400Y36178600D01*
X13395400Y36178600D02*
X13395400Y31625400D01*
X13395400Y31625400D02*
X12145000Y30375000D01*
X9525000Y76240000D02*
X8313600Y77451400D01*
X8313600Y77451400D02*
X8313600Y88363600D01*
X8313600Y88363600D02*
X9525000Y89575000D01*
X9525000Y76240000D02*
X8312300Y75027300D01*
X8312300Y75027300D02*
X8312300Y63482700D01*
X8312300Y63482700D02*
X9525000Y62270000D01*
X27940000Y85394700D02*
X27914400Y85394700D01*
X27914400Y85394700D02*
X25400000Y82880300D01*
X140616600Y66040000D02*
X142525000Y66040000D01*
X131445000Y78105000D02*
X135125000Y74425000D01*
X135125000Y74425000D02*
X135125000Y71531600D01*
X135125000Y71531600D02*
X140616600Y66040000D01*
X140616600Y66040000D02*
X140616600Y42786600D01*
X140616600Y42786600D02*
X139740000Y41910000D01*
X139740000Y41910000D02*
X144185000Y37465000D01*
X138430000Y41910000D02*
X139740000Y41910000D01*
X138430000Y13335000D02*
X144185000Y19090000D01*
X144185000Y19090000D02*
X144185000Y37465000D01*
X132080000Y13335000D02*
X138430000Y13335000D01*
X25400000Y81280000D02*
X25400000Y82880300D01*
X27940000Y86995000D02*
X27940000Y85394700D01*
X103505000Y54140200D02*
X105535200Y54140200D01*
X105535200Y54140200D02*
X107315000Y55920000D01*
X103505000Y54140200D02*
X103505000Y54940300D01*
X103505000Y53340000D02*
X103505000Y54140200D01*
X128270000Y53340000D02*
X128270000Y51739700D01*
X128270000Y51739700D02*
X132080000Y47929700D01*
X132080000Y47929700D02*
X132080000Y41910000D01*
X95885000Y66675000D02*
X95885000Y65074700D01*
X95885000Y65074700D02*
X96410100Y65074700D01*
X96410100Y65074700D02*
X99695000Y61789800D01*
X99695000Y61789800D02*
X99695000Y58750300D01*
X99695000Y58750300D02*
X103505000Y54940300D01*
D29*
X15240000Y86995000D02*
X15240000Y85494700D01*
X20320000Y67310000D02*
X20320000Y68810300D01*
X20320000Y68810300D02*
X16679600Y72450700D01*
X16679600Y72450700D02*
X16679600Y84055100D01*
X16679600Y84055100D02*
X15240000Y85494700D01*
X40005000Y67310000D02*
X40005000Y59690000D01*
X109220000Y92710000D02*
X109220000Y91609700D01*
X109220000Y91609700D02*
X106680000Y89069700D01*
X106680000Y89069700D02*
X106680000Y88900000D01*
X119380000Y96520000D02*
X119380000Y95419700D01*
X119380000Y95419700D02*
X118279200Y94318900D01*
X118279200Y94318900D02*
X118279200Y90000800D01*
X118279200Y90000800D02*
X119380000Y88900000D01*
X128905000Y92710000D02*
X128905000Y91609700D01*
X128905000Y91609700D02*
X131445000Y89069700D01*
X131445000Y89069700D02*
X131445000Y88900000D01*
X90170000Y24765000D02*
X90170000Y25965300D01*
X88265000Y53340000D02*
X88265000Y27870300D01*
X88265000Y27870300D02*
X90170000Y25965300D01*
X96520000Y24765000D02*
X96520000Y25965300D01*
X98425000Y53340000D02*
X98425000Y51839700D01*
X98425000Y51839700D02*
X90263800Y43678500D01*
X90263800Y43678500D02*
X90263800Y32221500D01*
X90263800Y32221500D02*
X96520000Y25965300D01*
X100965000Y60960000D02*
X100965000Y59459700D01*
X100965000Y59459700D02*
X103254700Y57170000D01*
X103254700Y57170000D02*
X107636200Y57170000D01*
X107636200Y57170000D02*
X108934900Y55871300D01*
X108934900Y55871300D02*
X108934900Y52213100D01*
X108934900Y52213100D02*
X109077400Y52070600D01*
X109077400Y52070600D02*
X109077400Y45215500D01*
X109077400Y45215500D02*
X104501900Y40640000D01*
X104501900Y40640000D02*
X103777000Y40640000D01*
X103777000Y40640000D02*
X102870000Y39733000D01*
X102870000Y39733000D02*
X102870000Y24765000D01*
X109220000Y24765000D02*
X108019700Y24765000D01*
X90805000Y60960000D02*
X90805000Y58787700D01*
X90805000Y58787700D02*
X89643400Y57626100D01*
X89643400Y57626100D02*
X89643400Y30227300D01*
X89643400Y30227300D02*
X94756700Y25114000D01*
X94756700Y25114000D02*
X94756700Y24242400D01*
X94756700Y24242400D02*
X95434400Y23564700D01*
X95434400Y23564700D02*
X106819400Y23564700D01*
X106819400Y23564700D02*
X108019700Y24765000D01*
X118110000Y25965300D02*
X116205000Y27870300D01*
X116205000Y27870300D02*
X116205000Y35523100D01*
X116205000Y35523100D02*
X114162400Y37565700D01*
X114162400Y37565700D02*
X114162400Y50707300D01*
X114162400Y50707300D02*
X113030000Y51839700D01*
X118110000Y24765000D02*
X118110000Y25965300D01*
X113030000Y53340000D02*
X113030000Y51839700D01*
X97790000Y93980000D02*
X98940300Y93980000D01*
X136525000Y66040000D02*
X136525000Y68090300D01*
X136525000Y68090300D02*
X125046300Y79569000D01*
X125046300Y79569000D02*
X125046300Y92432600D01*
X125046300Y92432600D02*
X119858200Y97620700D01*
X119858200Y97620700D02*
X102581000Y97620700D01*
X102581000Y97620700D02*
X98940300Y93980000D01*
X119380000Y80645000D02*
X108585000Y80645000D01*
X76835000Y11660300D02*
X85325100Y20150400D01*
X85325100Y20150400D02*
X106846500Y20150400D01*
X106846500Y20150400D02*
X110420400Y23724300D01*
X110420400Y23724300D02*
X110420400Y25965400D01*
X110420400Y25965400D02*
X110959800Y26504800D01*
X110959800Y26504800D02*
X110959800Y32644800D01*
X110959800Y32644800D02*
X109298300Y34306300D01*
X109298300Y34306300D02*
X109298300Y43260400D01*
X109298300Y43260400D02*
X111618400Y45580500D01*
X111618400Y45580500D02*
X111618400Y56056400D01*
X111618400Y56056400D02*
X114386400Y58824400D01*
X114386400Y58824400D02*
X114386400Y61851700D01*
X114386400Y61851700D02*
X128099700Y75565000D01*
X76835000Y10160000D02*
X76835000Y11660300D01*
X48895000Y34925000D02*
X48895000Y33824700D01*
X48895000Y33824700D02*
X48855000Y33784700D01*
X48855000Y33784700D02*
X48855000Y30480000D01*
X48895000Y34925000D02*
X48895000Y38735000D01*
X41275000Y25400000D02*
X41275000Y30480000D01*
X124460000Y24765000D02*
X124460000Y25965300D01*
X123190000Y53340000D02*
X123190000Y51839700D01*
X123190000Y51839700D02*
X119542000Y48191700D01*
X119542000Y48191700D02*
X119542000Y46466100D01*
X119542000Y46466100D02*
X125368100Y40640000D01*
X125368100Y40640000D02*
X126124300Y40640000D01*
X126124300Y40640000D02*
X126880400Y39883900D01*
X126880400Y39883900D02*
X126880400Y28385700D01*
X126880400Y28385700D02*
X124460000Y25965300D01*
X125730000Y59459700D02*
X133244500Y51945200D01*
X133244500Y51945200D02*
X133244500Y28399800D01*
X133244500Y28399800D02*
X130810000Y25965300D01*
X130810000Y24765000D02*
X130810000Y25965300D01*
X125730000Y60960000D02*
X125730000Y59459700D01*
X115570000Y60960000D02*
X115570000Y62460300D01*
X115570000Y62460300D02*
X126198600Y62460300D01*
X126198600Y62460300D02*
X127000000Y61658900D01*
X127000000Y61658900D02*
X127000000Y60251600D01*
X127000000Y60251600D02*
X137160000Y50091600D01*
X137160000Y50091600D02*
X137160000Y24765000D01*
X104140000Y80645000D02*
X106351200Y78433800D01*
X106351200Y78433800D02*
X110377700Y78433800D01*
X43815000Y10160000D02*
X43815000Y5080000D01*
X74295000Y25400000D02*
X74295000Y29845000D01*
X38735000Y38735000D02*
X38735000Y37634700D01*
X38735000Y25400000D02*
X38735000Y26900300D01*
X38735000Y26900300D02*
X37594700Y28040600D01*
X37594700Y28040600D02*
X37594700Y36494400D01*
X37594700Y36494400D02*
X38735000Y37634700D01*
X12145000Y32915000D02*
X12145000Y31764700D01*
X12446000Y14955000D02*
X12446000Y15930300D01*
X12446000Y15930300D02*
X12080300Y15930300D01*
X12080300Y15930300D02*
X10568800Y17441800D01*
X10568800Y17441800D02*
X10568800Y30476100D01*
X10568800Y30476100D02*
X11857400Y31764700D01*
X11857400Y31764700D02*
X12145000Y31764700D01*
X17907000Y14970000D02*
X17907000Y15945300D01*
X17907000Y15945300D02*
X17541300Y15945300D01*
X17541300Y15945300D02*
X15419200Y18067400D01*
X15419200Y18067400D02*
X15419200Y24560800D01*
X15419200Y24560800D02*
X12145000Y27835000D01*
X15240000Y94615000D02*
X15240000Y93114700D01*
X15240000Y93114700D02*
X10595500Y93114700D01*
X10595500Y93114700D02*
X10496300Y93213900D01*
X10496300Y93213900D02*
X9045100Y93213900D01*
X9045100Y93213900D02*
X7811900Y91980700D01*
X7811900Y91980700D02*
X7811900Y62335200D01*
X7811900Y62335200D02*
X9098700Y61048400D01*
X9098700Y61048400D02*
X10082300Y61048400D01*
X25400000Y85494700D02*
X24130000Y84224700D01*
X24130000Y84224700D02*
X24130000Y80536300D01*
X24130000Y80536300D02*
X22258100Y78664400D01*
X25400000Y86995000D02*
X25400000Y85494700D01*
X17780000Y94615000D02*
X17780000Y96115300D01*
X95885000Y60526500D02*
X91919200Y64492300D01*
X91919200Y64492300D02*
X91919200Y75765900D01*
X91919200Y75765900D02*
X86869900Y80815200D01*
X86869900Y80815200D02*
X86869900Y82729700D01*
X86869900Y82729700D02*
X85136100Y84463500D01*
X85136100Y84463500D02*
X84988400Y84463500D01*
X84988400Y84463500D02*
X72401300Y97050600D01*
X72401300Y97050600D02*
X18715300Y97050600D01*
X18715300Y97050600D02*
X17780000Y96115300D01*
X95885000Y60526500D02*
X95885000Y59459700D01*
X95885000Y60960000D02*
X95885000Y60526500D01*
X93345000Y53340000D02*
X93345000Y56919700D01*
X93345000Y56919700D02*
X95885000Y59459700D01*
X120650000Y60960000D02*
X120650000Y59459700D01*
X118110000Y53340000D02*
X118110000Y56919700D01*
X118110000Y56919700D02*
X120650000Y59459700D01*
X22860000Y86995000D02*
X22860000Y85494700D01*
X36195000Y25400000D02*
X36195000Y23899700D01*
X36195000Y23899700D02*
X24874800Y23899700D01*
X24874800Y23899700D02*
X20549800Y28224700D01*
X20549800Y28224700D02*
X20549800Y33582700D01*
X20549800Y33582700D02*
X23960400Y36993300D01*
X23960400Y36993300D02*
X23960400Y76026000D01*
X23960400Y76026000D02*
X21690400Y78296000D01*
X21690400Y78296000D02*
X21690400Y84325100D01*
X21690400Y84325100D02*
X22860000Y85494700D01*
X22860000Y93114700D02*
X23838100Y93114700D01*
X23838100Y93114700D02*
X29097500Y87855300D01*
X29097500Y87855300D02*
X29097500Y85711300D01*
X29097500Y85711300D02*
X26670000Y83283800D01*
X26670000Y83283800D02*
X26670000Y63572700D01*
X26670000Y63572700D02*
X25400000Y62302700D01*
X25400000Y62302700D02*
X25400000Y61190300D01*
X22860000Y94615000D02*
X22860000Y93114700D01*
X25400000Y59690000D02*
X25400000Y61190300D01*
X30317200Y70043300D02*
X30317200Y90737500D01*
X30317200Y90737500D02*
X27940000Y93114700D01*
X29510000Y62957800D02*
X30317200Y63765000D01*
X30317200Y63765000D02*
X30317200Y70043300D01*
X27940000Y94615000D02*
X27940000Y93114700D01*
X17780000Y75160300D02*
X19050000Y76430300D01*
X19050000Y76430300D02*
X19050000Y89217000D01*
X19050000Y89217000D02*
X21490300Y91657300D01*
X21490300Y91657300D02*
X21490300Y95207000D01*
X21490300Y95207000D02*
X22807700Y96524400D01*
X22807700Y96524400D02*
X47215900Y96524400D01*
X47215900Y96524400D02*
X47625000Y96115300D01*
X17780000Y73660000D02*
X17780000Y75160300D01*
X47625000Y94615000D02*
X47625000Y96115300D01*
X37465000Y67310000D02*
X37465000Y68810300D01*
X42545000Y86995000D02*
X42545000Y85494700D01*
X42545000Y85494700D02*
X42169900Y85494700D01*
X42169900Y85494700D02*
X38735000Y82059800D01*
X38735000Y82059800D02*
X38735000Y70080300D01*
X38735000Y70080300D02*
X37465000Y68810300D01*
X74295000Y10160000D02*
X74295000Y16617800D01*
X74295000Y16617800D02*
X80507700Y22830500D01*
X80507700Y22830500D02*
X80507700Y31190000D01*
X80507700Y31190000D02*
X72455100Y39242600D01*
X72455100Y39242600D02*
X72455100Y52259900D01*
X72455100Y52259900D02*
X69834100Y54880900D01*
X69834100Y54880900D02*
X69621800Y54880900D01*
X69621800Y54880900D02*
X51435000Y73067700D01*
X51435000Y73067700D02*
X51435000Y87720900D01*
X51435000Y87720900D02*
X46041200Y93114700D01*
X46041200Y93114700D02*
X42545000Y93114700D01*
X42545000Y94615000D02*
X42545000Y93114700D01*
X50165000Y86995000D02*
X50165000Y85494700D01*
X48895000Y10160000D02*
X48895000Y11660300D01*
X48895000Y11660300D02*
X47605000Y12950300D01*
X47605000Y12950300D02*
X47605000Y38235300D01*
X47605000Y38235300D02*
X41444700Y44395600D01*
X41444700Y44395600D02*
X41444700Y47044400D01*
X41444700Y47044400D02*
X43645400Y49245100D01*
X43645400Y49245100D02*
X43645400Y54930300D01*
X43645400Y54930300D02*
X46187900Y57472800D01*
X46187900Y57472800D02*
X46187900Y63291700D01*
X46187900Y63291700D02*
X43944400Y65535200D01*
X43944400Y65535200D02*
X43944400Y77939200D01*
X43944400Y77939200D02*
X46355000Y80349800D01*
X46355000Y80349800D02*
X46355000Y82026700D01*
X46355000Y82026700D02*
X49823000Y85494700D01*
X49823000Y85494700D02*
X50165000Y85494700D01*
X81915000Y25400000D02*
X81915000Y30388600D01*
X81915000Y30388600D02*
X72855400Y39448200D01*
X72855400Y39448200D02*
X72855400Y52433600D01*
X72855400Y52433600D02*
X70007800Y55281200D01*
X70007800Y55281200D02*
X69787900Y55281200D01*
X69787900Y55281200D02*
X55162900Y69906200D01*
X55162900Y69906200D02*
X55162900Y70193800D01*
X45085000Y73660000D02*
X45085000Y72159700D01*
X79375000Y25400000D02*
X79375000Y26900300D01*
X79375000Y26900300D02*
X71913400Y34361900D01*
X71913400Y34361900D02*
X71913400Y52235500D01*
X71913400Y52235500D02*
X69809900Y54339000D01*
X69809900Y54339000D02*
X69541700Y54339000D01*
X69541700Y54339000D02*
X51721000Y72159700D01*
X51721000Y72159700D02*
X45085000Y72159700D01*
X34925000Y72159700D02*
X36025300Y71059400D01*
X36025300Y71059400D02*
X36025300Y65854900D01*
X36025300Y65854900D02*
X38735000Y63145200D01*
X38735000Y63145200D02*
X38735000Y57366900D01*
X38735000Y57366900D02*
X40483000Y55618900D01*
X40483000Y55618900D02*
X40483000Y50295700D01*
X40483000Y50295700D02*
X39737300Y49550000D01*
X39737300Y49550000D02*
X37378200Y49550000D01*
X37378200Y49550000D02*
X34457000Y46628800D01*
X34457000Y46628800D02*
X34457000Y29637700D01*
X34457000Y29637700D02*
X37465000Y26629700D01*
X37465000Y26629700D02*
X37465000Y9451700D01*
X37465000Y9451700D02*
X38257000Y8659700D01*
X38257000Y8659700D02*
X41275000Y8659700D01*
X34925000Y73660000D02*
X34925000Y72159700D01*
X41275000Y10160000D02*
X41275000Y8659700D01*
X45085000Y58189700D02*
X41444700Y54549400D01*
X41444700Y54549400D02*
X41444700Y47610500D01*
X41444700Y47610500D02*
X41044400Y47210200D01*
X41044400Y47210200D02*
X41044400Y44229800D01*
X41044400Y44229800D02*
X44877900Y40396300D01*
X44877900Y40396300D02*
X44877900Y27963200D01*
X44877900Y27963200D02*
X43815000Y26900300D01*
X45085000Y59690000D02*
X45085000Y58189700D01*
X43815000Y25400000D02*
X43815000Y26900300D01*
X42545000Y65809700D02*
X45085000Y63269700D01*
X45085000Y63269700D02*
X45085000Y59690000D01*
X42545000Y67310000D02*
X42545000Y65809700D01*
X65405000Y81915000D02*
X65405000Y79688700D01*
X65405000Y79688700D02*
X60031300Y74315000D01*
X60031300Y74315000D02*
X59310500Y74315000D01*
X59310500Y74315000D02*
X58309900Y73314400D01*
X58309900Y73314400D02*
X58309900Y67569400D01*
X26877700Y63002200D02*
X27940000Y64064500D01*
X27940000Y64064500D02*
X27940000Y67310000D01*
X42545000Y45720000D02*
X42545000Y47220300D01*
X42545000Y47220300D02*
X45085000Y49760300D01*
X45085000Y49760300D02*
X45085000Y51839700D01*
X50165000Y65809700D02*
X48855000Y64499700D01*
X48855000Y64499700D02*
X48855000Y58610300D01*
X48855000Y58610300D02*
X45085000Y54840300D01*
X50165000Y67310000D02*
X50165000Y65809700D01*
X45085000Y53340000D02*
X45085000Y54840300D01*
X45085000Y52589900D02*
X45085000Y53340000D01*
X45085000Y52589900D02*
X45085000Y51839700D01*
X120650000Y47625000D02*
X121750300Y47625000D01*
X121750300Y47625000D02*
X121750300Y47487300D01*
X121750300Y47487300D02*
X122712900Y46524700D01*
X122712900Y46524700D02*
X124925300Y46524700D01*
X124925300Y46524700D02*
X132080000Y39370000D01*
X118110000Y47625000D02*
X118110000Y46524700D01*
X118110000Y46524700D02*
X118575300Y46524700D01*
X118575300Y46524700D02*
X125730000Y39370000D01*
X115570000Y47625000D02*
X115570000Y43180000D01*
X115570000Y43180000D02*
X119380000Y39370000D01*
X110490000Y39370000D02*
X112061500Y40941500D01*
X112061500Y40941500D02*
X112061500Y44588700D01*
X112061500Y44588700D02*
X113030000Y45557200D01*
X113030000Y45557200D02*
X113030000Y47625000D01*
X110490000Y47625000D02*
X110490000Y46524700D01*
X110490000Y46524700D02*
X110490000Y45720000D01*
X110490000Y45720000D02*
X104140000Y39370000D01*
X107950000Y47625000D02*
X106849700Y47625000D01*
X106849700Y47625000D02*
X106849700Y47487500D01*
X106849700Y47487500D02*
X98732200Y39370000D01*
X98732200Y39370000D02*
X97790000Y39370000D01*
X15240000Y45720000D02*
X15240000Y44219700D01*
X21227200Y43629200D02*
X15830500Y43629200D01*
X15830500Y43629200D02*
X15240000Y44219700D01*
X105410000Y47625000D02*
X104309700Y47625000D01*
X104309700Y47625000D02*
X104309700Y46799800D01*
X104309700Y46799800D02*
X98149900Y40640000D01*
X98149900Y40640000D02*
X92710000Y40640000D01*
X92710000Y40640000D02*
X91440000Y39370000D01*
X45085000Y44219700D02*
X49309700Y39995000D01*
X45085000Y45720000D02*
X45085000Y44219700D01*
X104775000Y19050000D02*
X99695000Y19050000D01*
X99695000Y19050000D02*
X91440000Y10795000D01*
X51996900Y40515800D02*
X50165000Y42347700D01*
X50165000Y42347700D02*
X50165000Y45720000D01*
X107315000Y19050000D02*
X106214700Y19050000D01*
X106214700Y19050000D02*
X106214700Y18912500D01*
X106214700Y18912500D02*
X98097200Y10795000D01*
X98097200Y10795000D02*
X97790000Y10795000D01*
X55245000Y45720000D02*
X55245000Y40806500D01*
X55245000Y40806500D02*
X56113000Y39938500D01*
X109855000Y19050000D02*
X109855000Y16510000D01*
X109855000Y16510000D02*
X104140000Y10795000D01*
X60325000Y44219700D02*
X60325000Y40428100D01*
X60325000Y40428100D02*
X61185900Y39567200D01*
X60325000Y45720000D02*
X60325000Y44219700D01*
X110490000Y10795000D02*
X112395000Y12700000D01*
X112395000Y12700000D02*
X112395000Y19050000D01*
X65405000Y53340000D02*
X66139400Y53340000D01*
X66139400Y53340000D02*
X67237500Y52241900D01*
X67237500Y52241900D02*
X67237500Y40389900D01*
X114935000Y19050000D02*
X114935000Y15240000D01*
X114935000Y15240000D02*
X119380000Y10795000D01*
X60325000Y54840300D02*
X61557700Y56073000D01*
X61557700Y56073000D02*
X65295900Y56073000D01*
X65295900Y56073000D02*
X68319000Y53049900D01*
X68319000Y53049900D02*
X68319000Y40386400D01*
X68319000Y40386400D02*
X69259200Y39446200D01*
X60325000Y53340000D02*
X60325000Y54840300D01*
X117475000Y19050000D02*
X118575300Y19050000D01*
X118575300Y19050000D02*
X118575300Y17949700D01*
X118575300Y17949700D02*
X125730000Y10795000D01*
X55245000Y54840300D02*
X56889900Y56485200D01*
X56889900Y56485200D02*
X65450100Y56485200D01*
X65450100Y56485200D02*
X68867200Y53068100D01*
X68867200Y53068100D02*
X68867200Y41238600D01*
X68867200Y41238600D02*
X69247900Y40857900D01*
X55245000Y53340000D02*
X55245000Y54840300D01*
X120015000Y19050000D02*
X121115300Y19050000D01*
X121115300Y19050000D02*
X121115300Y18912300D01*
X121115300Y18912300D02*
X122077900Y17949700D01*
X122077900Y17949700D02*
X124925300Y17949700D01*
X124925300Y17949700D02*
X132080000Y10795000D01*
X50165000Y53340000D02*
X50165000Y51839700D01*
X49787700Y41166900D02*
X49036800Y41917800D01*
X49036800Y41917800D02*
X49036800Y50711500D01*
X49036800Y50711500D02*
X50165000Y51839700D01*
X47625000Y85494700D02*
X47283000Y85494700D01*
X47283000Y85494700D02*
X43815000Y82026700D01*
X43815000Y82026700D02*
X43815000Y78376100D01*
X43815000Y78376100D02*
X41275000Y75836100D01*
X41275000Y75836100D02*
X41275000Y54946000D01*
X41275000Y54946000D02*
X40990000Y54661000D01*
X40990000Y54661000D02*
X40990000Y47721900D01*
X40990000Y47721900D02*
X38477300Y45209200D01*
X38477300Y45209200D02*
X38477300Y40731000D01*
X47625000Y86995000D02*
X47625000Y85494700D01*
X22860000Y39370000D02*
X22860000Y38269700D01*
X12446000Y16955000D02*
X12446000Y16787600D01*
X12446000Y16787600D02*
X16092500Y13141100D01*
X16092500Y13141100D02*
X16092500Y11391200D01*
X16092500Y11391200D02*
X17515800Y9967900D01*
X17515800Y9967900D02*
X18375600Y9967900D01*
X18375600Y9967900D02*
X20068400Y11660700D01*
X20068400Y11660700D02*
X20068400Y35478100D01*
X20068400Y35478100D02*
X22860000Y38269700D01*
X20320000Y38269700D02*
X19463900Y37413600D01*
X19463900Y37413600D02*
X19463900Y21136500D01*
X19463900Y21136500D02*
X18272700Y19945300D01*
X18272700Y19945300D02*
X17907000Y19945300D01*
X20320000Y39370000D02*
X20320000Y38269700D01*
X17907000Y18970000D02*
X17907000Y19945300D01*
X17780000Y39370000D02*
X17780000Y38269700D01*
X17907000Y16970000D02*
X17907000Y17945300D01*
X17907000Y17945300D02*
X17053600Y17945300D01*
X17053600Y17945300D02*
X16700400Y18298500D01*
X16700400Y18298500D02*
X16700400Y37190100D01*
X16700400Y37190100D02*
X17780000Y38269700D01*
X17907000Y10970000D02*
X17907000Y11945300D01*
X17907000Y11945300D02*
X13818600Y16033700D01*
X13818600Y16033700D02*
X13818600Y22376000D01*
X13818600Y22376000D02*
X10994700Y25199900D01*
X10994700Y25199900D02*
X10994700Y28382100D01*
X10994700Y28382100D02*
X11605700Y28993100D01*
X11605700Y28993100D02*
X12407200Y28993100D01*
X12407200Y28993100D02*
X15240000Y31825900D01*
X15240000Y31825900D02*
X15240000Y39370000D01*
X15240000Y53340000D02*
X15240000Y51839700D01*
X12700000Y45720000D02*
X12700000Y49299700D01*
X12700000Y49299700D02*
X15240000Y51839700D01*
X12700000Y39370000D02*
X12700000Y45720000D01*
X12700000Y86995000D02*
X12700000Y85494700D01*
X15240000Y53340000D02*
X15240000Y54840300D01*
X15240000Y54840300D02*
X13800300Y56280000D01*
X13800300Y56280000D02*
X13800300Y84394400D01*
X13800300Y84394400D02*
X12700000Y85494700D01*
X45085000Y94615000D02*
X45085000Y96115300D01*
X45085000Y96115300D02*
X33483400Y96115300D01*
X33483400Y96115300D02*
X32368100Y95000000D01*
X25400000Y39370000D02*
X25400000Y40470300D01*
X25400000Y40470300D02*
X26500300Y41570600D01*
X26500300Y41570600D02*
X26500300Y54731100D01*
X26500300Y54731100D02*
X33450800Y61681600D01*
X33450800Y61681600D02*
X33450800Y76016700D01*
X33450800Y76016700D02*
X36025300Y78591200D01*
X36025300Y78591200D02*
X36025300Y84394400D01*
X36025300Y84394400D02*
X34925000Y85494700D01*
X21138900Y28426500D02*
X25400000Y32687600D01*
X25400000Y32687600D02*
X25400000Y39370000D01*
X34925000Y86995000D02*
X34925000Y85494700D01*
X85725000Y80414700D02*
X86870100Y79269600D01*
X86870100Y79269600D02*
X86870100Y55985400D01*
X86870100Y55985400D02*
X85725000Y54840300D01*
X47625000Y51839700D02*
X46513700Y50728400D01*
X46513700Y50728400D02*
X46513700Y43662700D01*
X46513700Y43662700D02*
X50165000Y40011400D01*
X50165000Y40011400D02*
X50165000Y15470300D01*
X50165000Y15470300D02*
X53975000Y11660300D01*
X47625000Y54840300D02*
X51305100Y58520400D01*
X51305100Y58520400D02*
X51305100Y61399200D01*
X51305100Y61399200D02*
X49405300Y63299000D01*
X47625000Y53340000D02*
X47625000Y54840300D01*
X47625000Y52961700D02*
X47625000Y53340000D01*
X47625000Y52961700D02*
X47625000Y51839700D01*
X53975000Y10160000D02*
X53975000Y11660300D01*
X85725000Y53340000D02*
X85725000Y54840300D01*
X85725000Y81915000D02*
X85725000Y80414700D01*
X71755000Y26900300D02*
X70821600Y27833700D01*
X70821600Y27833700D02*
X70821600Y52533700D01*
X71755000Y25400000D02*
X71755000Y26900300D01*
X69417500Y52639800D02*
X69344700Y52567000D01*
X69344700Y52567000D02*
X69344700Y42780400D01*
X69344700Y42780400D02*
X69542800Y42582300D01*
X69215000Y26900300D02*
X69814100Y27499400D01*
X69814100Y27499400D02*
X69814100Y42311000D01*
X69814100Y42311000D02*
X69542800Y42582300D01*
X69215000Y25400000D02*
X69215000Y26900300D01*
X66424400Y43687500D02*
X66424400Y27150900D01*
X66424400Y27150900D02*
X66675000Y26900300D01*
X66567700Y52133400D02*
X66567700Y43830800D01*
X66567700Y43830800D02*
X66424400Y43687500D01*
X66424400Y43687500D02*
X65298300Y43687500D01*
X66675000Y25400000D02*
X66675000Y26900300D01*
X64071700Y44333600D02*
X64071700Y52008300D01*
X64071700Y52008300D02*
X64304600Y52241200D01*
X64071700Y44333600D02*
X64071700Y26963600D01*
X64071700Y26963600D02*
X64135000Y26900300D01*
X63711100Y44333600D02*
X64071700Y44333600D01*
X64135000Y25400000D02*
X64135000Y26900300D01*
X61595000Y26900300D02*
X61750000Y27055300D01*
X61750000Y27055300D02*
X61750000Y47015700D01*
X61750000Y47015700D02*
X62249100Y47514800D01*
X62249100Y47514800D02*
X62249100Y51763600D01*
X61595000Y25400000D02*
X61595000Y26900300D01*
X56515000Y11660300D02*
X52547300Y15628000D01*
X52547300Y15628000D02*
X52547300Y40951400D01*
X52547300Y40951400D02*
X51604400Y41894300D01*
X51604400Y41894300D02*
X51604400Y50739100D01*
X51604400Y50739100D02*
X52705000Y51839700D01*
X100965000Y53340000D02*
X100965000Y54840300D01*
X88265000Y81915000D02*
X88265000Y80414700D01*
X88265000Y80414700D02*
X94537100Y74142600D01*
X94537100Y74142600D02*
X94537100Y65452400D01*
X94537100Y65452400D02*
X97155000Y62834500D01*
X97155000Y62834500D02*
X97155000Y58650300D01*
X97155000Y58650300D02*
X100965000Y54840300D01*
X56515000Y10160000D02*
X56515000Y11660300D01*
X52705000Y53340000D02*
X52705000Y51839700D01*
X59864100Y55750800D02*
X59055000Y54941700D01*
X59055000Y54941700D02*
X59055000Y25400000D01*
X59055000Y10160000D02*
X59055000Y11660300D01*
X57785000Y53340000D02*
X57785000Y51839700D01*
X57785000Y51839700D02*
X56675200Y50729900D01*
X56675200Y50729900D02*
X56675200Y33453800D01*
X56675200Y33453800D02*
X55334400Y32113000D01*
X55334400Y32113000D02*
X55334400Y15380900D01*
X55334400Y15380900D02*
X59055000Y11660300D01*
X90805000Y80414700D02*
X103505000Y67714700D01*
X103505000Y67714700D02*
X103505000Y60960000D01*
X90805000Y81915000D02*
X90805000Y80414700D01*
X21590000Y37860900D02*
X21590000Y43213700D01*
X21590000Y43213700D02*
X21777500Y43401200D01*
X21777500Y43401200D02*
X21777500Y43857200D01*
X21777500Y43857200D02*
X21683700Y43951000D01*
X21683700Y43951000D02*
X21683700Y50663400D01*
X21683700Y50663400D02*
X22860000Y51839700D01*
X22860000Y53340000D02*
X22860000Y51839700D01*
X62865000Y53340000D02*
X64369500Y54844500D01*
X64369500Y54844500D02*
X65936400Y54844500D01*
X65936400Y54844500D02*
X67790500Y52990400D01*
X67790500Y52990400D02*
X67790500Y13475700D01*
X67790500Y13475700D02*
X65405000Y11090200D01*
X65405000Y11090200D02*
X65405000Y9417100D01*
X65405000Y9417100D02*
X64647600Y8659700D01*
X64647600Y8659700D02*
X63095300Y8659700D01*
X63095300Y8659700D02*
X61595000Y10160000D01*
X91368800Y75529200D02*
X89535000Y73695400D01*
X89535000Y73695400D02*
X89535000Y65409200D01*
X89535000Y65409200D02*
X88265000Y64139200D01*
X88265000Y64139200D02*
X88265000Y60960000D01*
X53975000Y26900300D02*
X53975000Y56754100D01*
X53975000Y56754100D02*
X54011700Y56790800D01*
X53975000Y25400000D02*
X53975000Y26900300D01*
X105136300Y51839700D02*
X100760800Y47464200D01*
X110490000Y53340000D02*
X110490000Y54840300D01*
X95885000Y81915000D02*
X95885000Y76532300D01*
X95885000Y76532300D02*
X109389700Y63027600D01*
X109389700Y63027600D02*
X109389700Y55940600D01*
X109389700Y55940600D02*
X110490000Y54840300D01*
X64135000Y11660300D02*
X62865000Y12930300D01*
X62865000Y12930300D02*
X62865000Y44219700D01*
X62865000Y45720000D02*
X62865000Y44219700D01*
X64135000Y10160000D02*
X64135000Y11660300D01*
X60299700Y47453700D02*
X61694100Y48848100D01*
X61694100Y48848100D02*
X61694100Y54164700D01*
X61694100Y54164700D02*
X63046900Y55517500D01*
X63046900Y55517500D02*
X63812100Y55517500D01*
X57785000Y44219700D02*
X57785000Y14196200D01*
X57785000Y14196200D02*
X60325000Y11656200D01*
X60325000Y11656200D02*
X60325000Y9395000D01*
X60325000Y9395000D02*
X61460600Y8259400D01*
X61460600Y8259400D02*
X66274700Y8259400D01*
X66274700Y8259400D02*
X66675000Y8659700D01*
X57785000Y45720000D02*
X57785000Y44219700D01*
X66675000Y10160000D02*
X66675000Y8659700D01*
X69215000Y10160000D02*
X69215000Y8659700D01*
X83090100Y48014600D02*
X83090100Y18615300D01*
X83090100Y18615300D02*
X75565000Y11090200D01*
X75565000Y11090200D02*
X75565000Y9395000D01*
X75565000Y9395000D02*
X74829700Y8659700D01*
X74829700Y8659700D02*
X69215000Y8659700D01*
X90805000Y66675000D02*
X90805000Y65174700D01*
X90805000Y65174700D02*
X89535000Y63904700D01*
X89535000Y63904700D02*
X89535000Y58084000D01*
X89535000Y58084000D02*
X86853400Y55402400D01*
X86853400Y55402400D02*
X86853400Y51777900D01*
X86853400Y51777900D02*
X83090100Y48014600D01*
X69930800Y52153700D02*
X69967800Y52190700D01*
X69967800Y52190700D02*
X69967800Y52890200D01*
X69967800Y52890200D02*
X65481900Y57376100D01*
X65481900Y57376100D02*
X52181800Y57376100D01*
X52181800Y57376100D02*
X49036700Y54231000D01*
X49036700Y54231000D02*
X49036700Y52685100D01*
X49036700Y52685100D02*
X47625000Y51273400D01*
X47625000Y51273400D02*
X47625000Y45720000D01*
X71755000Y11660300D02*
X70318400Y13096900D01*
X70318400Y13096900D02*
X70318400Y51766100D01*
X70318400Y51766100D02*
X69930800Y52153700D01*
X71755000Y10160000D02*
X71755000Y11660300D01*
X95250000Y86995000D02*
X95250000Y93980000D01*
M02*
